<?xml version="1.0" encoding="UTF-8"?>
<svg xmlns="http://www.w3.org/2000/svg" xmlns:xlink="http://www.w3.org/1999/xlink" width="400pt" height="300pt" viewBox="0 0 400 300" version="1.1">
<g id="surface1">
<path style="fill-rule:nonzero;fill:rgb(96.078431%,82.352941%,28.235294%);fill-opacity:1;stroke-width:2;stroke-linecap:butt;stroke-linejoin:miter;stroke:rgb(100%,100%,100%);stroke-opacity:1;stroke-miterlimit:10;" d="M 73.5 10 L 113.5 10 L 113.5 22 L 73.5 22 Z M 73.5 10 "/>
<path style=" stroke:none;fill-rule:nonzero;fill:rgb(40%,40%,40%);fill-opacity:1;" d="M 122.210938 15.433594 L 122.210938 13.019531 L 124.277344 13.019531 C 124.707031 13.019531 125.03125 13.113281 125.246094 13.304688 C 125.464844 13.492188 125.570312 13.792969 125.570312 14.210938 C 125.570312 14.640625 125.464844 14.953125 125.246094 15.144531 C 125.03125 15.335938 124.707031 15.433594 124.277344 15.433594 Z M 120.328125 11.558594 L 120.328125 20.125 L 122.210938 20.125 L 122.210938 16.777344 L 124.097656 16.777344 C 124.570312 16.777344 124.90625 16.882812 125.117188 17.089844 C 125.324219 17.296875 125.460938 17.625 125.523438 18.074219 C 125.570312 18.417969 125.609375 18.777344 125.632812 19.152344 C 125.65625 19.527344 125.71875 19.851562 125.824219 20.125 L 127.707031 20.125 C 127.621094 20.003906 127.554688 19.859375 127.511719 19.6875 C 127.464844 19.515625 127.433594 19.332031 127.414062 19.140625 C 127.394531 18.949219 127.378906 18.761719 127.371094 18.578125 C 127.363281 18.394531 127.355469 18.234375 127.347656 18.097656 C 127.332031 17.882812 127.300781 17.664062 127.257812 17.449219 C 127.214844 17.234375 127.144531 17.035156 127.046875 16.855469 C 126.953125 16.675781 126.828125 16.519531 126.675781 16.386719 C 126.523438 16.253906 126.332031 16.15625 126.101562 16.09375 L 126.101562 16.070312 C 126.582031 15.878906 126.925781 15.597656 127.136719 15.230469 C 127.347656 14.863281 127.457031 14.425781 127.457031 13.921875 C 127.457031 13.59375 127.398438 13.285156 127.28125 13.003906 C 127.164062 12.71875 126.996094 12.46875 126.777344 12.253906 C 126.558594 12.039062 126.292969 11.867188 125.984375 11.742188 C 125.675781 11.617188 125.332031 11.558594 124.949219 11.558594 Z M 130.660156 17.027344 C 130.660156 16.78125 130.683594 16.535156 130.730469 16.296875 C 130.78125 16.058594 130.863281 15.84375 130.976562 15.660156 C 131.09375 15.476562 131.246094 15.328125 131.441406 15.210938 C 131.632812 15.09375 131.871094 15.035156 132.160156 15.035156 C 132.449219 15.035156 132.691406 15.09375 132.886719 15.210938 C 133.082031 15.328125 133.238281 15.476562 133.355469 15.660156 C 133.46875 15.84375 133.550781 16.058594 133.601562 16.296875 C 133.648438 16.535156 133.671875 16.78125 133.671875 17.027344 C 133.671875 17.277344 133.648438 17.519531 133.601562 17.753906 C 133.550781 17.992188 133.46875 18.203125 133.355469 18.390625 C 133.238281 18.578125 133.082031 18.730469 132.886719 18.839844 C 132.691406 18.953125 132.449219 19.007812 132.160156 19.007812 C 131.871094 19.007812 131.632812 18.953125 131.441406 18.839844 C 131.25 18.730469 131.09375 18.578125 130.976562 18.390625 C 130.863281 18.203125 130.78125 17.992188 130.730469 17.753906 C 130.683594 17.519531 130.660156 17.277344 130.660156 17.027344 Z M 128.957031 17.027344 C 128.957031 17.523438 129.03125 17.972656 129.183594 18.371094 C 129.335938 18.773438 129.550781 19.113281 129.832031 19.398438 C 130.113281 19.683594 130.449219 19.902344 130.839844 20.054688 C 131.230469 20.207031 131.671875 20.28125 132.160156 20.28125 C 132.648438 20.28125 133.089844 20.203125 133.484375 20.054688 C 133.882812 19.902344 134.21875 19.683594 134.5 19.398438 C 134.78125 19.113281 134.996094 18.773438 135.148438 18.371094 C 135.300781 17.972656 135.375 17.523438 135.375 17.027344 C 135.375 16.53125 135.300781 16.082031 135.148438 15.679688 C 134.996094 15.273438 134.78125 14.929688 134.5 14.648438 C 134.21875 14.363281 133.882812 14.144531 133.484375 13.988281 C 133.089844 13.832031 132.648438 13.753906 132.160156 13.753906 C 131.671875 13.753906 131.230469 13.832031 130.839844 13.988281 C 130.449219 14.144531 130.113281 14.363281 129.832031 14.648438 C 129.550781 14.929688 129.335938 15.273438 129.183594 15.679688 C 129.03125 16.082031 128.957031 16.53125 128.957031 17.027344 Z M 140.371094 16.105469 L 142.039062 16.105469 C 142.015625 15.707031 141.921875 15.359375 141.753906 15.066406 C 141.585938 14.773438 141.367188 14.53125 141.097656 14.335938 C 140.828125 14.140625 140.527344 13.992188 140.1875 13.898438 C 139.847656 13.800781 139.492188 13.753906 139.125 13.753906 C 138.621094 13.753906 138.171875 13.835938 137.78125 14.003906 C 137.386719 14.171875 137.054688 14.40625 136.785156 14.707031 C 136.511719 15.007812 136.304688 15.363281 136.164062 15.773438 C 136.023438 16.1875 135.957031 16.632812 135.957031 17.113281 C 135.957031 17.578125 136.03125 18.003906 136.183594 18.390625 C 136.335938 18.777344 136.546875 19.113281 136.820312 19.394531 C 137.09375 19.671875 137.421875 19.890625 137.808594 20.046875 C 138.199219 20.203125 138.625 20.28125 139.089844 20.28125 C 139.914062 20.28125 140.589844 20.066406 141.117188 19.632812 C 141.644531 19.199219 141.964844 18.574219 142.074219 17.75 L 140.433594 17.75 C 140.375 18.132812 140.238281 18.4375 140.019531 18.667969 C 139.796875 18.894531 139.484375 19.007812 139.074219 19.007812 C 138.8125 19.007812 138.589844 18.949219 138.402344 18.828125 C 138.21875 18.707031 138.074219 18.554688 137.964844 18.367188 C 137.859375 18.179688 137.78125 17.96875 137.730469 17.738281 C 137.683594 17.503906 137.660156 17.277344 137.660156 17.054688 C 137.660156 16.820312 137.683594 16.585938 137.730469 16.351562 C 137.78125 16.113281 137.863281 15.898438 137.976562 15.703125 C 138.09375 15.507812 138.242188 15.347656 138.429688 15.222656 C 138.613281 15.097656 138.839844 15.035156 139.113281 15.035156 C 139.839844 15.035156 140.261719 15.394531 140.371094 16.105469 Z M 143.304688 11.558594 L 143.304688 20.125 L 145.007812 20.125 L 145.007812 17.988281 L 145.667969 17.351562 L 147.371094 20.125 L 149.4375 20.125 L 146.832031 16.199219 L 149.171875 13.921875 L 147.15625 13.921875 L 145.007812 16.152344 L 145.007812 11.558594 Z M 157.371094 16.105469 L 159.039062 16.105469 C 159.015625 15.707031 158.921875 15.359375 158.753906 15.066406 C 158.585938 14.773438 158.367188 14.53125 158.097656 14.335938 C 157.828125 14.140625 157.527344 13.992188 157.1875 13.898438 C 156.847656 13.800781 156.492188 13.753906 156.125 13.753906 C 155.621094 13.753906 155.171875 13.835938 154.78125 14.003906 C 154.386719 14.171875 154.054688 14.40625 153.785156 14.707031 C 153.511719 15.007812 153.304688 15.363281 153.164062 15.773438 C 153.023438 16.1875 152.957031 16.632812 152.957031 17.113281 C 152.957031 17.578125 153.03125 18.003906 153.183594 18.390625 C 153.335938 18.777344 153.546875 19.113281 153.820312 19.394531 C 154.09375 19.671875 154.421875 19.890625 154.808594 20.046875 C 155.199219 20.203125 155.625 20.28125 156.089844 20.28125 C 156.914062 20.28125 157.589844 20.066406 158.117188 19.632812 C 158.644531 19.199219 158.964844 18.574219 159.074219 17.75 L 157.433594 17.75 C 157.375 18.132812 157.238281 18.4375 157.019531 18.667969 C 156.796875 18.894531 156.484375 19.007812 156.074219 19.007812 C 155.8125 19.007812 155.589844 18.949219 155.402344 18.828125 C 155.21875 18.707031 155.074219 18.554688 154.964844 18.367188 C 154.859375 18.179688 154.78125 17.96875 154.730469 17.738281 C 154.683594 17.503906 154.660156 17.277344 154.660156 17.054688 C 154.660156 16.820312 154.683594 16.585938 154.730469 16.351562 C 154.78125 16.113281 154.863281 15.898438 154.976562 15.703125 C 155.09375 15.507812 155.242188 15.347656 155.429688 15.222656 C 155.613281 15.097656 155.839844 15.035156 156.113281 15.035156 C 156.839844 15.035156 157.261719 15.394531 157.371094 16.105469 Z M 160.195312 11.558594 L 160.195312 20.125 L 161.898438 20.125 L 161.898438 11.558594 Z M 164.898438 12.960938 L 164.898438 11.558594 L 163.195312 11.558594 L 163.195312 12.960938 Z M 163.195312 13.921875 L 163.195312 20.125 L 164.898438 20.125 L 164.898438 13.921875 Z M 166.195312 13.921875 L 166.195312 20.125 L 167.898438 20.125 L 167.898438 16.523438 C 167.898438 16.21875 167.945312 15.976562 168.03125 15.785156 C 168.121094 15.597656 168.226562 15.453125 168.351562 15.355469 C 168.472656 15.253906 168.601562 15.1875 168.734375 15.152344 C 168.867188 15.117188 168.972656 15.097656 169.050781 15.097656 C 169.324219 15.097656 169.53125 15.144531 169.671875 15.234375 C 169.8125 15.328125 169.910156 15.449219 169.96875 15.601562 C 170.03125 15.753906 170.0625 15.917969 170.070312 16.097656 C 170.078125 16.277344 170.085938 16.460938 170.085938 16.644531 L 170.085938 20.125 L 171.789062 20.125 L 171.789062 16.667969 C 171.789062 16.476562 171.800781 16.285156 171.828125 16.097656 C 171.855469 15.910156 171.914062 15.742188 171.996094 15.59375 C 172.082031 15.445312 172.199219 15.328125 172.347656 15.234375 C 172.496094 15.144531 172.6875 15.097656 172.929688 15.097656 C 173.167969 15.097656 173.359375 15.136719 173.496094 15.21875 C 173.636719 15.296875 173.742188 15.40625 173.816406 15.539062 C 173.886719 15.675781 173.933594 15.835938 173.949219 16.019531 C 173.964844 16.203125 173.972656 16.402344 173.972656 16.609375 L 173.972656 20.125 L 175.675781 20.125 L 175.675781 15.972656 C 175.675781 15.574219 175.621094 15.230469 175.507812 14.945312 C 175.394531 14.664062 175.238281 14.433594 175.039062 14.257812 C 174.839844 14.082031 174.601562 13.953125 174.320312 13.871094 C 174.039062 13.792969 173.734375 13.753906 173.40625 13.753906 C 172.976562 13.753906 172.601562 13.855469 172.285156 14.066406 C 171.96875 14.273438 171.71875 14.511719 171.535156 14.785156 C 171.367188 14.402344 171.121094 14.132812 170.796875 13.980469 C 170.472656 13.828125 170.117188 13.753906 169.722656 13.753906 C 169.316406 13.753906 168.953125 13.839844 168.636719 14.015625 C 168.320312 14.191406 168.050781 14.441406 167.828125 14.761719 L 167.804688 14.761719 L 167.804688 13.921875 Z M 181.695312 17.027344 C 181.695312 17.285156 181.667969 17.53125 181.613281 17.773438 C 181.554688 18.011719 181.46875 18.226562 181.347656 18.410156 C 181.226562 18.59375 181.078125 18.738281 180.898438 18.847656 C 180.71875 18.957031 180.5 19.007812 180.242188 19.007812 C 179.996094 19.007812 179.78125 18.953125 179.597656 18.847656 C 179.414062 18.738281 179.261719 18.59375 179.140625 18.410156 C 179.019531 18.226562 178.933594 18.011719 178.875 17.773438 C 178.820312 17.53125 178.792969 17.285156 178.792969 17.027344 C 178.792969 16.765625 178.820312 16.511719 178.875 16.273438 C 178.933594 16.03125 179.019531 15.820312 179.140625 15.636719 C 179.261719 15.453125 179.410156 15.308594 179.597656 15.199219 C 179.78125 15.089844 179.996094 15.035156 180.242188 15.035156 C 180.5 15.035156 180.71875 15.089844 180.898438 15.199219 C 181.078125 15.308594 181.226562 15.453125 181.347656 15.636719 C 181.46875 15.820312 181.554688 16.03125 181.613281 16.273438 C 181.667969 16.511719 181.695312 16.765625 181.695312 17.027344 Z M 177.148438 11.558594 L 177.148438 20.125 L 178.769531 20.125 L 178.769531 19.332031 L 178.792969 19.332031 C 178.976562 19.675781 179.246094 19.921875 179.609375 20.066406 C 179.96875 20.210938 180.375 20.28125 180.832031 20.28125 C 181.144531 20.28125 181.453125 20.21875 181.757812 20.089844 C 182.0625 19.960938 182.335938 19.765625 182.578125 19.5 C 182.820312 19.238281 183.019531 18.898438 183.171875 18.488281 C 183.324219 18.074219 183.398438 17.585938 183.398438 17.015625 C 183.398438 16.449219 183.324219 15.960938 183.171875 15.546875 C 183.019531 15.136719 182.820312 14.796875 182.578125 14.53125 C 182.335938 14.269531 182.058594 14.074219 181.757812 13.945312 C 181.453125 13.816406 181.144531 13.753906 180.832031 13.753906 C 180.449219 13.753906 180.078125 13.828125 179.722656 13.976562 C 179.367188 14.125 179.085938 14.355469 178.875 14.675781 L 178.851562 14.675781 L 178.851562 11.558594 Z M 185.898438 12.960938 L 185.898438 11.558594 L 184.195312 11.558594 L 184.195312 12.960938 Z M 184.195312 13.921875 L 184.195312 20.125 L 185.898438 20.125 L 185.898438 13.921875 Z M 187.148438 13.921875 L 187.148438 20.125 L 188.851562 20.125 L 188.851562 16.871094 C 188.851562 16.242188 188.957031 15.785156 189.164062 15.511719 C 189.371094 15.234375 189.707031 15.097656 190.171875 15.097656 C 190.578125 15.097656 190.863281 15.222656 191.023438 15.476562 C 191.183594 15.726562 191.265625 16.109375 191.265625 16.621094 L 191.265625 20.125 L 192.96875 20.125 L 192.96875 16.308594 C 192.96875 15.925781 192.933594 15.574219 192.867188 15.257812 C 192.796875 14.941406 192.679688 14.675781 192.511719 14.453125 C 192.34375 14.234375 192.113281 14.0625 191.820312 13.9375 C 191.53125 13.816406 191.15625 13.753906 190.699219 13.753906 C 190.339844 13.753906 189.988281 13.835938 189.644531 14 C 189.300781 14.164062 189.019531 14.425781 188.804688 14.785156 L 188.769531 14.785156 L 188.769531 13.921875 Z M 197.039062 18.660156 C 196.777344 18.660156 196.554688 18.605469 196.378906 18.492188 C 196.203125 18.378906 196.0625 18.238281 195.953125 18.0625 C 195.847656 17.886719 195.769531 17.6875 195.726562 17.46875 C 195.683594 17.246094 195.660156 17.023438 195.660156 16.800781 C 195.660156 16.570312 195.6875 16.347656 195.738281 16.136719 C 195.789062 15.921875 195.875 15.734375 195.988281 15.570312 C 196.105469 15.40625 196.25 15.277344 196.421875 15.179688 C 196.59375 15.085938 196.800781 15.035156 197.039062 15.035156 C 197.320312 15.035156 197.550781 15.089844 197.734375 15.191406 C 197.917969 15.296875 198.066406 15.4375 198.179688 15.613281 C 198.292969 15.789062 198.371094 15.992188 198.421875 16.21875 C 198.46875 16.445312 198.492188 16.6875 198.492188 16.945312 C 198.492188 17.167969 198.460938 17.382812 198.402344 17.585938 C 198.34375 17.789062 198.253906 17.972656 198.132812 18.132812 C 198.011719 18.292969 197.859375 18.421875 197.675781 18.515625 C 197.492188 18.613281 197.28125 18.660156 197.039062 18.660156 Z M 200.113281 19.730469 L 200.113281 13.921875 L 198.492188 13.921875 L 198.492188 14.75 L 198.46875 14.75 C 198.261719 14.390625 198.003906 14.132812 197.695312 13.980469 C 197.386719 13.828125 197.027344 13.753906 196.621094 13.753906 C 196.1875 13.753906 195.804688 13.835938 195.472656 14.003906 C 195.140625 14.171875 194.863281 14.398438 194.640625 14.683594 C 194.417969 14.96875 194.246094 15.296875 194.128906 15.667969 C 194.011719 16.039062 193.957031 16.425781 193.957031 16.824219 C 193.957031 17.25 194.007812 17.652344 194.105469 18.03125 C 194.207031 18.410156 194.363281 18.742188 194.578125 19.027344 C 194.796875 19.3125 195.070312 19.535156 195.40625 19.699219 C 195.742188 19.863281 196.144531 19.945312 196.609375 19.945312 C 196.984375 19.945312 197.34375 19.867188 197.683594 19.710938 C 198.023438 19.554688 198.285156 19.3125 198.46875 18.984375 L 198.492188 18.984375 L 198.492188 19.800781 C 198.5 20.242188 198.394531 20.605469 198.175781 20.894531 C 197.953125 21.179688 197.605469 21.324219 197.125 21.324219 C 196.820312 21.324219 196.550781 21.261719 196.320312 21.140625 C 196.089844 21.015625 195.933594 20.792969 195.851562 20.472656 L 194.160156 20.472656 C 194.183594 20.824219 194.28125 21.128906 194.453125 21.378906 C 194.625 21.632812 194.84375 21.835938 195.101562 21.996094 C 195.363281 22.15625 195.648438 22.273438 195.964844 22.351562 C 196.28125 22.425781 196.59375 22.464844 196.894531 22.464844 C 197.609375 22.464844 198.175781 22.367188 198.601562 22.175781 C 199.023438 21.984375 199.347656 21.75 199.570312 21.476562 C 199.796875 21.199219 199.941406 20.902344 200.011719 20.582031 C 200.078125 20.261719 200.113281 19.976562 200.113281 19.730469 Z M 119.5 8.125 "/>
<path style="fill-rule:nonzero;fill:rgb(89.019608%,54.509804%,51.764706%);fill-opacity:1;stroke-width:2;stroke-linecap:butt;stroke-linejoin:miter;stroke:rgb(100%,100%,100%);stroke-opacity:1;stroke-miterlimit:10;" d="M 225.5 10 L 265.5 10 L 265.5 22 L 225.5 22 Z M 225.5 10 "/>
<path style=" stroke:none;fill-rule:nonzero;fill:rgb(40%,40%,40%);fill-opacity:1;" d="M 278.039062 14.4375 L 279.863281 14.4375 C 279.808594 13.941406 279.671875 13.5 279.457031 13.117188 C 279.242188 12.734375 278.964844 12.410156 278.632812 12.152344 C 278.300781 11.890625 277.925781 11.691406 277.507812 11.558594 C 277.085938 11.421875 276.640625 11.351562 276.167969 11.351562 C 275.511719 11.351562 274.921875 11.46875 274.398438 11.699219 C 273.875 11.933594 273.433594 12.253906 273.070312 12.660156 C 272.710938 13.070312 272.4375 13.546875 272.242188 14.09375 C 272.050781 14.644531 271.957031 15.238281 271.957031 15.878906 C 271.957031 16.5 272.050781 17.082031 272.242188 17.621094 C 272.433594 18.164062 272.710938 18.632812 273.070312 19.03125 C 273.429688 19.433594 273.875 19.746094 274.398438 19.976562 C 274.921875 20.203125 275.511719 20.316406 276.167969 20.316406 C 276.695312 20.316406 277.179688 20.238281 277.621094 20.078125 C 278.058594 19.917969 278.445312 19.683594 278.773438 19.382812 C 279.101562 19.078125 279.363281 18.710938 279.5625 18.277344 C 279.761719 17.84375 279.886719 17.359375 279.9375 16.824219 L 278.113281 16.824219 C 278.039062 17.402344 277.84375 17.863281 277.519531 18.21875 C 277.195312 18.570312 276.742188 18.746094 276.167969 18.746094 C 275.742188 18.746094 275.382812 18.664062 275.089844 18.5 C 274.792969 18.335938 274.550781 18.117188 274.367188 17.84375 C 274.183594 17.574219 274.050781 17.265625 273.964844 16.925781 C 273.882812 16.585938 273.839844 16.238281 273.839844 15.878906 C 273.839844 15.5 273.882812 15.136719 273.964844 14.785156 C 274.050781 14.433594 274.183594 14.117188 274.367188 13.84375 C 274.550781 13.566406 274.792969 13.347656 275.089844 13.183594 C 275.382812 13.019531 275.742188 12.9375 276.167969 12.9375 C 276.398438 12.9375 276.621094 12.976562 276.835938 13.050781 C 277.046875 13.125 277.234375 13.234375 277.402344 13.367188 C 277.570312 13.503906 277.710938 13.664062 277.824219 13.84375 C 277.9375 14.023438 278.007812 14.222656 278.039062 14.4375 Z M 282.660156 17.027344 C 282.660156 16.78125 282.683594 16.535156 282.730469 16.296875 C 282.78125 16.058594 282.863281 15.84375 282.976562 15.660156 C 283.09375 15.476562 283.246094 15.328125 283.441406 15.210938 C 283.632812 15.09375 283.871094 15.035156 284.160156 15.035156 C 284.449219 15.035156 284.691406 15.09375 284.886719 15.210938 C 285.082031 15.328125 285.238281 15.476562 285.355469 15.660156 C 285.46875 15.84375 285.550781 16.058594 285.601562 16.296875 C 285.648438 16.535156 285.671875 16.78125 285.671875 17.027344 C 285.671875 17.277344 285.648438 17.519531 285.601562 17.753906 C 285.550781 17.992188 285.46875 18.203125 285.355469 18.390625 C 285.238281 18.578125 285.082031 18.730469 284.886719 18.839844 C 284.691406 18.953125 284.449219 19.007812 284.160156 19.007812 C 283.871094 19.007812 283.632812 18.953125 283.441406 18.839844 C 283.25 18.730469 283.09375 18.578125 282.976562 18.390625 C 282.863281 18.203125 282.78125 17.992188 282.730469 17.753906 C 282.683594 17.519531 282.660156 17.277344 282.660156 17.027344 Z M 280.957031 17.027344 C 280.957031 17.523438 281.03125 17.972656 281.183594 18.371094 C 281.335938 18.773438 281.550781 19.113281 281.832031 19.398438 C 282.113281 19.683594 282.449219 19.902344 282.839844 20.054688 C 283.230469 20.207031 283.671875 20.28125 284.160156 20.28125 C 284.648438 20.28125 285.089844 20.203125 285.484375 20.054688 C 285.882812 19.902344 286.21875 19.683594 286.5 19.398438 C 286.78125 19.113281 286.996094 18.773438 287.148438 18.371094 C 287.300781 17.972656 287.375 17.523438 287.375 17.027344 C 287.375 16.53125 287.300781 16.082031 287.148438 15.679688 C 286.996094 15.273438 286.78125 14.929688 286.5 14.648438 C 286.21875 14.363281 285.882812 14.144531 285.484375 13.988281 C 285.089844 13.832031 284.648438 13.753906 284.160156 13.753906 C 283.671875 13.753906 283.230469 13.832031 282.839844 13.988281 C 282.449219 14.144531 282.113281 14.363281 281.832031 14.648438 C 281.550781 14.929688 281.335938 15.273438 281.183594 15.679688 C 281.03125 16.082031 280.957031 16.53125 280.957031 17.027344 Z M 292.550781 17.003906 C 292.550781 17.261719 292.527344 17.507812 292.480469 17.75 C 292.433594 17.988281 292.351562 18.203125 292.238281 18.390625 C 292.128906 18.578125 291.976562 18.730469 291.789062 18.839844 C 291.601562 18.953125 291.367188 19.007812 291.089844 19.007812 C 290.824219 19.007812 290.597656 18.949219 290.410156 18.835938 C 290.222656 18.71875 290.066406 18.566406 289.941406 18.378906 C 289.816406 18.191406 289.726562 17.976562 289.671875 17.738281 C 289.617188 17.496094 289.589844 17.257812 289.589844 17.015625 C 289.589844 16.761719 289.613281 16.515625 289.664062 16.277344 C 289.71875 16.042969 289.800781 15.832031 289.917969 15.648438 C 290.035156 15.464844 290.1875 15.316406 290.378906 15.203125 C 290.570312 15.09375 290.808594 15.035156 291.089844 15.035156 C 291.367188 15.035156 291.601562 15.09375 291.785156 15.203125 C 291.96875 15.316406 292.117188 15.464844 292.234375 15.644531 C 292.351562 15.824219 292.433594 16.03125 292.480469 16.265625 C 292.527344 16.503906 292.550781 16.75 292.550781 17.003906 Z M 292.574219 19.332031 L 292.574219 20.125 L 294.195312 20.125 L 294.195312 11.558594 L 292.492188 11.558594 L 292.492188 14.675781 L 292.46875 14.675781 C 292.277344 14.371094 292.015625 14.144531 291.683594 13.988281 C 291.351562 13.832031 291 13.753906 290.632812 13.753906 C 290.175781 13.753906 289.777344 13.84375 289.433594 14.023438 C 289.089844 14.203125 288.800781 14.441406 288.574219 14.738281 C 288.347656 15.035156 288.175781 15.375 288.058594 15.761719 C 287.941406 16.152344 287.882812 16.554688 287.882812 16.96875 C 287.882812 17.402344 287.941406 17.816406 288.058594 18.21875 C 288.175781 18.617188 288.347656 18.972656 288.574219 19.277344 C 288.800781 19.585938 289.09375 19.832031 289.445312 20.011719 C 289.796875 20.191406 290.203125 20.28125 290.667969 20.28125 C 291.074219 20.28125 291.441406 20.207031 291.765625 20.058594 C 292.089844 19.910156 292.351562 19.667969 292.550781 19.332031 Z M 296.898438 12.960938 L 296.898438 11.558594 L 295.195312 11.558594 L 295.195312 12.960938 Z M 295.195312 13.921875 L 295.195312 20.125 L 296.898438 20.125 L 296.898438 13.921875 Z M 298.148438 13.921875 L 298.148438 20.125 L 299.851562 20.125 L 299.851562 16.871094 C 299.851562 16.242188 299.957031 15.785156 300.164062 15.511719 C 300.371094 15.234375 300.707031 15.097656 301.171875 15.097656 C 301.578125 15.097656 301.863281 15.222656 302.023438 15.476562 C 302.183594 15.726562 302.265625 16.109375 302.265625 16.621094 L 302.265625 20.125 L 303.96875 20.125 L 303.96875 16.308594 C 303.96875 15.925781 303.933594 15.574219 303.867188 15.257812 C 303.796875 14.941406 303.679688 14.675781 303.511719 14.453125 C 303.34375 14.234375 303.113281 14.0625 302.820312 13.9375 C 302.53125 13.816406 302.15625 13.753906 301.699219 13.753906 C 301.339844 13.753906 300.988281 13.835938 300.644531 14 C 300.300781 14.164062 300.019531 14.425781 299.804688 14.785156 L 299.769531 14.785156 L 299.769531 13.921875 Z M 308.039062 18.660156 C 307.777344 18.660156 307.554688 18.605469 307.378906 18.492188 C 307.203125 18.378906 307.0625 18.238281 306.953125 18.0625 C 306.847656 17.886719 306.769531 17.6875 306.726562 17.46875 C 306.683594 17.246094 306.660156 17.023438 306.660156 16.800781 C 306.660156 16.570312 306.6875 16.347656 306.738281 16.136719 C 306.789062 15.921875 306.875 15.734375 306.988281 15.570312 C 307.105469 15.40625 307.25 15.277344 307.421875 15.179688 C 307.59375 15.085938 307.800781 15.035156 308.039062 15.035156 C 308.320312 15.035156 308.550781 15.089844 308.734375 15.191406 C 308.917969 15.296875 309.066406 15.4375 309.179688 15.613281 C 309.292969 15.789062 309.371094 15.992188 309.421875 16.21875 C 309.46875 16.445312 309.492188 16.6875 309.492188 16.945312 C 309.492188 17.167969 309.460938 17.382812 309.402344 17.585938 C 309.34375 17.789062 309.253906 17.972656 309.132812 18.132812 C 309.011719 18.292969 308.859375 18.421875 308.675781 18.515625 C 308.492188 18.613281 308.28125 18.660156 308.039062 18.660156 Z M 311.113281 19.730469 L 311.113281 13.921875 L 309.492188 13.921875 L 309.492188 14.75 L 309.46875 14.75 C 309.261719 14.390625 309.003906 14.132812 308.695312 13.980469 C 308.386719 13.828125 308.027344 13.753906 307.621094 13.753906 C 307.1875 13.753906 306.804688 13.835938 306.472656 14.003906 C 306.140625 14.171875 305.863281 14.398438 305.640625 14.683594 C 305.417969 14.96875 305.246094 15.296875 305.128906 15.667969 C 305.011719 16.039062 304.957031 16.425781 304.957031 16.824219 C 304.957031 17.25 305.007812 17.652344 305.105469 18.03125 C 305.207031 18.410156 305.363281 18.742188 305.578125 19.027344 C 305.796875 19.3125 306.070312 19.535156 306.40625 19.699219 C 306.742188 19.863281 307.144531 19.945312 307.609375 19.945312 C 307.984375 19.945312 308.34375 19.867188 308.683594 19.710938 C 309.023438 19.554688 309.285156 19.3125 309.46875 18.984375 L 309.492188 18.984375 L 309.492188 19.800781 C 309.5 20.242188 309.394531 20.605469 309.175781 20.894531 C 308.953125 21.179688 308.605469 21.324219 308.125 21.324219 C 307.820312 21.324219 307.550781 21.261719 307.320312 21.140625 C 307.089844 21.015625 306.933594 20.792969 306.851562 20.472656 L 305.160156 20.472656 C 305.183594 20.824219 305.28125 21.128906 305.453125 21.378906 C 305.625 21.632812 305.84375 21.835938 306.101562 21.996094 C 306.363281 22.15625 306.648438 22.273438 306.964844 22.351562 C 307.28125 22.425781 307.59375 22.464844 307.894531 22.464844 C 308.609375 22.464844 309.175781 22.367188 309.601562 22.175781 C 310.023438 21.984375 310.347656 21.75 310.570312 21.476562 C 310.796875 21.199219 310.941406 20.902344 311.011719 20.582031 C 311.078125 20.261719 311.113281 19.976562 311.113281 19.730469 Z M 271.5 8.125 "/>
<path style="fill-rule:nonzero;fill:rgb(12.54902%,36.862745%,44.313725%);fill-opacity:1;stroke-width:2;stroke-linecap:butt;stroke-linejoin:miter;stroke:rgb(100%,100%,100%);stroke-opacity:1;stroke-miterlimit:10;" d="M 23.5 32 L 63.5 32 L 63.5 44 L 23.5 44 Z M 23.5 32 "/>
<path style=" stroke:none;fill-rule:nonzero;fill:rgb(40%,40%,40%);fill-opacity:1;" d="M 72.210938 40.539062 L 72.210938 35.140625 L 73.554688 35.140625 C 74.019531 35.140625 74.410156 35.207031 74.726562 35.339844 C 75.042969 35.472656 75.296875 35.660156 75.488281 35.910156 C 75.679688 36.15625 75.816406 36.453125 75.902344 36.804688 C 75.984375 37.152344 76.027344 37.539062 76.027344 37.972656 C 76.027344 38.445312 75.96875 38.84375 75.847656 39.171875 C 75.726562 39.5 75.566406 39.765625 75.367188 39.972656 C 75.167969 40.175781 74.941406 40.320312 74.683594 40.410156 C 74.429688 40.496094 74.164062 40.539062 73.890625 40.539062 Z M 70.328125 33.558594 L 70.328125 42.125 L 74.023438 42.125 C 74.679688 42.125 75.25 42.015625 75.734375 41.796875 C 76.21875 41.574219 76.621094 41.273438 76.945312 40.890625 C 77.269531 40.503906 77.511719 40.050781 77.671875 39.519531 C 77.832031 38.992188 77.910156 38.417969 77.910156 37.792969 C 77.910156 37.082031 77.8125 36.460938 77.617188 35.933594 C 77.421875 35.40625 77.148438 34.964844 76.800781 34.613281 C 76.453125 34.261719 76.042969 33.996094 75.566406 33.820312 C 75.089844 33.644531 74.574219 33.558594 74.023438 33.558594 Z M 80.898438 34.960938 L 80.898438 33.558594 L 79.195312 33.558594 L 79.195312 34.960938 Z M 79.195312 35.921875 L 79.195312 42.125 L 80.898438 42.125 L 80.898438 35.921875 Z M 82.148438 35.921875 L 82.148438 42.125 L 83.851562 42.125 L 83.851562 38.871094 C 83.851562 38.242188 83.957031 37.785156 84.164062 37.511719 C 84.371094 37.234375 84.707031 37.097656 85.171875 37.097656 C 85.578125 37.097656 85.863281 37.222656 86.023438 37.476562 C 86.183594 37.726562 86.265625 38.109375 86.265625 38.621094 L 86.265625 42.125 L 87.96875 42.125 L 87.96875 38.308594 C 87.96875 37.925781 87.933594 37.574219 87.867188 37.257812 C 87.796875 36.941406 87.679688 36.675781 87.511719 36.453125 C 87.34375 36.234375 87.113281 36.0625 86.820312 35.9375 C 86.53125 35.816406 86.15625 35.753906 85.699219 35.753906 C 85.339844 35.753906 84.988281 35.835938 84.644531 36 C 84.300781 36.164062 84.019531 36.425781 83.804688 36.785156 L 83.769531 36.785156 L 83.769531 35.921875 Z M 89.148438 35.921875 L 89.148438 42.125 L 90.851562 42.125 L 90.851562 38.871094 C 90.851562 38.242188 90.957031 37.785156 91.164062 37.511719 C 91.371094 37.234375 91.707031 37.097656 92.171875 37.097656 C 92.578125 37.097656 92.863281 37.222656 93.023438 37.476562 C 93.183594 37.726562 93.265625 38.109375 93.265625 38.621094 L 93.265625 42.125 L 94.96875 42.125 L 94.96875 38.308594 C 94.96875 37.925781 94.933594 37.574219 94.867188 37.257812 C 94.796875 36.941406 94.679688 36.675781 94.511719 36.453125 C 94.34375 36.234375 94.113281 36.0625 93.820312 35.9375 C 93.53125 35.816406 93.15625 35.753906 92.699219 35.753906 C 92.339844 35.753906 91.988281 35.835938 91.644531 36 C 91.300781 36.164062 91.019531 36.425781 90.804688 36.785156 L 90.769531 36.785156 L 90.769531 35.921875 Z M 100.324219 38.355469 L 97.550781 38.355469 C 97.558594 38.238281 97.585938 38.101562 97.628906 37.949219 C 97.671875 37.796875 97.75 37.652344 97.859375 37.515625 C 97.964844 37.378906 98.109375 37.265625 98.289062 37.175781 C 98.46875 37.082031 98.695312 37.035156 98.96875 37.035156 C 99.382812 37.035156 99.695312 37.148438 99.898438 37.371094 C 100.101562 37.597656 100.242188 37.925781 100.324219 38.355469 Z M 97.550781 39.4375 L 102.027344 39.4375 C 102.058594 38.957031 102.019531 38.496094 101.90625 38.058594 C 101.796875 37.617188 101.613281 37.226562 101.363281 36.882812 C 101.109375 36.539062 100.789062 36.261719 100.394531 36.058594 C 100.003906 35.855469 99.542969 35.753906 99.015625 35.753906 C 98.542969 35.753906 98.113281 35.835938 97.726562 36.003906 C 97.339844 36.171875 97.003906 36.402344 96.722656 36.695312 C 96.445312 36.988281 96.226562 37.332031 96.074219 37.734375 C 95.921875 38.132812 95.847656 38.566406 95.847656 39.027344 C 95.847656 39.507812 95.921875 39.949219 96.070312 40.347656 C 96.21875 40.75 96.429688 41.09375 96.699219 41.382812 C 96.972656 41.667969 97.304688 41.890625 97.695312 42.046875 C 98.085938 42.203125 98.527344 42.28125 99.015625 42.28125 C 99.71875 42.28125 100.320312 42.121094 100.816406 41.800781 C 101.3125 41.480469 101.679688 40.949219 101.921875 40.203125 L 100.421875 40.203125 C 100.363281 40.394531 100.210938 40.578125 99.964844 40.75 C 99.714844 40.921875 99.421875 41.007812 99.074219 41.007812 C 98.59375 41.007812 98.226562 40.886719 97.972656 40.636719 C 97.714844 40.390625 97.574219 39.988281 97.550781 39.4375 Z M 103.148438 35.921875 L 103.148438 42.125 L 104.851562 42.125 L 104.851562 39.328125 C 104.851562 39.046875 104.878906 38.789062 104.9375 38.550781 C 104.992188 38.308594 105.085938 38.097656 105.21875 37.917969 C 105.351562 37.738281 105.523438 37.597656 105.738281 37.492188 C 105.957031 37.390625 106.21875 37.335938 106.53125 37.335938 C 106.636719 37.335938 106.742188 37.34375 106.855469 37.355469 C 106.96875 37.367188 107.0625 37.382812 107.144531 37.398438 L 107.144531 35.8125 C 107.007812 35.773438 106.882812 35.753906 106.773438 35.753906 C 106.554688 35.753906 106.347656 35.785156 106.148438 35.847656 C 105.949219 35.914062 105.761719 36.003906 105.585938 36.117188 C 105.410156 36.234375 105.253906 36.375 105.117188 36.539062 C 104.980469 36.703125 104.871094 36.882812 104.792969 37.074219 L 104.769531 37.074219 L 104.769531 35.921875 Z M 118.238281 42.125 L 120.195312 35.921875 L 118.445312 35.921875 L 117.304688 40.121094 L 117.28125 40.121094 L 116.222656 35.921875 L 114.566406 35.921875 L 113.535156 40.132812 L 113.511719 40.132812 L 112.371094 35.921875 L 110.570312 35.921875 L 112.539062 42.125 L 114.304688 42.125 L 115.359375 37.960938 L 115.382812 37.960938 L 116.488281 42.125 Z M 122.898438 34.960938 L 122.898438 33.558594 L 121.195312 33.558594 L 121.195312 34.960938 Z M 121.195312 35.921875 L 121.195312 42.125 L 122.898438 42.125 L 122.898438 35.921875 Z M 126.308594 35.921875 L 126.308594 34.0625 L 124.605469 34.0625 L 124.605469 35.921875 L 123.570312 35.921875 L 123.570312 37.0625 L 124.605469 37.0625 L 124.605469 40.722656 C 124.605469 41.035156 124.65625 41.285156 124.761719 41.476562 C 124.863281 41.667969 125.007812 41.816406 125.1875 41.921875 C 125.367188 42.023438 125.574219 42.09375 125.808594 42.132812 C 126.046875 42.167969 126.296875 42.183594 126.558594 42.183594 C 126.726562 42.183594 126.898438 42.179688 127.074219 42.171875 C 127.25 42.164062 127.410156 42.148438 127.554688 42.125 L 127.554688 40.804688 C 127.476562 40.820312 127.390625 40.832031 127.304688 40.839844 C 127.214844 40.847656 127.125 40.851562 127.027344 40.851562 C 126.738281 40.851562 126.546875 40.804688 126.453125 40.710938 C 126.355469 40.613281 126.308594 40.421875 126.308594 40.132812 L 126.308594 37.0625 L 127.554688 37.0625 L 127.554688 35.921875 Z M 128.148438 33.558594 L 128.148438 42.125 L 129.851562 42.125 L 129.851562 38.871094 C 129.851562 38.242188 129.957031 37.785156 130.164062 37.511719 C 130.371094 37.234375 130.707031 37.097656 131.171875 37.097656 C 131.578125 37.097656 131.863281 37.222656 132.023438 37.476562 C 132.183594 37.726562 132.265625 38.109375 132.265625 38.621094 L 132.265625 42.125 L 133.96875 42.125 L 133.96875 38.308594 C 133.96875 37.925781 133.933594 37.574219 133.867188 37.257812 C 133.796875 36.941406 133.679688 36.675781 133.511719 36.453125 C 133.34375 36.234375 133.113281 36.0625 132.820312 35.9375 C 132.53125 35.816406 132.15625 35.753906 131.699219 35.753906 C 131.378906 35.753906 131.050781 35.835938 130.714844 36 C 130.378906 36.164062 130.105469 36.425781 129.886719 36.785156 L 129.851562 36.785156 L 129.851562 33.558594 Z M 138.519531 37.0625 L 138.519531 42.125 L 140.222656 42.125 L 140.222656 37.0625 L 141.398438 37.0625 L 141.398438 35.921875 L 140.222656 35.921875 L 140.222656 35.550781 C 140.222656 35.292969 140.273438 35.109375 140.375 35.003906 C 140.472656 34.894531 140.640625 34.839844 140.871094 34.839844 C 141.085938 34.839844 141.296875 34.851562 141.496094 34.878906 L 141.496094 33.605469 C 141.351562 33.597656 141.203125 33.585938 141.050781 33.574219 C 140.898438 33.5625 140.746094 33.558594 140.597656 33.558594 C 139.902344 33.558594 139.378906 33.734375 139.035156 34.085938 C 138.691406 34.4375 138.519531 34.890625 138.519531 35.441406 L 138.519531 35.921875 L 137.5 35.921875 L 137.5 37.0625 Z M 142.148438 35.921875 L 142.148438 42.125 L 143.851562 42.125 L 143.851562 39.328125 C 143.851562 39.046875 143.878906 38.789062 143.9375 38.550781 C 143.992188 38.308594 144.085938 38.097656 144.21875 37.917969 C 144.351562 37.738281 144.523438 37.597656 144.738281 37.492188 C 144.957031 37.390625 145.21875 37.335938 145.53125 37.335938 C 145.636719 37.335938 145.742188 37.34375 145.855469 37.355469 C 145.96875 37.367188 146.0625 37.382812 146.144531 37.398438 L 146.144531 35.8125 C 146.007812 35.773438 145.882812 35.753906 145.773438 35.753906 C 145.554688 35.753906 145.347656 35.785156 145.148438 35.847656 C 144.949219 35.914062 144.761719 36.003906 144.585938 36.117188 C 144.410156 36.234375 144.253906 36.375 144.117188 36.539062 C 143.980469 36.703125 143.871094 36.882812 143.792969 37.074219 L 143.769531 37.074219 L 143.769531 35.921875 Z M 148.898438 34.960938 L 148.898438 33.558594 L 147.195312 33.558594 L 147.195312 34.960938 Z M 147.195312 35.921875 L 147.195312 42.125 L 148.898438 42.125 L 148.898438 35.921875 Z M 154.324219 38.355469 L 151.550781 38.355469 C 151.558594 38.238281 151.585938 38.101562 151.628906 37.949219 C 151.671875 37.796875 151.75 37.652344 151.859375 37.515625 C 151.964844 37.378906 152.109375 37.265625 152.289062 37.175781 C 152.46875 37.082031 152.695312 37.035156 152.96875 37.035156 C 153.382812 37.035156 153.695312 37.148438 153.898438 37.371094 C 154.101562 37.597656 154.242188 37.925781 154.324219 38.355469 Z M 151.550781 39.4375 L 156.027344 39.4375 C 156.058594 38.957031 156.019531 38.496094 155.90625 38.058594 C 155.796875 37.617188 155.613281 37.226562 155.363281 36.882812 C 155.109375 36.539062 154.789062 36.261719 154.394531 36.058594 C 154.003906 35.855469 153.542969 35.753906 153.015625 35.753906 C 152.542969 35.753906 152.113281 35.835938 151.726562 36.003906 C 151.339844 36.171875 151.003906 36.402344 150.722656 36.695312 C 150.445312 36.988281 150.226562 37.332031 150.074219 37.734375 C 149.921875 38.132812 149.847656 38.566406 149.847656 39.027344 C 149.847656 39.507812 149.921875 39.949219 150.070312 40.347656 C 150.21875 40.75 150.429688 41.09375 150.699219 41.382812 C 150.972656 41.667969 151.304688 41.890625 151.695312 42.046875 C 152.085938 42.203125 152.527344 42.28125 153.015625 42.28125 C 153.71875 42.28125 154.320312 42.121094 154.816406 41.800781 C 155.3125 41.480469 155.679688 40.949219 155.921875 40.203125 L 154.421875 40.203125 C 154.363281 40.394531 154.210938 40.578125 153.964844 40.75 C 153.714844 40.921875 153.421875 41.007812 153.074219 41.007812 C 152.59375 41.007812 152.226562 40.886719 151.972656 40.636719 C 151.714844 40.390625 151.574219 39.988281 151.550781 39.4375 Z M 157.148438 35.921875 L 157.148438 42.125 L 158.851562 42.125 L 158.851562 38.871094 C 158.851562 38.242188 158.957031 37.785156 159.164062 37.511719 C 159.371094 37.234375 159.707031 37.097656 160.171875 37.097656 C 160.578125 37.097656 160.863281 37.222656 161.023438 37.476562 C 161.183594 37.726562 161.265625 38.109375 161.265625 38.621094 L 161.265625 42.125 L 162.96875 42.125 L 162.96875 38.308594 C 162.96875 37.925781 162.933594 37.574219 162.867188 37.257812 C 162.796875 36.941406 162.679688 36.675781 162.511719 36.453125 C 162.34375 36.234375 162.113281 36.0625 161.820312 35.9375 C 161.53125 35.816406 161.15625 35.753906 160.699219 35.753906 C 160.339844 35.753906 159.988281 35.835938 159.644531 36 C 159.300781 36.164062 159.019531 36.425781 158.804688 36.785156 L 158.769531 36.785156 L 158.769531 35.921875 Z M 168.550781 39.003906 C 168.550781 39.261719 168.527344 39.507812 168.480469 39.75 C 168.433594 39.988281 168.351562 40.203125 168.238281 40.390625 C 168.128906 40.578125 167.976562 40.730469 167.789062 40.839844 C 167.601562 40.953125 167.367188 41.007812 167.089844 41.007812 C 166.824219 41.007812 166.597656 40.949219 166.410156 40.835938 C 166.222656 40.71875 166.066406 40.566406 165.941406 40.378906 C 165.816406 40.191406 165.726562 39.976562 165.671875 39.738281 C 165.617188 39.496094 165.589844 39.257812 165.589844 39.015625 C 165.589844 38.761719 165.613281 38.515625 165.664062 38.277344 C 165.71875 38.042969 165.800781 37.832031 165.917969 37.648438 C 166.035156 37.464844 166.1875 37.316406 166.378906 37.203125 C 166.570312 37.09375 166.808594 37.035156 167.089844 37.035156 C 167.367188 37.035156 167.601562 37.09375 167.785156 37.203125 C 167.96875 37.316406 168.117188 37.464844 168.234375 37.644531 C 168.351562 37.824219 168.433594 38.03125 168.480469 38.265625 C 168.527344 38.503906 168.550781 38.75 168.550781 39.003906 Z M 168.574219 41.332031 L 168.574219 42.125 L 170.195312 42.125 L 170.195312 33.558594 L 168.492188 33.558594 L 168.492188 36.675781 L 168.46875 36.675781 C 168.277344 36.371094 168.015625 36.144531 167.683594 35.988281 C 167.351562 35.832031 167 35.753906 166.632812 35.753906 C 166.175781 35.753906 165.777344 35.84375 165.433594 36.023438 C 165.089844 36.203125 164.800781 36.441406 164.574219 36.738281 C 164.347656 37.035156 164.175781 37.375 164.058594 37.761719 C 163.941406 38.152344 163.882812 38.554688 163.882812 38.96875 C 163.882812 39.402344 163.941406 39.816406 164.058594 40.21875 C 164.175781 40.617188 164.347656 40.972656 164.574219 41.277344 C 164.800781 41.585938 165.09375 41.832031 165.445312 42.011719 C 165.796875 42.191406 166.203125 42.28125 166.667969 42.28125 C 167.074219 42.28125 167.441406 42.207031 167.765625 42.058594 C 168.089844 41.910156 168.351562 41.667969 168.550781 41.332031 Z M 172.46875 40.109375 L 170.847656 40.109375 C 170.863281 40.523438 170.957031 40.871094 171.128906 41.148438 C 171.300781 41.421875 171.523438 41.644531 171.789062 41.8125 C 172.058594 41.980469 172.363281 42.101562 172.707031 42.171875 C 173.050781 42.246094 173.402344 42.28125 173.765625 42.28125 C 174.117188 42.28125 174.460938 42.246094 174.800781 42.179688 C 175.140625 42.109375 175.445312 41.992188 175.707031 41.824219 C 175.972656 41.65625 176.1875 41.433594 176.351562 41.160156 C 176.515625 40.882812 176.597656 40.539062 176.597656 40.132812 C 176.597656 39.84375 176.539062 39.601562 176.429688 39.40625 C 176.316406 39.210938 176.167969 39.046875 175.984375 38.914062 C 175.800781 38.78125 175.589844 38.675781 175.355469 38.597656 C 175.117188 38.515625 174.875 38.449219 174.628906 38.394531 C 174.386719 38.335938 174.152344 38.285156 173.921875 38.238281 C 173.6875 38.1875 173.480469 38.136719 173.300781 38.074219 C 173.121094 38.015625 172.976562 37.9375 172.863281 37.839844 C 172.75 37.746094 172.695312 37.621094 172.695312 37.46875 C 172.695312 37.339844 172.726562 37.238281 172.792969 37.164062 C 172.855469 37.085938 172.933594 37.027344 173.027344 36.988281 C 173.117188 36.949219 173.21875 36.921875 173.332031 36.910156 C 173.445312 36.898438 173.546875 36.894531 173.644531 36.894531 C 173.949219 36.894531 174.210938 36.949219 174.4375 37.066406 C 174.660156 37.183594 174.785156 37.40625 174.808594 37.734375 L 176.429688 37.734375 C 176.398438 37.347656 176.296875 37.03125 176.132812 36.777344 C 175.96875 36.527344 175.765625 36.324219 175.515625 36.171875 C 175.269531 36.019531 174.984375 35.914062 174.671875 35.847656 C 174.355469 35.785156 174.027344 35.753906 173.691406 35.753906 C 173.355469 35.753906 173.027344 35.78125 172.707031 35.84375 C 172.386719 35.902344 172.101562 36.007812 171.84375 36.15625 C 171.589844 36.304688 171.382812 36.503906 171.226562 36.761719 C 171.070312 37.015625 170.992188 37.34375 170.992188 37.746094 C 170.992188 38.015625 171.046875 38.246094 171.160156 38.433594 C 171.273438 38.621094 171.421875 38.777344 171.605469 38.902344 C 171.789062 39.027344 171.996094 39.128906 172.234375 39.203125 C 172.46875 39.277344 172.710938 39.34375 172.960938 39.402344 C 173.566406 39.53125 174.042969 39.65625 174.382812 39.785156 C 174.722656 39.914062 174.890625 40.105469 174.890625 40.359375 C 174.890625 40.511719 174.855469 40.640625 174.785156 40.738281 C 174.710938 40.839844 174.621094 40.917969 174.515625 40.980469 C 174.40625 41.039062 174.285156 41.082031 174.152344 41.109375 C 174.019531 41.136719 173.894531 41.152344 173.777344 41.152344 C 173.609375 41.152344 173.445312 41.132812 173.289062 41.09375 C 173.132812 41.054688 172.996094 40.992188 172.875 40.90625 C 172.753906 40.824219 172.65625 40.714844 172.582031 40.582031 C 172.507812 40.449219 172.46875 40.292969 172.46875 40.109375 Z M 69.5 30.125 "/>
<path style="fill-rule:nonzero;fill:rgb(39.215686%,90.980392%,23.529412%);fill-opacity:1;stroke-width:2;stroke-linecap:butt;stroke-linejoin:miter;stroke:rgb(100%,100%,100%);stroke-opacity:1;stroke-miterlimit:10;" d="M 201.5 32 L 241.5 32 L 241.5 44 L 201.5 44 Z M 201.5 32 "/>
<path style=" stroke:none;fill-rule:nonzero;fill:rgb(40%,40%,40%);fill-opacity:1;" d="M 248.328125 33.558594 L 248.328125 42.125 L 250.09375 42.125 L 250.09375 36.113281 L 250.117188 36.113281 L 252.214844 42.125 L 253.667969 42.125 L 255.769531 36.054688 L 255.792969 36.054688 L 255.792969 42.125 L 257.554688 42.125 L 257.554688 33.558594 L 254.902344 33.558594 L 253.007812 39.449219 L 252.984375 39.449219 L 250.980469 33.558594 Z M 259.074219 37.828125 C 259.097656 37.429688 259.199219 37.097656 259.375 36.832031 C 259.550781 36.570312 259.777344 36.355469 260.046875 36.195312 C 260.320312 36.035156 260.625 35.921875 260.964844 35.855469 C 261.304688 35.789062 261.648438 35.753906 261.992188 35.753906 C 262.304688 35.753906 262.621094 35.773438 262.941406 35.820312 C 263.261719 35.863281 263.550781 35.949219 263.816406 36.078125 C 264.082031 36.207031 264.296875 36.382812 264.464844 36.609375 C 264.632812 36.839844 264.714844 37.140625 264.714844 37.515625 L 264.714844 40.746094 C 264.714844 41.023438 264.730469 41.292969 264.765625 41.550781 C 264.796875 41.804688 264.851562 41.996094 264.933594 42.125 L 263.203125 42.125 C 263.171875 42.027344 263.144531 41.929688 263.125 41.832031 C 263.105469 41.730469 263.09375 41.628906 263.085938 41.523438 C 262.8125 41.804688 262.492188 42 262.125 42.113281 C 261.757812 42.226562 261.378906 42.28125 260.996094 42.28125 C 260.699219 42.28125 260.425781 42.246094 260.167969 42.171875 C 259.910156 42.101562 259.6875 41.988281 259.496094 41.835938 C 259.304688 41.683594 259.152344 41.492188 259.046875 41.261719 C 258.9375 41.027344 258.882812 40.753906 258.882812 40.433594 C 258.882812 40.082031 258.945312 39.789062 259.070312 39.5625 C 259.195312 39.335938 259.355469 39.152344 259.550781 39.015625 C 259.746094 38.878906 259.96875 38.777344 260.222656 38.710938 C 260.472656 38.644531 260.726562 38.589844 260.984375 38.550781 C 261.238281 38.507812 261.492188 38.476562 261.738281 38.453125 C 261.988281 38.429688 262.207031 38.394531 262.398438 38.34375 C 262.589844 38.296875 262.742188 38.226562 262.855469 38.136719 C 262.96875 38.042969 263.019531 37.910156 263.011719 37.734375 C 263.011719 37.550781 262.980469 37.402344 262.921875 37.296875 C 262.863281 37.1875 262.78125 37.101562 262.683594 37.042969 C 262.582031 36.984375 262.464844 36.941406 262.335938 36.921875 C 262.203125 36.902344 262.058594 36.894531 261.90625 36.894531 C 261.570312 36.894531 261.308594 36.964844 261.117188 37.109375 C 260.925781 37.253906 260.8125 37.492188 260.78125 37.828125 Z M 263.011719 39.089844 C 262.941406 39.152344 262.851562 39.203125 262.742188 39.238281 C 262.632812 39.273438 262.519531 39.304688 262.394531 39.328125 C 262.269531 39.351562 262.140625 39.371094 262.003906 39.390625 C 261.867188 39.40625 261.730469 39.425781 261.597656 39.449219 C 261.46875 39.472656 261.34375 39.503906 261.21875 39.546875 C 261.09375 39.585938 260.984375 39.640625 260.894531 39.707031 C 260.800781 39.773438 260.726562 39.859375 260.671875 39.964844 C 260.617188 40.070312 260.589844 40.199219 260.589844 40.359375 C 260.589844 40.511719 260.617188 40.640625 260.671875 40.746094 C 260.726562 40.847656 260.804688 40.929688 260.898438 40.992188 C 260.996094 41.050781 261.109375 41.09375 261.234375 41.117188 C 261.363281 41.140625 261.496094 41.152344 261.632812 41.152344 C 261.96875 41.152344 262.226562 41.097656 262.410156 40.984375 C 262.59375 40.871094 262.730469 40.738281 262.820312 40.582031 C 262.90625 40.425781 262.960938 40.269531 262.980469 40.109375 C 263 39.949219 263.011719 39.820312 263.011719 39.726562 Z M 266.304688 33.558594 L 266.304688 42.125 L 268.007812 42.125 L 268.007812 39.988281 L 268.667969 39.351562 L 270.371094 42.125 L 272.4375 42.125 L 269.832031 38.199219 L 272.171875 35.921875 L 270.15625 35.921875 L 268.007812 38.152344 L 268.007812 33.558594 Z M 274.898438 34.960938 L 274.898438 33.558594 L 273.195312 33.558594 L 273.195312 34.960938 Z M 273.195312 35.921875 L 273.195312 42.125 L 274.898438 42.125 L 274.898438 35.921875 Z M 276.148438 35.921875 L 276.148438 42.125 L 277.851562 42.125 L 277.851562 38.871094 C 277.851562 38.242188 277.957031 37.785156 278.164062 37.511719 C 278.371094 37.234375 278.707031 37.097656 279.171875 37.097656 C 279.578125 37.097656 279.863281 37.222656 280.023438 37.476562 C 280.183594 37.726562 280.265625 38.109375 280.265625 38.621094 L 280.265625 42.125 L 281.96875 42.125 L 281.96875 38.308594 C 281.96875 37.925781 281.933594 37.574219 281.867188 37.257812 C 281.796875 36.941406 281.679688 36.675781 281.511719 36.453125 C 281.34375 36.234375 281.113281 36.0625 280.820312 35.9375 C 280.53125 35.816406 280.15625 35.753906 279.699219 35.753906 C 279.339844 35.753906 278.988281 35.835938 278.644531 36 C 278.300781 36.164062 278.019531 36.425781 277.804688 36.785156 L 277.769531 36.785156 L 277.769531 35.921875 Z M 286.039062 40.660156 C 285.777344 40.660156 285.554688 40.605469 285.378906 40.492188 C 285.203125 40.378906 285.0625 40.238281 284.953125 40.0625 C 284.847656 39.886719 284.769531 39.6875 284.726562 39.46875 C 284.683594 39.246094 284.660156 39.023438 284.660156 38.800781 C 284.660156 38.570312 284.6875 38.347656 284.738281 38.136719 C 284.789062 37.921875 284.875 37.734375 284.988281 37.570312 C 285.105469 37.40625 285.25 37.277344 285.421875 37.179688 C 285.59375 37.085938 285.800781 37.035156 286.039062 37.035156 C 286.320312 37.035156 286.550781 37.089844 286.734375 37.191406 C 286.917969 37.296875 287.066406 37.4375 287.179688 37.613281 C 287.292969 37.789062 287.371094 37.992188 287.421875 38.21875 C 287.46875 38.445312 287.492188 38.6875 287.492188 38.945312 C 287.492188 39.167969 287.460938 39.382812 287.402344 39.585938 C 287.34375 39.789062 287.253906 39.972656 287.132812 40.132812 C 287.011719 40.292969 286.859375 40.421875 286.675781 40.515625 C 286.492188 40.613281 286.28125 40.660156 286.039062 40.660156 Z M 289.113281 41.730469 L 289.113281 35.921875 L 287.492188 35.921875 L 287.492188 36.75 L 287.46875 36.75 C 287.261719 36.390625 287.003906 36.132812 286.695312 35.980469 C 286.386719 35.828125 286.027344 35.753906 285.621094 35.753906 C 285.1875 35.753906 284.804688 35.835938 284.472656 36.003906 C 284.140625 36.171875 283.863281 36.398438 283.640625 36.683594 C 283.417969 36.96875 283.246094 37.296875 283.128906 37.667969 C 283.011719 38.039062 282.957031 38.425781 282.957031 38.824219 C 282.957031 39.25 283.007812 39.652344 283.105469 40.03125 C 283.207031 40.410156 283.363281 40.742188 283.578125 41.027344 C 283.796875 41.3125 284.070312 41.535156 284.40625 41.699219 C 284.742188 41.863281 285.144531 41.945312 285.609375 41.945312 C 285.984375 41.945312 286.34375 41.867188 286.683594 41.710938 C 287.023438 41.554688 287.285156 41.3125 287.46875 40.984375 L 287.492188 40.984375 L 287.492188 41.800781 C 287.5 42.242188 287.394531 42.605469 287.175781 42.894531 C 286.953125 43.179688 286.605469 43.324219 286.125 43.324219 C 285.820312 43.324219 285.550781 43.261719 285.320312 43.140625 C 285.089844 43.015625 284.933594 42.792969 284.851562 42.472656 L 283.160156 42.472656 C 283.183594 42.824219 283.28125 43.128906 283.453125 43.378906 C 283.625 43.632812 283.84375 43.835938 284.101562 43.996094 C 284.363281 44.15625 284.648438 44.273438 284.964844 44.351562 C 285.28125 44.425781 285.59375 44.464844 285.894531 44.464844 C 286.609375 44.464844 287.175781 44.367188 287.601562 44.175781 C 288.023438 43.984375 288.347656 43.75 288.570312 43.476562 C 288.796875 43.199219 288.941406 42.902344 289.011719 42.582031 C 289.078125 42.261719 289.113281 41.976562 289.113281 41.730469 Z M 293.519531 37.0625 L 293.519531 42.125 L 295.222656 42.125 L 295.222656 37.0625 L 296.398438 37.0625 L 296.398438 35.921875 L 295.222656 35.921875 L 295.222656 35.550781 C 295.222656 35.292969 295.273438 35.109375 295.375 35.003906 C 295.472656 34.894531 295.640625 34.839844 295.871094 34.839844 C 296.085938 34.839844 296.296875 34.851562 296.496094 34.878906 L 296.496094 33.605469 C 296.351562 33.597656 296.203125 33.585938 296.050781 33.574219 C 295.898438 33.5625 295.746094 33.558594 295.597656 33.558594 C 294.902344 33.558594 294.378906 33.734375 294.035156 34.085938 C 293.691406 34.4375 293.519531 34.890625 293.519531 35.441406 L 293.519531 35.921875 L 292.5 35.921875 L 292.5 37.0625 Z M 297.074219 37.828125 C 297.097656 37.429688 297.199219 37.097656 297.375 36.832031 C 297.550781 36.570312 297.777344 36.355469 298.046875 36.195312 C 298.320312 36.035156 298.625 35.921875 298.964844 35.855469 C 299.304688 35.789062 299.648438 35.753906 299.992188 35.753906 C 300.304688 35.753906 300.621094 35.773438 300.941406 35.820312 C 301.261719 35.863281 301.550781 35.949219 301.816406 36.078125 C 302.082031 36.207031 302.296875 36.382812 302.464844 36.609375 C 302.632812 36.839844 302.714844 37.140625 302.714844 37.515625 L 302.714844 40.746094 C 302.714844 41.023438 302.730469 41.292969 302.765625 41.550781 C 302.796875 41.804688 302.851562 41.996094 302.933594 42.125 L 301.203125 42.125 C 301.171875 42.027344 301.144531 41.929688 301.125 41.832031 C 301.105469 41.730469 301.09375 41.628906 301.085938 41.523438 C 300.8125 41.804688 300.492188 42 300.125 42.113281 C 299.757812 42.226562 299.378906 42.28125 298.996094 42.28125 C 298.699219 42.28125 298.425781 42.246094 298.167969 42.171875 C 297.910156 42.101562 297.6875 41.988281 297.496094 41.835938 C 297.304688 41.683594 297.152344 41.492188 297.046875 41.261719 C 296.9375 41.027344 296.882812 40.753906 296.882812 40.433594 C 296.882812 40.082031 296.945312 39.789062 297.070312 39.5625 C 297.195312 39.335938 297.355469 39.152344 297.550781 39.015625 C 297.746094 38.878906 297.96875 38.777344 298.222656 38.710938 C 298.472656 38.644531 298.726562 38.589844 298.984375 38.550781 C 299.238281 38.507812 299.492188 38.476562 299.738281 38.453125 C 299.988281 38.429688 300.207031 38.394531 300.398438 38.34375 C 300.589844 38.296875 300.742188 38.226562 300.855469 38.136719 C 300.96875 38.042969 301.019531 37.910156 301.011719 37.734375 C 301.011719 37.550781 300.980469 37.402344 300.921875 37.296875 C 300.863281 37.1875 300.78125 37.101562 300.683594 37.042969 C 300.582031 36.984375 300.464844 36.941406 300.335938 36.921875 C 300.203125 36.902344 300.058594 36.894531 299.90625 36.894531 C 299.570312 36.894531 299.308594 36.964844 299.117188 37.109375 C 298.925781 37.253906 298.8125 37.492188 298.78125 37.828125 Z M 301.011719 39.089844 C 300.941406 39.152344 300.851562 39.203125 300.742188 39.238281 C 300.632812 39.273438 300.519531 39.304688 300.394531 39.328125 C 300.269531 39.351562 300.140625 39.371094 300.003906 39.390625 C 299.867188 39.40625 299.730469 39.425781 299.597656 39.449219 C 299.46875 39.472656 299.34375 39.503906 299.21875 39.546875 C 299.09375 39.585938 298.984375 39.640625 298.894531 39.707031 C 298.800781 39.773438 298.726562 39.859375 298.671875 39.964844 C 298.617188 40.070312 298.589844 40.199219 298.589844 40.359375 C 298.589844 40.511719 298.617188 40.640625 298.671875 40.746094 C 298.726562 40.847656 298.804688 40.929688 298.898438 40.992188 C 298.996094 41.050781 299.109375 41.09375 299.234375 41.117188 C 299.363281 41.140625 299.496094 41.152344 299.632812 41.152344 C 299.96875 41.152344 300.226562 41.097656 300.410156 40.984375 C 300.59375 40.871094 300.730469 40.738281 300.820312 40.582031 C 300.90625 40.425781 300.960938 40.269531 300.980469 40.109375 C 301 39.949219 301.011719 39.820312 301.011719 39.726562 Z M 304.148438 35.921875 L 304.148438 42.125 L 305.851562 42.125 L 305.851562 38.871094 C 305.851562 38.242188 305.957031 37.785156 306.164062 37.511719 C 306.371094 37.234375 306.707031 37.097656 307.171875 37.097656 C 307.578125 37.097656 307.863281 37.222656 308.023438 37.476562 C 308.183594 37.726562 308.265625 38.109375 308.265625 38.621094 L 308.265625 42.125 L 309.96875 42.125 L 309.96875 38.308594 C 309.96875 37.925781 309.933594 37.574219 309.867188 37.257812 C 309.796875 36.941406 309.679688 36.675781 309.511719 36.453125 C 309.34375 36.234375 309.113281 36.0625 308.820312 35.9375 C 308.53125 35.816406 308.15625 35.753906 307.699219 35.753906 C 307.339844 35.753906 306.988281 35.835938 306.644531 36 C 306.300781 36.164062 306.019531 36.425781 305.804688 36.785156 L 305.769531 36.785156 L 305.769531 35.921875 Z M 315.371094 38.105469 L 317.039062 38.105469 C 317.015625 37.707031 316.921875 37.359375 316.753906 37.066406 C 316.585938 36.773438 316.367188 36.53125 316.097656 36.335938 C 315.828125 36.140625 315.527344 35.992188 315.1875 35.898438 C 314.847656 35.800781 314.492188 35.753906 314.125 35.753906 C 313.621094 35.753906 313.171875 35.835938 312.78125 36.003906 C 312.386719 36.171875 312.054688 36.40625 311.785156 36.707031 C 311.511719 37.007812 311.304688 37.363281 311.164062 37.773438 C 311.023438 38.1875 310.957031 38.632812 310.957031 39.113281 C 310.957031 39.578125 311.03125 40.003906 311.183594 40.390625 C 311.335938 40.777344 311.546875 41.113281 311.820312 41.394531 C 312.09375 41.671875 312.421875 41.890625 312.808594 42.046875 C 313.199219 42.203125 313.625 42.28125 314.089844 42.28125 C 314.914062 42.28125 315.589844 42.066406 316.117188 41.632812 C 316.644531 41.199219 316.964844 40.574219 317.074219 39.75 L 315.433594 39.75 C 315.375 40.132812 315.238281 40.4375 315.019531 40.667969 C 314.796875 40.894531 314.484375 41.007812 314.074219 41.007812 C 313.8125 41.007812 313.589844 40.949219 313.402344 40.828125 C 313.21875 40.707031 313.074219 40.554688 312.964844 40.367188 C 312.859375 40.179688 312.78125 39.96875 312.730469 39.738281 C 312.683594 39.503906 312.660156 39.277344 312.660156 39.054688 C 312.660156 38.820312 312.683594 38.585938 312.730469 38.351562 C 312.78125 38.113281 312.863281 37.898438 312.976562 37.703125 C 313.09375 37.507812 313.242188 37.347656 313.429688 37.222656 C 313.613281 37.097656 313.839844 37.035156 314.113281 37.035156 C 314.839844 37.035156 315.261719 37.394531 315.371094 38.105469 Z M 321.207031 42.894531 L 323.800781 35.921875 L 322.035156 35.921875 L 320.679688 40.167969 L 320.65625 40.167969 L 319.253906 35.921875 L 317.441406 35.921875 L 319.613281 41.742188 C 319.660156 41.863281 319.683594 41.988281 319.683594 42.125 C 319.683594 42.308594 319.628906 42.476562 319.523438 42.628906 C 319.414062 42.78125 319.246094 42.867188 319.023438 42.894531 C 318.855469 42.902344 318.6875 42.898438 318.519531 42.882812 C 318.351562 42.867188 318.1875 42.847656 318.027344 42.832031 L 318.027344 44.238281 C 318.203125 44.253906 318.378906 44.265625 318.550781 44.277344 C 318.722656 44.289062 318.894531 44.296875 319.070312 44.296875 C 319.65625 44.296875 320.113281 44.1875 320.441406 43.972656 C 320.769531 43.757812 321.023438 43.398438 321.207031 42.894531 Z M 331.550781 39.003906 C 331.550781 39.261719 331.527344 39.507812 331.480469 39.75 C 331.433594 39.988281 331.351562 40.203125 331.238281 40.390625 C 331.128906 40.578125 330.976562 40.730469 330.789062 40.839844 C 330.601562 40.953125 330.367188 41.007812 330.089844 41.007812 C 329.824219 41.007812 329.597656 40.949219 329.410156 40.835938 C 329.222656 40.71875 329.066406 40.566406 328.941406 40.378906 C 328.816406 40.191406 328.726562 39.976562 328.671875 39.738281 C 328.617188 39.496094 328.589844 39.257812 328.589844 39.015625 C 328.589844 38.761719 328.613281 38.515625 328.664062 38.277344 C 328.71875 38.042969 328.800781 37.832031 328.917969 37.648438 C 329.035156 37.464844 329.1875 37.316406 329.378906 37.203125 C 329.570312 37.09375 329.808594 37.035156 330.089844 37.035156 C 330.367188 37.035156 330.601562 37.09375 330.785156 37.203125 C 330.96875 37.316406 331.117188 37.464844 331.234375 37.644531 C 331.351562 37.824219 331.433594 38.03125 331.480469 38.265625 C 331.527344 38.503906 331.550781 38.75 331.550781 39.003906 Z M 331.574219 41.332031 L 331.574219 42.125 L 333.195312 42.125 L 333.195312 33.558594 L 331.492188 33.558594 L 331.492188 36.675781 L 331.46875 36.675781 C 331.277344 36.371094 331.015625 36.144531 330.683594 35.988281 C 330.351562 35.832031 330 35.753906 329.632812 35.753906 C 329.175781 35.753906 328.777344 35.84375 328.433594 36.023438 C 328.089844 36.203125 327.800781 36.441406 327.574219 36.738281 C 327.347656 37.035156 327.175781 37.375 327.058594 37.761719 C 326.941406 38.152344 326.882812 38.554688 326.882812 38.96875 C 326.882812 39.402344 326.941406 39.816406 327.058594 40.21875 C 327.175781 40.617188 327.347656 40.972656 327.574219 41.277344 C 327.800781 41.585938 328.09375 41.832031 328.445312 42.011719 C 328.796875 42.191406 329.203125 42.28125 329.667969 42.28125 C 330.074219 42.28125 330.441406 42.207031 330.765625 42.058594 C 331.089844 41.910156 331.351562 41.667969 331.550781 41.332031 Z M 334.148438 35.921875 L 334.148438 42.125 L 335.851562 42.125 L 335.851562 39.328125 C 335.851562 39.046875 335.878906 38.789062 335.9375 38.550781 C 335.992188 38.308594 336.085938 38.097656 336.21875 37.917969 C 336.351562 37.738281 336.523438 37.597656 336.738281 37.492188 C 336.957031 37.390625 337.21875 37.335938 337.53125 37.335938 C 337.636719 37.335938 337.742188 37.34375 337.855469 37.355469 C 337.96875 37.367188 338.0625 37.382812 338.144531 37.398438 L 338.144531 35.8125 C 338.007812 35.773438 337.882812 35.753906 337.773438 35.753906 C 337.554688 35.753906 337.347656 35.785156 337.148438 35.847656 C 336.949219 35.914062 336.761719 36.003906 336.585938 36.117188 C 336.410156 36.234375 336.253906 36.375 336.117188 36.539062 C 335.980469 36.703125 335.871094 36.882812 335.792969 37.074219 L 335.769531 37.074219 L 335.769531 35.921875 Z M 340.898438 34.960938 L 340.898438 33.558594 L 339.195312 33.558594 L 339.195312 34.960938 Z M 339.195312 35.921875 L 339.195312 42.125 L 340.898438 42.125 L 340.898438 35.921875 Z M 342.148438 35.921875 L 342.148438 42.125 L 343.851562 42.125 L 343.851562 38.871094 C 343.851562 38.242188 343.957031 37.785156 344.164062 37.511719 C 344.371094 37.234375 344.707031 37.097656 345.171875 37.097656 C 345.578125 37.097656 345.863281 37.222656 346.023438 37.476562 C 346.183594 37.726562 346.265625 38.109375 346.265625 38.621094 L 346.265625 42.125 L 347.96875 42.125 L 347.96875 38.308594 C 347.96875 37.925781 347.933594 37.574219 347.867188 37.257812 C 347.796875 36.941406 347.679688 36.675781 347.511719 36.453125 C 347.34375 36.234375 347.113281 36.0625 346.820312 35.9375 C 346.53125 35.816406 346.15625 35.753906 345.699219 35.753906 C 345.339844 35.753906 344.988281 35.835938 344.644531 36 C 344.300781 36.164062 344.019531 36.425781 343.804688 36.785156 L 343.769531 36.785156 L 343.769531 35.921875 Z M 349.304688 33.558594 L 349.304688 42.125 L 351.007812 42.125 L 351.007812 39.988281 L 351.667969 39.351562 L 353.371094 42.125 L 355.4375 42.125 L 352.832031 38.199219 L 355.171875 35.921875 L 353.15625 35.921875 L 351.007812 38.152344 L 351.007812 33.558594 Z M 357.46875 40.109375 L 355.847656 40.109375 C 355.863281 40.523438 355.957031 40.871094 356.128906 41.148438 C 356.300781 41.421875 356.523438 41.644531 356.789062 41.8125 C 357.058594 41.980469 357.363281 42.101562 357.707031 42.171875 C 358.050781 42.246094 358.402344 42.28125 358.765625 42.28125 C 359.117188 42.28125 359.460938 42.246094 359.800781 42.179688 C 360.140625 42.109375 360.445312 41.992188 360.707031 41.824219 C 360.972656 41.65625 361.1875 41.433594 361.351562 41.160156 C 361.515625 40.882812 361.597656 40.539062 361.597656 40.132812 C 361.597656 39.84375 361.539062 39.601562 361.429688 39.40625 C 361.316406 39.210938 361.167969 39.046875 360.984375 38.914062 C 360.800781 38.78125 360.589844 38.675781 360.355469 38.597656 C 360.117188 38.515625 359.875 38.449219 359.628906 38.394531 C 359.386719 38.335938 359.152344 38.285156 358.921875 38.238281 C 358.6875 38.1875 358.480469 38.136719 358.300781 38.074219 C 358.121094 38.015625 357.976562 37.9375 357.863281 37.839844 C 357.75 37.746094 357.695312 37.621094 357.695312 37.46875 C 357.695312 37.339844 357.726562 37.238281 357.792969 37.164062 C 357.855469 37.085938 357.933594 37.027344 358.027344 36.988281 C 358.117188 36.949219 358.21875 36.921875 358.332031 36.910156 C 358.445312 36.898438 358.546875 36.894531 358.644531 36.894531 C 358.949219 36.894531 359.210938 36.949219 359.4375 37.066406 C 359.660156 37.183594 359.785156 37.40625 359.808594 37.734375 L 361.429688 37.734375 C 361.398438 37.347656 361.296875 37.03125 361.132812 36.777344 C 360.96875 36.527344 360.765625 36.324219 360.515625 36.171875 C 360.269531 36.019531 359.984375 35.914062 359.671875 35.847656 C 359.355469 35.785156 359.027344 35.753906 358.691406 35.753906 C 358.355469 35.753906 358.027344 35.78125 357.707031 35.84375 C 357.386719 35.902344 357.101562 36.007812 356.84375 36.15625 C 356.589844 36.304688 356.382812 36.503906 356.226562 36.761719 C 356.070312 37.015625 355.992188 37.34375 355.992188 37.746094 C 355.992188 38.015625 356.046875 38.246094 356.160156 38.433594 C 356.273438 38.621094 356.421875 38.777344 356.605469 38.902344 C 356.789062 39.027344 356.996094 39.128906 357.234375 39.203125 C 357.46875 39.277344 357.710938 39.34375 357.960938 39.402344 C 358.566406 39.53125 359.042969 39.65625 359.382812 39.785156 C 359.722656 39.914062 359.890625 40.105469 359.890625 40.359375 C 359.890625 40.511719 359.855469 40.640625 359.785156 40.738281 C 359.710938 40.839844 359.621094 40.917969 359.515625 40.980469 C 359.40625 41.039062 359.285156 41.082031 359.152344 41.109375 C 359.019531 41.136719 358.894531 41.152344 358.777344 41.152344 C 358.609375 41.152344 358.445312 41.132812 358.289062 41.09375 C 358.132812 41.054688 357.996094 40.992188 357.875 40.90625 C 357.753906 40.824219 357.65625 40.714844 357.582031 40.582031 C 357.507812 40.449219 357.46875 40.292969 357.46875 40.109375 Z M 247.5 30.125 "/>
<path style="fill-rule:nonzero;fill:rgb(96.078431%,82.352941%,28.235294%);fill-opacity:1;stroke-width:2;stroke-linecap:butt;stroke-linejoin:bevel;stroke:rgb(100%,100%,100%);stroke-opacity:1;stroke-miterlimit:10;" d="M 200 55 C 245.875 55 287.875 80.738281 308.703125 121.613281 C 329.53125 162.488281 325.664062 211.59375 298.699219 248.710938 L 200 177 Z M 200 55 "/>
<path style="fill-rule:nonzero;fill:rgb(89.019608%,54.509804%,51.764706%);fill-opacity:1;stroke-width:2;stroke-linecap:butt;stroke-linejoin:bevel;stroke:rgb(100%,100%,100%);stroke-opacity:1;stroke-miterlimit:10;" d="M 298.699219 248.710938 C 259.097656 303.21875 182.800781 315.304688 128.289062 275.699219 L 200 177 Z M 298.699219 248.710938 "/>
<path style="fill-rule:nonzero;fill:rgb(12.54902%,36.862745%,44.313725%);fill-opacity:1;stroke-width:2;stroke-linecap:butt;stroke-linejoin:bevel;stroke:rgb(100%,100%,100%);stroke-opacity:1;stroke-miterlimit:10;" d="M 128.289062 275.699219 C 96.695312 252.746094 78 216.054688 78 177 C 78 137.945312 96.695312 101.253906 128.289062 78.300781 L 200 177 Z M 128.289062 275.699219 "/>
<path style="fill-rule:nonzero;fill:rgb(39.215686%,90.980392%,23.529412%);fill-opacity:1;stroke-width:2;stroke-linecap:butt;stroke-linejoin:bevel;stroke:rgb(100%,100%,100%);stroke-opacity:1;stroke-miterlimit:10;" d="M 128.289062 78.300781 C 149.132812 63.15625 174.234375 55 200 55 L 200 177 Z M 128.289062 78.300781 "/>
</g>
</svg>
