<?xml version="1.0" encoding="UTF-8"?>
<svg xmlns="http://www.w3.org/2000/svg" xmlns:xlink="http://www.w3.org/1999/xlink" width="400pt" height="300pt" viewBox="0 0 400 300" version="1.1">
<g id="surface1">
<path style="fill-rule:nonzero;fill:rgb(96.078431%,82.352941%,28.235294%);fill-opacity:1;stroke-width:2;stroke-linecap:butt;stroke-linejoin:miter;stroke:rgb(100%,100%,100%);stroke-opacity:1;stroke-miterlimit:10;" d="M 42.5 10 L 82.5 10 L 82.5 22 L 42.5 22 Z M 42.5 10 "/>
<path style=" stroke:none;fill-rule:nonzero;fill:rgb(40%,40%,40%);fill-opacity:1;" d="M 97.03125 15.226562 L 93.53125 15.226562 L 93.53125 16.726562 L 95.515625 16.726562 C 95.46875 17.210938 95.359375 17.523438 95.09375 17.835938 C 94.65625 18.351562 93.984375 18.664062 93.296875 18.664062 C 91.84375 18.664062 90.796875 17.398438 90.796875 15.601562 C 90.796875 13.710938 91.71875 12.570312 93.25 12.570312 C 93.875 12.570312 94.40625 12.757812 94.796875 13.101562 C 95.046875 13.320312 95.1875 13.523438 95.34375 13.976562 L 97.03125 13.976562 C 96.8125 12.164062 95.359375 11.039062 93.234375 11.039062 C 90.71875 11.039062 89 12.898438 89 15.617188 C 89 18.273438 90.734375 20.210938 93.09375 20.210938 C 94.265625 20.210938 95.0625 19.789062 95.734375 18.804688 L 95.953125 19.960938 L 97.03125 19.960938 Z M 103.78125 19.726562 C 103.5 19.445312 103.40625 19.257812 103.40625 18.929688 L 103.40625 15.335938 C 103.40625 14.007812 102.5 13.335938 100.75 13.335938 C 99 13.335938 98.09375 14.085938 97.984375 15.585938 L 99.59375 15.585938 C 99.6875 14.914062 99.953125 14.695312 100.78125 14.695312 C 101.4375 14.695312 101.765625 14.914062 101.765625 15.351562 C 101.765625 15.554688 101.65625 15.742188 101.46875 15.851562 C 101.25 15.976562 101.25 15.976562 100.421875 16.101562 L 99.75 16.226562 C 98.453125 16.445312 97.84375 17.101562 97.84375 18.257812 C 97.84375 19.429688 98.609375 20.210938 99.796875 20.210938 C 100.53125 20.210938 101.171875 19.898438 101.765625 19.289062 C 101.765625 19.617188 101.8125 19.742188 101.96875 19.929688 L 103.78125 19.929688 Z M 101.765625 17.320312 C 101.765625 18.304688 101.28125 18.851562 100.421875 18.851562 C 99.859375 18.851562 99.515625 18.554688 99.515625 18.070312 C 99.515625 17.570312 99.78125 17.320312 100.46875 17.179688 L 101.046875 17.070312 C 101.5 16.992188 101.5625 16.960938 101.765625 16.867188 Z M 105.21875 13.445312 L 105.21875 19.929688 L 106.90625 19.929688 L 106.90625 16.039062 C 106.90625 15.242188 107.328125 14.773438 108.046875 14.773438 C 108.609375 14.773438 108.96875 15.085938 108.96875 15.617188 L 108.96875 19.929688 L 110.640625 19.929688 L 110.640625 16.039062 C 110.640625 15.242188 111.078125 14.773438 111.796875 14.773438 C 112.359375 14.773438 112.703125 15.085938 112.703125 15.617188 L 112.703125 19.929688 L 114.390625 19.929688 L 114.390625 15.351562 C 114.390625 14.085938 113.625 13.335938 112.328125 13.335938 C 111.5 13.335938 110.9375 13.632812 110.421875 14.304688 C 110.109375 13.695312 109.46875 13.335938 108.65625 13.335938 C 107.921875 13.335938 107.4375 13.585938 106.890625 14.257812 L 106.890625 13.445312 Z M 117.984375 13.445312 L 116.296875 13.445312 L 116.296875 19.929688 L 117.984375 19.929688 Z M 117.984375 11.179688 L 116.296875 11.179688 L 116.296875 12.679688 L 117.984375 12.679688 Z M 119.25 13.445312 L 119.25 19.929688 L 120.9375 19.929688 L 120.9375 16.039062 C 120.9375 15.273438 121.46875 14.773438 122.296875 14.773438 C 123.015625 14.773438 123.375 15.164062 123.375 15.929688 L 123.375 19.929688 L 125.046875 19.929688 L 125.046875 15.585938 C 125.046875 14.148438 124.265625 13.335938 122.875 13.335938 C 122 13.335938 121.421875 13.648438 120.9375 14.382812 L 120.9375 13.445312 Z M 130.296875 13.445312 L 130.296875 14.445312 C 129.828125 13.695312 129.3125 13.335938 128.625 13.335938 C 128.0625 13.335938 127.421875 13.632812 126.96875 14.101562 C 126.328125 14.773438 125.984375 15.710938 125.984375 16.851562 C 125.984375 18.835938 127.046875 20.210938 128.59375 20.210938 C 129.296875 20.210938 129.71875 19.976562 130.296875 19.273438 L 130.296875 20.148438 C 130.296875 20.929688 129.75 21.460938 128.953125 21.460938 C 128.359375 21.460938 127.984375 21.195312 127.859375 20.710938 L 126.125 20.710938 C 126.140625 21.210938 126.3125 21.554688 126.765625 21.914062 C 127.28125 22.335938 127.984375 22.539062 128.890625 22.539062 C 130.765625 22.539062 131.890625 21.648438 131.890625 20.148438 L 131.890625 13.445312 Z M 128.9375 14.742188 C 129.734375 14.742188 130.328125 15.617188 130.328125 16.820312 C 130.328125 17.992188 129.765625 18.804688 128.921875 18.804688 C 128.1875 18.804688 127.671875 17.992188 127.671875 16.820312 C 127.671875 15.601562 128.1875 14.742188 128.9375 14.742188 Z M 145.5 9.929688 L 146.5 9.929688 L 146.5 10.929688 L 145.5 10.929688 Z M 143.5 10.929688 L 144.5 10.929688 L 144.5 11.929688 L 143.5 11.929688 Z M 144.5 10.929688 L 145.5 10.929688 L 145.5 11.929688 L 144.5 11.929688 Z M 142.5 11.929688 L 143.5 11.929688 L 143.5 12.929688 L 142.5 12.929688 Z M 138.5 12.929688 L 139.5 12.929688 L 139.5 13.929688 L 138.5 13.929688 Z M 139.5 12.929688 L 140.5 12.929688 L 140.5 13.929688 L 139.5 13.929688 Z M 142.5 12.929688 L 143.5 12.929688 L 143.5 13.929688 L 142.5 13.929688 Z M 145.5 12.929688 L 146.5 12.929688 L 146.5 13.929688 L 145.5 13.929688 Z M 146.5 12.929688 L 147.5 12.929688 L 147.5 13.929688 L 146.5 13.929688 Z M 137.5 13.929688 L 138.5 13.929688 L 138.5 14.929688 L 137.5 14.929688 Z M 138.5 13.929688 L 139.5 13.929688 L 139.5 14.929688 L 138.5 14.929688 Z M 139.5 13.929688 L 140.5 13.929688 L 140.5 14.929688 L 139.5 14.929688 Z M 140.5 13.929688 L 141.5 13.929688 L 141.5 14.929688 L 140.5 14.929688 Z M 141.5 13.929688 L 142.5 13.929688 L 142.5 14.929688 L 141.5 14.929688 Z M 142.5 13.929688 L 143.5 13.929688 L 143.5 14.929688 L 142.5 14.929688 Z M 143.5 13.929688 L 144.5 13.929688 L 144.5 14.929688 L 143.5 14.929688 Z M 144.5 13.929688 L 145.5 13.929688 L 145.5 14.929688 L 144.5 14.929688 Z M 145.5 13.929688 L 146.5 13.929688 L 146.5 14.929688 L 145.5 14.929688 Z M 146.5 13.929688 L 147.5 13.929688 L 147.5 14.929688 L 146.5 14.929688 Z M 147.5 13.929688 L 148.5 13.929688 L 148.5 14.929688 L 147.5 14.929688 Z M 136.5 14.929688 L 137.5 14.929688 L 137.5 15.929688 L 136.5 15.929688 Z M 137.5 14.929688 L 138.5 14.929688 L 138.5 15.929688 L 137.5 15.929688 Z M 138.5 14.929688 L 139.5 14.929688 L 139.5 15.929688 L 138.5 15.929688 Z M 139.5 14.929688 L 140.5 14.929688 L 140.5 15.929688 L 139.5 15.929688 Z M 140.5 14.929688 L 141.5 14.929688 L 141.5 15.929688 L 140.5 15.929688 Z M 141.5 14.929688 L 142.5 14.929688 L 142.5 15.929688 L 141.5 15.929688 Z M 142.5 14.929688 L 143.5 14.929688 L 143.5 15.929688 L 142.5 15.929688 Z M 143.5 14.929688 L 144.5 14.929688 L 144.5 15.929688 L 143.5 15.929688 Z M 144.5 14.929688 L 145.5 14.929688 L 145.5 15.929688 L 144.5 15.929688 Z M 145.5 14.929688 L 146.5 14.929688 L 146.5 15.929688 L 145.5 15.929688 Z M 146.5 14.929688 L 147.5 14.929688 L 147.5 15.929688 L 146.5 15.929688 Z M 147.5 14.929688 L 148.5 14.929688 L 148.5 15.929688 L 147.5 15.929688 Z M 148.5 14.929688 L 149.5 14.929688 L 149.5 15.929688 L 148.5 15.929688 Z M 136.5 15.929688 L 137.5 15.929688 L 137.5 16.929688 L 136.5 16.929688 Z M 137.5 15.929688 L 138.5 15.929688 L 138.5 16.929688 L 137.5 16.929688 Z M 138.5 15.929688 L 139.5 15.929688 L 139.5 16.929688 L 138.5 16.929688 Z M 139.5 15.929688 L 140.5 15.929688 L 140.5 16.929688 L 139.5 16.929688 Z M 140.5 15.929688 L 141.5 15.929688 L 141.5 16.929688 L 140.5 16.929688 Z M 141.5 15.929688 L 142.5 15.929688 L 142.5 16.929688 L 141.5 16.929688 Z M 142.5 15.929688 L 143.5 15.929688 L 143.5 16.929688 L 142.5 16.929688 Z M 143.5 15.929688 L 144.5 15.929688 L 144.5 16.929688 L 143.5 16.929688 Z M 144.5 15.929688 L 145.5 15.929688 L 145.5 16.929688 L 144.5 16.929688 Z M 145.5 15.929688 L 146.5 15.929688 L 146.5 16.929688 L 145.5 16.929688 Z M 146.5 15.929688 L 147.5 15.929688 L 147.5 16.929688 L 146.5 16.929688 Z M 147.5 15.929688 L 148.5 15.929688 L 148.5 16.929688 L 147.5 16.929688 Z M 148.5 15.929688 L 149.5 15.929688 L 149.5 16.929688 L 148.5 16.929688 Z M 136.5 16.929688 L 137.5 16.929688 L 137.5 17.929688 L 136.5 17.929688 Z M 137.5 16.929688 L 138.5 16.929688 L 138.5 17.929688 L 137.5 17.929688 Z M 138.5 16.929688 L 139.5 16.929688 L 139.5 17.929688 L 138.5 17.929688 Z M 139.5 16.929688 L 140.5 16.929688 L 140.5 17.929688 L 139.5 17.929688 Z M 140.5 16.929688 L 141.5 16.929688 L 141.5 17.929688 L 140.5 17.929688 Z M 141.5 16.929688 L 142.5 16.929688 L 142.5 17.929688 L 141.5 17.929688 Z M 142.5 16.929688 L 143.5 16.929688 L 143.5 17.929688 L 142.5 17.929688 Z M 143.5 16.929688 L 144.5 16.929688 L 144.5 17.929688 L 143.5 17.929688 Z M 144.5 16.929688 L 145.5 16.929688 L 145.5 17.929688 L 144.5 17.929688 Z M 145.5 16.929688 L 146.5 16.929688 L 146.5 17.929688 L 145.5 17.929688 Z M 146.5 16.929688 L 147.5 16.929688 L 147.5 17.929688 L 146.5 17.929688 Z M 147.5 16.929688 L 148.5 16.929688 L 148.5 17.929688 L 147.5 17.929688 Z M 148.5 16.929688 L 149.5 16.929688 L 149.5 17.929688 L 148.5 17.929688 Z M 136.5 17.929688 L 137.5 17.929688 L 137.5 18.929688 L 136.5 18.929688 Z M 137.5 17.929688 L 138.5 17.929688 L 138.5 18.929688 L 137.5 18.929688 Z M 138.5 17.929688 L 139.5 17.929688 L 139.5 18.929688 L 138.5 18.929688 Z M 139.5 17.929688 L 140.5 17.929688 L 140.5 18.929688 L 139.5 18.929688 Z M 140.5 17.929688 L 141.5 17.929688 L 141.5 18.929688 L 140.5 18.929688 Z M 141.5 17.929688 L 142.5 17.929688 L 142.5 18.929688 L 141.5 18.929688 Z M 142.5 17.929688 L 143.5 17.929688 L 143.5 18.929688 L 142.5 18.929688 Z M 143.5 17.929688 L 144.5 17.929688 L 144.5 18.929688 L 143.5 18.929688 Z M 144.5 17.929688 L 145.5 17.929688 L 145.5 18.929688 L 144.5 18.929688 Z M 145.5 17.929688 L 146.5 17.929688 L 146.5 18.929688 L 145.5 18.929688 Z M 146.5 17.929688 L 147.5 17.929688 L 147.5 18.929688 L 146.5 18.929688 Z M 147.5 17.929688 L 148.5 17.929688 L 148.5 18.929688 L 147.5 18.929688 Z M 148.5 17.929688 L 149.5 17.929688 L 149.5 18.929688 L 148.5 18.929688 Z M 136.5 18.929688 L 137.5 18.929688 L 137.5 19.929688 L 136.5 19.929688 Z M 137.5 18.929688 L 138.5 18.929688 L 138.5 19.929688 L 137.5 19.929688 Z M 138.5 18.929688 L 139.5 18.929688 L 139.5 19.929688 L 138.5 19.929688 Z M 139.5 18.929688 L 140.5 18.929688 L 140.5 19.929688 L 139.5 19.929688 Z M 140.5 18.929688 L 141.5 18.929688 L 141.5 19.929688 L 140.5 19.929688 Z M 141.5 18.929688 L 142.5 18.929688 L 142.5 19.929688 L 141.5 19.929688 Z M 142.5 18.929688 L 143.5 18.929688 L 143.5 19.929688 L 142.5 19.929688 Z M 143.5 18.929688 L 144.5 18.929688 L 144.5 19.929688 L 143.5 19.929688 Z M 144.5 18.929688 L 145.5 18.929688 L 145.5 19.929688 L 144.5 19.929688 Z M 145.5 18.929688 L 146.5 18.929688 L 146.5 19.929688 L 145.5 19.929688 Z M 146.5 18.929688 L 147.5 18.929688 L 147.5 19.929688 L 146.5 19.929688 Z M 147.5 18.929688 L 148.5 18.929688 L 148.5 19.929688 L 147.5 19.929688 Z M 148.5 18.929688 L 149.5 18.929688 L 149.5 19.929688 L 148.5 19.929688 Z M 136.5 19.929688 L 137.5 19.929688 L 137.5 20.929688 L 136.5 20.929688 Z M 137.5 19.929688 L 138.5 19.929688 L 138.5 20.929688 L 137.5 20.929688 Z M 138.5 19.929688 L 139.5 19.929688 L 139.5 20.929688 L 138.5 20.929688 Z M 139.5 19.929688 L 140.5 19.929688 L 140.5 20.929688 L 139.5 20.929688 Z M 140.5 19.929688 L 141.5 19.929688 L 141.5 20.929688 L 140.5 20.929688 Z M 141.5 19.929688 L 142.5 19.929688 L 142.5 20.929688 L 141.5 20.929688 Z M 143.5 19.929688 L 144.5 19.929688 L 144.5 20.929688 L 143.5 20.929688 Z M 144.5 19.929688 L 145.5 19.929688 L 145.5 20.929688 L 144.5 20.929688 Z M 145.5 19.929688 L 146.5 19.929688 L 146.5 20.929688 L 145.5 20.929688 Z M 146.5 19.929688 L 147.5 19.929688 L 147.5 20.929688 L 146.5 20.929688 Z M 147.5 19.929688 L 148.5 19.929688 L 148.5 20.929688 L 147.5 20.929688 Z M 148.5 19.929688 L 149.5 19.929688 L 149.5 20.929688 L 148.5 20.929688 Z M 136.5 20.929688 L 137.5 20.929688 L 137.5 21.929688 L 136.5 21.929688 Z M 137.5 20.929688 L 138.5 20.929688 L 138.5 21.929688 L 137.5 21.929688 Z M 138.5 20.929688 L 139.5 20.929688 L 139.5 21.929688 L 138.5 21.929688 Z M 146.5 20.929688 L 147.5 20.929688 L 147.5 21.929688 L 146.5 21.929688 Z M 147.5 20.929688 L 148.5 20.929688 L 148.5 21.929688 L 147.5 21.929688 Z M 148.5 20.929688 L 149.5 20.929688 L 149.5 21.929688 L 148.5 21.929688 Z M 137.5 21.929688 L 138.5 21.929688 L 138.5 22.929688 L 137.5 22.929688 Z M 147.5 21.929688 L 148.5 21.929688 L 148.5 22.929688 L 147.5 22.929688 Z M 88.5 8.8125 "/>
<path style="fill-rule:nonzero;fill:rgb(89.019608%,54.509804%,51.764706%);fill-opacity:1;stroke-width:2;stroke-linecap:butt;stroke-linejoin:miter;stroke:rgb(100%,100%,100%);stroke-opacity:1;stroke-miterlimit:10;" d="M 160.5 10 L 200.5 10 L 200.5 22 L 160.5 22 Z M 160.5 10 "/>
<path style=" stroke:none;fill-rule:nonzero;fill:rgb(40%,40%,40%);fill-opacity:1;" d="M 214.6875 14.148438 C 214.625 13.382812 214.46875 12.914062 214.09375 12.414062 C 213.421875 11.523438 212.34375 11.039062 211.03125 11.039062 C 208.5625 11.039062 207.03125 12.804688 207.03125 15.632812 C 207.03125 18.460938 208.546875 20.210938 210.984375 20.210938 C 213.171875 20.210938 214.609375 18.945312 214.71875 16.945312 L 212.96875 16.945312 C 212.84375 18.054688 212.15625 18.695312 211.03125 18.695312 C 209.640625 18.695312 208.828125 17.570312 208.828125 15.664062 C 208.828125 13.726562 209.6875 12.570312 211.09375 12.570312 C 212.140625 12.570312 212.734375 13.070312 212.96875 14.148438 Z M 219.109375 13.335938 C 217.125 13.335938 215.921875 14.648438 215.921875 16.773438 C 215.921875 18.914062 217.125 20.210938 219.125 20.210938 C 221.109375 20.210938 222.328125 18.914062 222.328125 16.820312 C 222.328125 14.632812 221.140625 13.335938 219.109375 13.335938 Z M 219.125 14.695312 C 220.046875 14.695312 220.640625 15.523438 220.640625 16.804688 C 220.640625 18.007812 220.03125 18.851562 219.125 18.851562 C 218.21875 18.851562 217.59375 18.023438 217.59375 16.773438 C 217.59375 15.523438 218.21875 14.695312 219.125 14.695312 Z M 227.359375 19.929688 L 229.046875 19.929688 L 229.046875 11.179688 L 227.359375 11.179688 L 227.359375 14.289062 C 226.9375 13.648438 226.390625 13.335938 225.578125 13.335938 C 224.03125 13.335938 222.84375 14.835938 222.84375 16.789062 C 222.84375 17.664062 223.109375 18.554688 223.546875 19.179688 C 223.984375 19.804688 224.78125 20.210938 225.578125 20.210938 C 226.390625 20.210938 226.9375 19.914062 227.359375 19.273438 Z M 225.9375 14.742188 C 226.796875 14.742188 227.359375 15.554688 227.359375 16.804688 C 227.359375 17.992188 226.78125 18.804688 225.9375 18.804688 C 225.109375 18.804688 224.53125 17.976562 224.53125 16.789062 C 224.53125 15.570312 225.109375 14.742188 225.9375 14.742188 Z M 231.984375 13.445312 L 230.296875 13.445312 L 230.296875 19.929688 L 231.984375 19.929688 Z M 231.984375 11.179688 L 230.296875 11.179688 L 230.296875 12.679688 L 231.984375 12.679688 Z M 233.25 13.445312 L 233.25 19.929688 L 234.9375 19.929688 L 234.9375 16.039062 C 234.9375 15.273438 235.46875 14.773438 236.296875 14.773438 C 237.015625 14.773438 237.375 15.164062 237.375 15.929688 L 237.375 19.929688 L 239.046875 19.929688 L 239.046875 15.585938 C 239.046875 14.148438 238.265625 13.335938 236.875 13.335938 C 236 13.335938 235.421875 13.648438 234.9375 14.382812 L 234.9375 13.445312 Z M 244.296875 13.445312 L 244.296875 14.445312 C 243.828125 13.695312 243.3125 13.335938 242.625 13.335938 C 242.0625 13.335938 241.421875 13.632812 240.96875 14.101562 C 240.328125 14.773438 239.984375 15.710938 239.984375 16.851562 C 239.984375 18.835938 241.046875 20.210938 242.59375 20.210938 C 243.296875 20.210938 243.71875 19.976562 244.296875 19.273438 L 244.296875 20.148438 C 244.296875 20.929688 243.75 21.460938 242.953125 21.460938 C 242.359375 21.460938 241.984375 21.195312 241.859375 20.710938 L 240.125 20.710938 C 240.140625 21.210938 240.3125 21.554688 240.765625 21.914062 C 241.28125 22.335938 241.984375 22.539062 242.890625 22.539062 C 244.765625 22.539062 245.890625 21.648438 245.890625 20.148438 L 245.890625 13.445312 Z M 242.9375 14.742188 C 243.734375 14.742188 244.328125 15.617188 244.328125 16.820312 C 244.328125 17.992188 243.765625 18.804688 242.921875 18.804688 C 242.1875 18.804688 241.671875 17.992188 241.671875 16.820312 C 241.671875 15.601562 242.1875 14.742188 242.9375 14.742188 Z M 253.5 9.929688 L 254.5 9.929688 L 254.5 10.929688 L 253.5 10.929688 Z M 254.5 9.929688 L 255.5 9.929688 L 255.5 10.929688 L 254.5 10.929688 Z M 255.5 9.929688 L 256.5 9.929688 L 256.5 10.929688 L 255.5 10.929688 Z M 256.5 9.929688 L 257.5 9.929688 L 257.5 10.929688 L 256.5 10.929688 Z M 257.5 9.929688 L 258.5 9.929688 L 258.5 10.929688 L 257.5 10.929688 Z M 258.5 9.929688 L 259.5 9.929688 L 259.5 10.929688 L 258.5 10.929688 Z M 259.5 9.929688 L 260.5 9.929688 L 260.5 10.929688 L 259.5 10.929688 Z M 252.5 10.929688 L 253.5 10.929688 L 253.5 11.929688 L 252.5 11.929688 Z M 253.5 10.929688 L 254.5 10.929688 L 254.5 11.929688 L 253.5 11.929688 Z M 254.5 10.929688 L 255.5 10.929688 L 255.5 11.929688 L 254.5 11.929688 Z M 255.5 10.929688 L 256.5 10.929688 L 256.5 11.929688 L 255.5 11.929688 Z M 256.5 10.929688 L 257.5 10.929688 L 257.5 11.929688 L 256.5 11.929688 Z M 257.5 10.929688 L 258.5 10.929688 L 258.5 11.929688 L 257.5 11.929688 Z M 258.5 10.929688 L 259.5 10.929688 L 259.5 11.929688 L 258.5 11.929688 Z M 259.5 10.929688 L 260.5 10.929688 L 260.5 11.929688 L 259.5 11.929688 Z M 260.5 10.929688 L 261.5 10.929688 L 261.5 11.929688 L 260.5 11.929688 Z M 250.5 11.929688 L 251.5 11.929688 L 251.5 12.929688 L 250.5 12.929688 Z M 251.5 11.929688 L 252.5 11.929688 L 252.5 12.929688 L 251.5 12.929688 Z M 252.5 11.929688 L 253.5 11.929688 L 253.5 12.929688 L 252.5 12.929688 Z M 253.5 11.929688 L 254.5 11.929688 L 254.5 12.929688 L 253.5 12.929688 Z M 254.5 11.929688 L 255.5 11.929688 L 255.5 12.929688 L 254.5 12.929688 Z M 255.5 11.929688 L 256.5 11.929688 L 256.5 12.929688 L 255.5 12.929688 Z M 256.5 11.929688 L 257.5 11.929688 L 257.5 12.929688 L 256.5 12.929688 Z M 257.5 11.929688 L 258.5 11.929688 L 258.5 12.929688 L 257.5 12.929688 Z M 258.5 11.929688 L 259.5 11.929688 L 259.5 12.929688 L 258.5 12.929688 Z M 259.5 11.929688 L 260.5 11.929688 L 260.5 12.929688 L 259.5 12.929688 Z M 260.5 11.929688 L 261.5 11.929688 L 261.5 12.929688 L 260.5 12.929688 Z M 261.5 11.929688 L 262.5 11.929688 L 262.5 12.929688 L 261.5 12.929688 Z M 262.5 11.929688 L 263.5 11.929688 L 263.5 12.929688 L 262.5 12.929688 Z M 250.5 12.929688 L 251.5 12.929688 L 251.5 13.929688 L 250.5 13.929688 Z M 251.5 12.929688 L 252.5 12.929688 L 252.5 13.929688 L 251.5 13.929688 Z M 252.5 12.929688 L 253.5 12.929688 L 253.5 13.929688 L 252.5 13.929688 Z M 253.5 12.929688 L 254.5 12.929688 L 254.5 13.929688 L 253.5 13.929688 Z M 254.5 12.929688 L 255.5 12.929688 L 255.5 13.929688 L 254.5 13.929688 Z M 255.5 12.929688 L 256.5 12.929688 L 256.5 13.929688 L 255.5 13.929688 Z M 256.5 12.929688 L 257.5 12.929688 L 257.5 13.929688 L 256.5 13.929688 Z M 257.5 12.929688 L 258.5 12.929688 L 258.5 13.929688 L 257.5 13.929688 Z M 258.5 12.929688 L 259.5 12.929688 L 259.5 13.929688 L 258.5 13.929688 Z M 259.5 12.929688 L 260.5 12.929688 L 260.5 13.929688 L 259.5 13.929688 Z M 260.5 12.929688 L 261.5 12.929688 L 261.5 13.929688 L 260.5 13.929688 Z M 261.5 12.929688 L 262.5 12.929688 L 262.5 13.929688 L 261.5 13.929688 Z M 262.5 12.929688 L 263.5 12.929688 L 263.5 13.929688 L 262.5 13.929688 Z M 250.5 13.929688 L 251.5 13.929688 L 251.5 14.929688 L 250.5 14.929688 Z M 251.5 13.929688 L 252.5 13.929688 L 252.5 14.929688 L 251.5 14.929688 Z M 252.5 13.929688 L 253.5 13.929688 L 253.5 14.929688 L 252.5 14.929688 Z M 253.5 13.929688 L 254.5 13.929688 L 254.5 14.929688 L 253.5 14.929688 Z M 254.5 13.929688 L 255.5 13.929688 L 255.5 14.929688 L 254.5 14.929688 Z M 255.5 13.929688 L 256.5 13.929688 L 256.5 14.929688 L 255.5 14.929688 Z M 256.5 13.929688 L 257.5 13.929688 L 257.5 14.929688 L 256.5 14.929688 Z M 257.5 13.929688 L 258.5 13.929688 L 258.5 14.929688 L 257.5 14.929688 Z M 258.5 13.929688 L 259.5 13.929688 L 259.5 14.929688 L 258.5 14.929688 Z M 259.5 13.929688 L 260.5 13.929688 L 260.5 14.929688 L 259.5 14.929688 Z M 260.5 13.929688 L 261.5 13.929688 L 261.5 14.929688 L 260.5 14.929688 Z M 261.5 13.929688 L 262.5 13.929688 L 262.5 14.929688 L 261.5 14.929688 Z M 262.5 13.929688 L 263.5 13.929688 L 263.5 14.929688 L 262.5 14.929688 Z M 250.5 14.929688 L 251.5 14.929688 L 251.5 15.929688 L 250.5 15.929688 Z M 251.5 14.929688 L 252.5 14.929688 L 252.5 15.929688 L 251.5 15.929688 Z M 252.5 14.929688 L 253.5 14.929688 L 253.5 15.929688 L 252.5 15.929688 Z M 253.5 14.929688 L 254.5 14.929688 L 254.5 15.929688 L 253.5 15.929688 Z M 254.5 14.929688 L 255.5 14.929688 L 255.5 15.929688 L 254.5 15.929688 Z M 255.5 14.929688 L 256.5 14.929688 L 256.5 15.929688 L 255.5 15.929688 Z M 257.5 14.929688 L 258.5 14.929688 L 258.5 15.929688 L 257.5 15.929688 Z M 258.5 14.929688 L 259.5 14.929688 L 259.5 15.929688 L 258.5 15.929688 Z M 259.5 14.929688 L 260.5 14.929688 L 260.5 15.929688 L 259.5 15.929688 Z M 260.5 14.929688 L 261.5 14.929688 L 261.5 15.929688 L 260.5 15.929688 Z M 261.5 14.929688 L 262.5 14.929688 L 262.5 15.929688 L 261.5 15.929688 Z M 262.5 14.929688 L 263.5 14.929688 L 263.5 15.929688 L 262.5 15.929688 Z M 250.5 15.929688 L 251.5 15.929688 L 251.5 16.929688 L 250.5 16.929688 Z M 251.5 15.929688 L 252.5 15.929688 L 252.5 16.929688 L 251.5 16.929688 Z M 252.5 15.929688 L 253.5 15.929688 L 253.5 16.929688 L 252.5 16.929688 Z M 253.5 15.929688 L 254.5 15.929688 L 254.5 16.929688 L 253.5 16.929688 Z M 254.5 15.929688 L 255.5 15.929688 L 255.5 16.929688 L 254.5 16.929688 Z M 255.5 15.929688 L 256.5 15.929688 L 256.5 16.929688 L 255.5 16.929688 Z M 256.5 15.929688 L 257.5 15.929688 L 257.5 16.929688 L 256.5 16.929688 Z M 257.5 15.929688 L 258.5 15.929688 L 258.5 16.929688 L 257.5 16.929688 Z M 258.5 15.929688 L 259.5 15.929688 L 259.5 16.929688 L 258.5 16.929688 Z M 259.5 15.929688 L 260.5 15.929688 L 260.5 16.929688 L 259.5 16.929688 Z M 260.5 15.929688 L 261.5 15.929688 L 261.5 16.929688 L 260.5 16.929688 Z M 261.5 15.929688 L 262.5 15.929688 L 262.5 16.929688 L 261.5 16.929688 Z M 262.5 15.929688 L 263.5 15.929688 L 263.5 16.929688 L 262.5 16.929688 Z M 250.5 16.929688 L 251.5 16.929688 L 251.5 17.929688 L 250.5 17.929688 Z M 251.5 16.929688 L 252.5 16.929688 L 252.5 17.929688 L 251.5 17.929688 Z M 252.5 16.929688 L 253.5 16.929688 L 253.5 17.929688 L 252.5 17.929688 Z M 253.5 16.929688 L 254.5 16.929688 L 254.5 17.929688 L 253.5 17.929688 Z M 259.5 16.929688 L 260.5 16.929688 L 260.5 17.929688 L 259.5 17.929688 Z M 260.5 16.929688 L 261.5 16.929688 L 261.5 17.929688 L 260.5 17.929688 Z M 261.5 16.929688 L 262.5 16.929688 L 262.5 17.929688 L 261.5 17.929688 Z M 262.5 16.929688 L 263.5 16.929688 L 263.5 17.929688 L 262.5 17.929688 Z M 251.5 17.929688 L 252.5 17.929688 L 252.5 18.929688 L 251.5 18.929688 Z M 252.5 17.929688 L 253.5 17.929688 L 253.5 18.929688 L 252.5 18.929688 Z M 253.5 17.929688 L 254.5 17.929688 L 254.5 18.929688 L 253.5 18.929688 Z M 254.5 17.929688 L 255.5 17.929688 L 255.5 18.929688 L 254.5 18.929688 Z M 255.5 17.929688 L 256.5 17.929688 L 256.5 18.929688 L 255.5 18.929688 Z M 256.5 17.929688 L 257.5 17.929688 L 257.5 18.929688 L 256.5 18.929688 Z M 257.5 17.929688 L 258.5 17.929688 L 258.5 18.929688 L 257.5 18.929688 Z M 258.5 17.929688 L 259.5 17.929688 L 259.5 18.929688 L 258.5 18.929688 Z M 259.5 17.929688 L 260.5 17.929688 L 260.5 18.929688 L 259.5 18.929688 Z M 260.5 17.929688 L 261.5 17.929688 L 261.5 18.929688 L 260.5 18.929688 Z M 261.5 17.929688 L 262.5 17.929688 L 262.5 18.929688 L 261.5 18.929688 Z M 251.5 18.929688 L 252.5 18.929688 L 252.5 19.929688 L 251.5 19.929688 Z M 252.5 18.929688 L 253.5 18.929688 L 253.5 19.929688 L 252.5 19.929688 Z M 253.5 18.929688 L 254.5 18.929688 L 254.5 19.929688 L 253.5 19.929688 Z M 254.5 18.929688 L 255.5 18.929688 L 255.5 19.929688 L 254.5 19.929688 Z M 255.5 18.929688 L 256.5 18.929688 L 256.5 19.929688 L 255.5 19.929688 Z M 256.5 18.929688 L 257.5 18.929688 L 257.5 19.929688 L 256.5 19.929688 Z M 257.5 18.929688 L 258.5 18.929688 L 258.5 19.929688 L 257.5 19.929688 Z M 258.5 18.929688 L 259.5 18.929688 L 259.5 19.929688 L 258.5 19.929688 Z M 259.5 18.929688 L 260.5 18.929688 L 260.5 19.929688 L 259.5 19.929688 Z M 260.5 18.929688 L 261.5 18.929688 L 261.5 19.929688 L 260.5 19.929688 Z M 261.5 18.929688 L 262.5 18.929688 L 262.5 19.929688 L 261.5 19.929688 Z M 252.5 19.929688 L 253.5 19.929688 L 253.5 20.929688 L 252.5 20.929688 Z M 253.5 19.929688 L 254.5 19.929688 L 254.5 20.929688 L 253.5 20.929688 Z M 254.5 19.929688 L 255.5 19.929688 L 255.5 20.929688 L 254.5 20.929688 Z M 255.5 19.929688 L 256.5 19.929688 L 256.5 20.929688 L 255.5 20.929688 Z M 256.5 19.929688 L 257.5 19.929688 L 257.5 20.929688 L 256.5 20.929688 Z M 257.5 19.929688 L 258.5 19.929688 L 258.5 20.929688 L 257.5 20.929688 Z M 258.5 19.929688 L 259.5 19.929688 L 259.5 20.929688 L 258.5 20.929688 Z M 259.5 19.929688 L 260.5 19.929688 L 260.5 20.929688 L 259.5 20.929688 Z M 260.5 19.929688 L 261.5 19.929688 L 261.5 20.929688 L 260.5 20.929688 Z M 254.5 20.929688 L 255.5 20.929688 L 255.5 21.929688 L 254.5 21.929688 Z M 255.5 20.929688 L 256.5 20.929688 L 256.5 21.929688 L 255.5 21.929688 Z M 256.5 20.929688 L 257.5 20.929688 L 257.5 21.929688 L 256.5 21.929688 Z M 257.5 20.929688 L 258.5 20.929688 L 258.5 21.929688 L 257.5 21.929688 Z M 258.5 20.929688 L 259.5 20.929688 L 259.5 21.929688 L 258.5 21.929688 Z M 206.5 8.8125 "/>
<path style="fill-rule:nonzero;fill:rgb(12.54902%,36.862745%,44.313725%);fill-opacity:1;stroke-width:2;stroke-linecap:butt;stroke-linejoin:miter;stroke:rgb(100%,100%,100%);stroke-opacity:1;stroke-miterlimit:10;" d="M 274.5 10 L 314.5 10 L 314.5 22 L 274.5 22 Z M 274.5 10 "/>
<path style=" stroke:none;fill-rule:nonzero;fill:rgb(40%,40%,40%);fill-opacity:1;" d="M 323.25 16.164062 L 327.4375 16.164062 L 327.4375 14.664062 L 323.25 14.664062 L 323.25 12.679688 L 327.765625 12.679688 L 327.765625 11.179688 L 321.453125 11.179688 L 321.453125 19.929688 L 327.984375 19.929688 L 327.984375 18.429688 L 323.25 18.429688 Z M 334.78125 19.726562 C 334.5 19.445312 334.40625 19.257812 334.40625 18.929688 L 334.40625 15.335938 C 334.40625 14.007812 333.5 13.335938 331.75 13.335938 C 330 13.335938 329.09375 14.085938 328.984375 15.585938 L 330.59375 15.585938 C 330.6875 14.914062 330.953125 14.695312 331.78125 14.695312 C 332.4375 14.695312 332.765625 14.914062 332.765625 15.351562 C 332.765625 15.554688 332.65625 15.742188 332.46875 15.851562 C 332.25 15.976562 332.25 15.976562 331.421875 16.101562 L 330.75 16.226562 C 329.453125 16.445312 328.84375 17.101562 328.84375 18.257812 C 328.84375 19.429688 329.609375 20.210938 330.796875 20.210938 C 331.53125 20.210938 332.171875 19.898438 332.765625 19.289062 C 332.765625 19.617188 332.8125 19.742188 332.96875 19.929688 L 334.78125 19.929688 Z M 332.765625 17.320312 C 332.765625 18.304688 332.28125 18.851562 331.421875 18.851562 C 330.859375 18.851562 330.515625 18.554688 330.515625 18.070312 C 330.515625 17.570312 330.78125 17.320312 331.46875 17.179688 L 332.046875 17.070312 C 332.5 16.992188 332.5625 16.960938 332.765625 16.867188 Z M 339.109375 13.585938 L 338.171875 13.585938 L 338.171875 11.835938 L 336.5 11.835938 L 336.5 13.585938 L 335.671875 13.585938 L 335.671875 14.695312 L 336.5 14.695312 L 336.5 18.679688 C 336.5 19.695312 337.03125 20.210938 338.140625 20.210938 C 338.53125 20.210938 338.796875 20.164062 339.109375 20.070312 L 339.109375 18.898438 C 338.9375 18.914062 338.859375 18.929688 338.734375 18.929688 C 338.28125 18.929688 338.171875 18.804688 338.171875 18.226562 L 338.171875 14.695312 L 339.109375 14.695312 Z M 350.5 8.929688 L 351.5 8.929688 L 351.5 9.929688 L 350.5 9.929688 Z M 348.5 9.929688 L 349.5 9.929688 L 349.5 10.929688 L 348.5 10.929688 Z M 349.5 9.929688 L 350.5 9.929688 L 350.5 10.929688 L 349.5 10.929688 Z M 350.5 9.929688 L 351.5 9.929688 L 351.5 10.929688 L 350.5 10.929688 Z M 346.5 10.929688 L 347.5 10.929688 L 347.5 11.929688 L 346.5 11.929688 Z M 347.5 10.929688 L 348.5 10.929688 L 348.5 11.929688 L 347.5 11.929688 Z M 348.5 10.929688 L 349.5 10.929688 L 349.5 11.929688 L 348.5 11.929688 Z M 349.5 10.929688 L 350.5 10.929688 L 350.5 11.929688 L 349.5 11.929688 Z M 350.5 10.929688 L 351.5 10.929688 L 351.5 11.929688 L 350.5 11.929688 Z M 351.5 10.929688 L 352.5 10.929688 L 352.5 11.929688 L 351.5 11.929688 Z M 345.5 11.929688 L 346.5 11.929688 L 346.5 12.929688 L 345.5 12.929688 Z M 346.5 11.929688 L 347.5 11.929688 L 347.5 12.929688 L 346.5 12.929688 Z M 347.5 11.929688 L 348.5 11.929688 L 348.5 12.929688 L 347.5 12.929688 Z M 348.5 11.929688 L 349.5 11.929688 L 349.5 12.929688 L 348.5 12.929688 Z M 349.5 11.929688 L 350.5 11.929688 L 350.5 12.929688 L 349.5 12.929688 Z M 350.5 11.929688 L 351.5 11.929688 L 351.5 12.929688 L 350.5 12.929688 Z M 351.5 11.929688 L 352.5 11.929688 L 352.5 12.929688 L 351.5 12.929688 Z M 345.5 12.929688 L 346.5 12.929688 L 346.5 13.929688 L 345.5 13.929688 Z M 346.5 12.929688 L 347.5 12.929688 L 347.5 13.929688 L 346.5 13.929688 Z M 347.5 12.929688 L 348.5 12.929688 L 348.5 13.929688 L 347.5 13.929688 Z M 348.5 12.929688 L 349.5 12.929688 L 349.5 13.929688 L 348.5 13.929688 Z M 349.5 12.929688 L 350.5 12.929688 L 350.5 13.929688 L 349.5 13.929688 Z M 350.5 12.929688 L 351.5 12.929688 L 351.5 13.929688 L 350.5 13.929688 Z M 351.5 12.929688 L 352.5 12.929688 L 352.5 13.929688 L 351.5 13.929688 Z M 344.5 13.929688 L 345.5 13.929688 L 345.5 14.929688 L 344.5 14.929688 Z M 345.5 13.929688 L 346.5 13.929688 L 346.5 14.929688 L 345.5 14.929688 Z M 346.5 13.929688 L 347.5 13.929688 L 347.5 14.929688 L 346.5 14.929688 Z M 347.5 13.929688 L 348.5 13.929688 L 348.5 14.929688 L 347.5 14.929688 Z M 348.5 13.929688 L 349.5 13.929688 L 349.5 14.929688 L 348.5 14.929688 Z M 349.5 13.929688 L 350.5 13.929688 L 350.5 14.929688 L 349.5 14.929688 Z M 350.5 13.929688 L 351.5 13.929688 L 351.5 14.929688 L 350.5 14.929688 Z M 351.5 13.929688 L 352.5 13.929688 L 352.5 14.929688 L 351.5 14.929688 Z M 344.5 14.929688 L 345.5 14.929688 L 345.5 15.929688 L 344.5 15.929688 Z M 345.5 14.929688 L 346.5 14.929688 L 346.5 15.929688 L 345.5 15.929688 Z M 346.5 14.929688 L 347.5 14.929688 L 347.5 15.929688 L 346.5 15.929688 Z M 347.5 14.929688 L 348.5 14.929688 L 348.5 15.929688 L 347.5 15.929688 Z M 348.5 14.929688 L 349.5 14.929688 L 349.5 15.929688 L 348.5 15.929688 Z M 349.5 14.929688 L 350.5 14.929688 L 350.5 15.929688 L 349.5 15.929688 Z M 350.5 14.929688 L 351.5 14.929688 L 351.5 15.929688 L 350.5 15.929688 Z M 351.5 14.929688 L 352.5 14.929688 L 352.5 15.929688 L 351.5 15.929688 Z M 352.5 14.929688 L 353.5 14.929688 L 353.5 15.929688 L 352.5 15.929688 Z M 345.5 15.929688 L 346.5 15.929688 L 346.5 16.929688 L 345.5 16.929688 Z M 346.5 15.929688 L 347.5 15.929688 L 347.5 16.929688 L 346.5 16.929688 Z M 347.5 15.929688 L 348.5 15.929688 L 348.5 16.929688 L 347.5 16.929688 Z M 348.5 15.929688 L 349.5 15.929688 L 349.5 16.929688 L 348.5 16.929688 Z M 349.5 15.929688 L 350.5 15.929688 L 350.5 16.929688 L 349.5 16.929688 Z M 350.5 15.929688 L 351.5 15.929688 L 351.5 16.929688 L 350.5 16.929688 Z M 351.5 15.929688 L 352.5 15.929688 L 352.5 16.929688 L 351.5 16.929688 Z M 352.5 15.929688 L 353.5 15.929688 L 353.5 16.929688 L 352.5 16.929688 Z M 346.5 16.929688 L 347.5 16.929688 L 347.5 17.929688 L 346.5 17.929688 Z M 347.5 16.929688 L 348.5 16.929688 L 348.5 17.929688 L 347.5 17.929688 Z M 348.5 16.929688 L 349.5 16.929688 L 349.5 17.929688 L 348.5 17.929688 Z M 349.5 16.929688 L 350.5 16.929688 L 350.5 17.929688 L 349.5 17.929688 Z M 350.5 16.929688 L 351.5 16.929688 L 351.5 17.929688 L 350.5 17.929688 Z M 352.5 16.929688 L 353.5 16.929688 L 353.5 17.929688 L 352.5 17.929688 Z M 353.5 16.929688 L 354.5 16.929688 L 354.5 17.929688 L 353.5 17.929688 Z M 348.5 17.929688 L 349.5 17.929688 L 349.5 18.929688 L 348.5 18.929688 Z M 349.5 17.929688 L 350.5 17.929688 L 350.5 18.929688 L 349.5 18.929688 Z M 350.5 17.929688 L 351.5 17.929688 L 351.5 18.929688 L 350.5 18.929688 Z M 351.5 17.929688 L 352.5 17.929688 L 352.5 18.929688 L 351.5 18.929688 Z M 352.5 17.929688 L 353.5 17.929688 L 353.5 18.929688 L 352.5 18.929688 Z M 353.5 17.929688 L 354.5 17.929688 L 354.5 18.929688 L 353.5 18.929688 Z M 350.5 18.929688 L 351.5 18.929688 L 351.5 19.929688 L 350.5 19.929688 Z M 351.5 18.929688 L 352.5 18.929688 L 352.5 19.929688 L 351.5 19.929688 Z M 352.5 18.929688 L 353.5 18.929688 L 353.5 19.929688 L 352.5 19.929688 Z M 353.5 18.929688 L 354.5 18.929688 L 354.5 19.929688 L 353.5 19.929688 Z M 354.5 18.929688 L 355.5 18.929688 L 355.5 19.929688 L 354.5 19.929688 Z M 352.5 19.929688 L 353.5 19.929688 L 353.5 20.929688 L 352.5 20.929688 Z M 354.5 19.929688 L 355.5 19.929688 L 355.5 20.929688 L 354.5 20.929688 Z M 354.5 20.929688 L 355.5 20.929688 L 355.5 21.929688 L 354.5 21.929688 Z M 320.5 8.8125 "/>
<path style="fill-rule:nonzero;fill:rgb(39.215686%,90.980392%,23.529412%);fill-opacity:1;stroke-width:2;stroke-linecap:butt;stroke-linejoin:miter;stroke:rgb(100%,100%,100%);stroke-opacity:1;stroke-miterlimit:10;" d="M 144.5 32 L 184.5 32 L 184.5 44 L 144.5 44 Z M 144.5 32 "/>
<path style=" stroke:none;fill-rule:nonzero;fill:rgb(40%,40%,40%);fill-opacity:1;" d="M 193.265625 38.460938 L 195.328125 38.460938 C 196.109375 38.460938 196.4375 38.773438 196.4375 39.492188 L 196.4375 39.851562 C 196.421875 40.085938 196.421875 40.304688 196.421875 40.429688 C 196.421875 41.257812 196.46875 41.507812 196.6875 41.929688 L 198.625 41.929688 L 198.625 41.601562 C 198.34375 41.445312 198.234375 41.273438 198.234375 40.882812 C 198.1875 38.304688 198.140625 38.179688 197.03125 37.710938 C 198.015625 37.320312 198.5 36.617188 198.5 35.539062 C 198.5 34.851562 198.265625 34.210938 197.84375 33.789062 C 197.453125 33.367188 196.890625 33.179688 196.15625 33.179688 L 191.453125 33.179688 L 191.453125 41.929688 L 193.265625 41.929688 Z M 193.265625 36.960938 L 193.265625 34.679688 L 195.4375 34.679688 C 195.953125 34.679688 196.15625 34.726562 196.375 34.914062 C 196.59375 35.085938 196.703125 35.382812 196.703125 35.804688 C 196.703125 36.210938 196.59375 36.554688 196.375 36.726562 C 196.171875 36.898438 195.953125 36.960938 195.4375 36.960938 Z M 205.78125 39.210938 C 205.796875 39.070312 205.796875 39.007812 205.796875 38.929688 C 205.796875 38.289062 205.703125 37.679688 205.546875 37.226562 C 205.109375 36.054688 204.078125 35.335938 202.765625 35.335938 C 200.90625 35.335938 199.765625 36.679688 199.765625 38.851562 C 199.765625 40.929688 200.890625 42.210938 202.734375 42.210938 C 204.1875 42.210938 205.359375 41.382812 205.734375 40.101562 L 204.078125 40.101562 C 203.875 40.617188 203.40625 40.914062 202.78125 40.914062 C 202.3125 40.914062 201.921875 40.710938 201.6875 40.351562 C 201.53125 40.117188 201.46875 39.835938 201.4375 39.210938 Z M 201.46875 38.101562 C 201.578125 37.101562 202 36.632812 202.734375 36.632812 C 203.515625 36.632812 203.96875 37.148438 204.046875 38.101562 Z M 212.78125 41.726562 C 212.5 41.445312 212.40625 41.257812 212.40625 40.929688 L 212.40625 37.335938 C 212.40625 36.007812 211.5 35.335938 209.75 35.335938 C 208 35.335938 207.09375 36.085938 206.984375 37.585938 L 208.59375 37.585938 C 208.6875 36.914062 208.953125 36.695312 209.78125 36.695312 C 210.4375 36.695312 210.765625 36.914062 210.765625 37.351562 C 210.765625 37.554688 210.65625 37.742188 210.46875 37.851562 C 210.25 37.976562 210.25 37.976562 209.421875 38.101562 L 208.75 38.226562 C 207.453125 38.445312 206.84375 39.101562 206.84375 40.257812 C 206.84375 41.429688 207.609375 42.210938 208.796875 42.210938 C 209.53125 42.210938 210.171875 41.898438 210.765625 41.289062 C 210.765625 41.617188 210.8125 41.742188 210.96875 41.929688 L 212.78125 41.929688 Z M 210.765625 39.320312 C 210.765625 40.304688 210.28125 40.851562 209.421875 40.851562 C 208.859375 40.851562 208.515625 40.554688 208.515625 40.070312 C 208.515625 39.570312 208.78125 39.320312 209.46875 39.179688 L 210.046875 39.070312 C 210.5 38.992188 210.5625 38.960938 210.765625 38.867188 Z M 218.359375 41.929688 L 220.046875 41.929688 L 220.046875 33.179688 L 218.359375 33.179688 L 218.359375 36.289062 C 217.9375 35.648438 217.390625 35.335938 216.578125 35.335938 C 215.03125 35.335938 213.84375 36.835938 213.84375 38.789062 C 213.84375 39.664062 214.109375 40.554688 214.546875 41.179688 C 214.984375 41.804688 215.78125 42.210938 216.578125 42.210938 C 217.390625 42.210938 217.9375 41.914062 218.359375 41.273438 Z M 216.9375 36.742188 C 217.796875 36.742188 218.359375 37.554688 218.359375 38.804688 C 218.359375 39.992188 217.78125 40.804688 216.9375 40.804688 C 216.109375 40.804688 215.53125 39.976562 215.53125 38.789062 C 215.53125 37.570312 216.109375 36.742188 216.9375 36.742188 Z M 222.984375 35.445312 L 221.296875 35.445312 L 221.296875 41.929688 L 222.984375 41.929688 Z M 222.984375 33.179688 L 221.296875 33.179688 L 221.296875 34.679688 L 222.984375 34.679688 Z M 224.25 35.445312 L 224.25 41.929688 L 225.9375 41.929688 L 225.9375 38.039062 C 225.9375 37.273438 226.46875 36.773438 227.296875 36.773438 C 228.015625 36.773438 228.375 37.164062 228.375 37.929688 L 228.375 41.929688 L 230.046875 41.929688 L 230.046875 37.585938 C 230.046875 36.148438 229.265625 35.335938 227.875 35.335938 C 227 35.335938 226.421875 35.648438 225.9375 36.382812 L 225.9375 35.445312 Z M 235.296875 35.445312 L 235.296875 36.445312 C 234.828125 35.695312 234.3125 35.335938 233.625 35.335938 C 233.0625 35.335938 232.421875 35.632812 231.96875 36.101562 C 231.328125 36.773438 230.984375 37.710938 230.984375 38.851562 C 230.984375 40.835938 232.046875 42.210938 233.59375 42.210938 C 234.296875 42.210938 234.71875 41.976562 235.296875 41.273438 L 235.296875 42.148438 C 235.296875 42.929688 234.75 43.460938 233.953125 43.460938 C 233.359375 43.460938 232.984375 43.195312 232.859375 42.710938 L 231.125 42.710938 C 231.140625 43.210938 231.3125 43.554688 231.765625 43.914062 C 232.28125 44.335938 232.984375 44.539062 233.890625 44.539062 C 235.765625 44.539062 236.890625 43.648438 236.890625 42.148438 L 236.890625 35.445312 Z M 233.9375 36.742188 C 234.734375 36.742188 235.328125 37.617188 235.328125 38.820312 C 235.328125 39.992188 234.765625 40.804688 233.921875 40.804688 C 233.1875 40.804688 232.671875 39.992188 232.671875 38.820312 C 232.671875 37.601562 233.1875 36.742188 233.9375 36.742188 Z M 244.5 31.929688 L 245.5 31.929688 L 245.5 32.929688 L 244.5 32.929688 Z M 245.5 31.929688 L 246.5 31.929688 L 246.5 32.929688 L 245.5 32.929688 Z M 246.5 31.929688 L 247.5 31.929688 L 247.5 32.929688 L 246.5 32.929688 Z M 247.5 31.929688 L 248.5 31.929688 L 248.5 32.929688 L 247.5 32.929688 Z M 248.5 31.929688 L 249.5 31.929688 L 249.5 32.929688 L 248.5 32.929688 Z M 249.5 31.929688 L 250.5 31.929688 L 250.5 32.929688 L 249.5 32.929688 Z M 250.5 31.929688 L 251.5 31.929688 L 251.5 32.929688 L 250.5 32.929688 Z M 251.5 31.929688 L 252.5 31.929688 L 252.5 32.929688 L 251.5 32.929688 Z M 244.5 32.929688 L 245.5 32.929688 L 245.5 33.929688 L 244.5 33.929688 Z M 245.5 32.929688 L 246.5 32.929688 L 246.5 33.929688 L 245.5 33.929688 Z M 246.5 32.929688 L 247.5 32.929688 L 247.5 33.929688 L 246.5 33.929688 Z M 247.5 32.929688 L 248.5 32.929688 L 248.5 33.929688 L 247.5 33.929688 Z M 248.5 32.929688 L 249.5 32.929688 L 249.5 33.929688 L 248.5 33.929688 Z M 249.5 32.929688 L 250.5 32.929688 L 250.5 33.929688 L 249.5 33.929688 Z M 250.5 32.929688 L 251.5 32.929688 L 251.5 33.929688 L 250.5 33.929688 Z M 251.5 32.929688 L 252.5 32.929688 L 252.5 33.929688 L 251.5 33.929688 Z M 243.5 33.929688 L 244.5 33.929688 L 244.5 34.929688 L 243.5 34.929688 Z M 244.5 33.929688 L 245.5 33.929688 L 245.5 34.929688 L 244.5 34.929688 Z M 245.5 33.929688 L 246.5 33.929688 L 246.5 34.929688 L 245.5 34.929688 Z M 246.5 33.929688 L 247.5 33.929688 L 247.5 34.929688 L 246.5 34.929688 Z M 247.5 33.929688 L 248.5 33.929688 L 248.5 34.929688 L 247.5 34.929688 Z M 248.5 33.929688 L 249.5 33.929688 L 249.5 34.929688 L 248.5 34.929688 Z M 249.5 33.929688 L 250.5 33.929688 L 250.5 34.929688 L 249.5 34.929688 Z M 250.5 33.929688 L 251.5 33.929688 L 251.5 34.929688 L 250.5 34.929688 Z M 251.5 33.929688 L 252.5 33.929688 L 252.5 34.929688 L 251.5 34.929688 Z M 252.5 33.929688 L 253.5 33.929688 L 253.5 34.929688 L 252.5 34.929688 Z M 241.5 34.929688 L 242.5 34.929688 L 242.5 35.929688 L 241.5 35.929688 Z M 242.5 34.929688 L 243.5 34.929688 L 243.5 35.929688 L 242.5 35.929688 Z M 243.5 34.929688 L 244.5 34.929688 L 244.5 35.929688 L 243.5 35.929688 Z M 244.5 34.929688 L 245.5 34.929688 L 245.5 35.929688 L 244.5 35.929688 Z M 245.5 34.929688 L 246.5 34.929688 L 246.5 35.929688 L 245.5 35.929688 Z M 246.5 34.929688 L 247.5 34.929688 L 247.5 35.929688 L 246.5 35.929688 Z M 247.5 34.929688 L 248.5 34.929688 L 248.5 35.929688 L 247.5 35.929688 Z M 248.5 34.929688 L 249.5 34.929688 L 249.5 35.929688 L 248.5 35.929688 Z M 249.5 34.929688 L 250.5 34.929688 L 250.5 35.929688 L 249.5 35.929688 Z M 250.5 34.929688 L 251.5 34.929688 L 251.5 35.929688 L 250.5 35.929688 Z M 251.5 34.929688 L 252.5 34.929688 L 252.5 35.929688 L 251.5 35.929688 Z M 252.5 34.929688 L 253.5 34.929688 L 253.5 35.929688 L 252.5 35.929688 Z M 253.5 34.929688 L 254.5 34.929688 L 254.5 35.929688 L 253.5 35.929688 Z M 241.5 35.929688 L 242.5 35.929688 L 242.5 36.929688 L 241.5 36.929688 Z M 242.5 35.929688 L 243.5 35.929688 L 243.5 36.929688 L 242.5 36.929688 Z M 243.5 35.929688 L 244.5 35.929688 L 244.5 36.929688 L 243.5 36.929688 Z M 244.5 35.929688 L 245.5 35.929688 L 245.5 36.929688 L 244.5 36.929688 Z M 245.5 35.929688 L 246.5 35.929688 L 246.5 36.929688 L 245.5 36.929688 Z M 246.5 35.929688 L 247.5 35.929688 L 247.5 36.929688 L 246.5 36.929688 Z M 247.5 35.929688 L 248.5 35.929688 L 248.5 36.929688 L 247.5 36.929688 Z M 248.5 35.929688 L 249.5 35.929688 L 249.5 36.929688 L 248.5 36.929688 Z M 249.5 35.929688 L 250.5 35.929688 L 250.5 36.929688 L 249.5 36.929688 Z M 250.5 35.929688 L 251.5 35.929688 L 251.5 36.929688 L 250.5 36.929688 Z M 251.5 35.929688 L 252.5 35.929688 L 252.5 36.929688 L 251.5 36.929688 Z M 252.5 35.929688 L 253.5 35.929688 L 253.5 36.929688 L 252.5 36.929688 Z M 253.5 35.929688 L 254.5 35.929688 L 254.5 36.929688 L 253.5 36.929688 Z M 241.5 36.929688 L 242.5 36.929688 L 242.5 37.929688 L 241.5 37.929688 Z M 242.5 36.929688 L 243.5 36.929688 L 243.5 37.929688 L 242.5 37.929688 Z M 243.5 36.929688 L 244.5 36.929688 L 244.5 37.929688 L 243.5 37.929688 Z M 244.5 36.929688 L 245.5 36.929688 L 245.5 37.929688 L 244.5 37.929688 Z M 245.5 36.929688 L 246.5 36.929688 L 246.5 37.929688 L 245.5 37.929688 Z M 246.5 36.929688 L 247.5 36.929688 L 247.5 37.929688 L 246.5 37.929688 Z M 247.5 36.929688 L 248.5 36.929688 L 248.5 37.929688 L 247.5 37.929688 Z M 248.5 36.929688 L 249.5 36.929688 L 249.5 37.929688 L 248.5 37.929688 Z M 249.5 36.929688 L 250.5 36.929688 L 250.5 37.929688 L 249.5 37.929688 Z M 250.5 36.929688 L 251.5 36.929688 L 251.5 37.929688 L 250.5 37.929688 Z M 251.5 36.929688 L 252.5 36.929688 L 252.5 37.929688 L 251.5 37.929688 Z M 252.5 36.929688 L 253.5 36.929688 L 253.5 37.929688 L 252.5 37.929688 Z M 253.5 36.929688 L 254.5 36.929688 L 254.5 37.929688 L 253.5 37.929688 Z M 241.5 37.929688 L 242.5 37.929688 L 242.5 38.929688 L 241.5 38.929688 Z M 242.5 37.929688 L 243.5 37.929688 L 243.5 38.929688 L 242.5 38.929688 Z M 243.5 37.929688 L 244.5 37.929688 L 244.5 38.929688 L 243.5 38.929688 Z M 244.5 37.929688 L 245.5 37.929688 L 245.5 38.929688 L 244.5 38.929688 Z M 245.5 37.929688 L 246.5 37.929688 L 246.5 38.929688 L 245.5 38.929688 Z M 246.5 37.929688 L 247.5 37.929688 L 247.5 38.929688 L 246.5 38.929688 Z M 247.5 37.929688 L 248.5 37.929688 L 248.5 38.929688 L 247.5 38.929688 Z M 248.5 37.929688 L 249.5 37.929688 L 249.5 38.929688 L 248.5 38.929688 Z M 249.5 37.929688 L 250.5 37.929688 L 250.5 38.929688 L 249.5 38.929688 Z M 250.5 37.929688 L 251.5 37.929688 L 251.5 38.929688 L 250.5 38.929688 Z M 251.5 37.929688 L 252.5 37.929688 L 252.5 38.929688 L 251.5 38.929688 Z M 252.5 37.929688 L 253.5 37.929688 L 253.5 38.929688 L 252.5 38.929688 Z M 253.5 37.929688 L 254.5 37.929688 L 254.5 38.929688 L 253.5 38.929688 Z M 242.5 38.929688 L 243.5 38.929688 L 243.5 39.929688 L 242.5 39.929688 Z M 243.5 38.929688 L 244.5 38.929688 L 244.5 39.929688 L 243.5 39.929688 Z M 244.5 38.929688 L 245.5 38.929688 L 245.5 39.929688 L 244.5 39.929688 Z M 245.5 38.929688 L 246.5 38.929688 L 246.5 39.929688 L 245.5 39.929688 Z M 246.5 38.929688 L 247.5 38.929688 L 247.5 39.929688 L 246.5 39.929688 Z M 247.5 38.929688 L 248.5 38.929688 L 248.5 39.929688 L 247.5 39.929688 Z M 248.5 38.929688 L 249.5 38.929688 L 249.5 39.929688 L 248.5 39.929688 Z M 249.5 38.929688 L 250.5 38.929688 L 250.5 39.929688 L 249.5 39.929688 Z M 250.5 38.929688 L 251.5 38.929688 L 251.5 39.929688 L 250.5 39.929688 Z M 251.5 38.929688 L 252.5 38.929688 L 252.5 39.929688 L 251.5 39.929688 Z M 252.5 38.929688 L 253.5 38.929688 L 253.5 39.929688 L 252.5 39.929688 Z M 253.5 38.929688 L 254.5 38.929688 L 254.5 39.929688 L 253.5 39.929688 Z M 242.5 39.929688 L 243.5 39.929688 L 243.5 40.929688 L 242.5 40.929688 Z M 243.5 39.929688 L 244.5 39.929688 L 244.5 40.929688 L 243.5 40.929688 Z M 244.5 39.929688 L 245.5 39.929688 L 245.5 40.929688 L 244.5 40.929688 Z M 245.5 39.929688 L 246.5 39.929688 L 246.5 40.929688 L 245.5 40.929688 Z M 246.5 39.929688 L 247.5 39.929688 L 247.5 40.929688 L 246.5 40.929688 Z M 247.5 39.929688 L 248.5 39.929688 L 248.5 40.929688 L 247.5 40.929688 Z M 248.5 39.929688 L 249.5 39.929688 L 249.5 40.929688 L 248.5 40.929688 Z M 249.5 39.929688 L 250.5 39.929688 L 250.5 40.929688 L 249.5 40.929688 Z M 250.5 39.929688 L 251.5 39.929688 L 251.5 40.929688 L 250.5 40.929688 Z M 251.5 39.929688 L 252.5 39.929688 L 252.5 40.929688 L 251.5 40.929688 Z M 252.5 39.929688 L 253.5 39.929688 L 253.5 40.929688 L 252.5 40.929688 Z M 253.5 39.929688 L 254.5 39.929688 L 254.5 40.929688 L 253.5 40.929688 Z M 242.5 40.929688 L 243.5 40.929688 L 243.5 41.929688 L 242.5 41.929688 Z M 243.5 40.929688 L 244.5 40.929688 L 244.5 41.929688 L 243.5 41.929688 Z M 244.5 40.929688 L 245.5 40.929688 L 245.5 41.929688 L 244.5 41.929688 Z M 245.5 40.929688 L 246.5 40.929688 L 246.5 41.929688 L 245.5 41.929688 Z M 246.5 40.929688 L 247.5 40.929688 L 247.5 41.929688 L 246.5 41.929688 Z M 247.5 40.929688 L 248.5 40.929688 L 248.5 41.929688 L 247.5 41.929688 Z M 248.5 40.929688 L 249.5 40.929688 L 249.5 41.929688 L 248.5 41.929688 Z M 249.5 40.929688 L 250.5 40.929688 L 250.5 41.929688 L 249.5 41.929688 Z M 250.5 40.929688 L 251.5 40.929688 L 251.5 41.929688 L 250.5 41.929688 Z M 251.5 40.929688 L 252.5 40.929688 L 252.5 41.929688 L 251.5 41.929688 Z M 252.5 40.929688 L 253.5 40.929688 L 253.5 41.929688 L 252.5 41.929688 Z M 253.5 40.929688 L 254.5 40.929688 L 254.5 41.929688 L 253.5 41.929688 Z M 242.5 41.929688 L 243.5 41.929688 L 243.5 42.929688 L 242.5 42.929688 Z M 243.5 41.929688 L 244.5 41.929688 L 244.5 42.929688 L 243.5 42.929688 Z M 244.5 41.929688 L 245.5 41.929688 L 245.5 42.929688 L 244.5 42.929688 Z M 245.5 41.929688 L 246.5 41.929688 L 246.5 42.929688 L 245.5 42.929688 Z M 246.5 41.929688 L 247.5 41.929688 L 247.5 42.929688 L 246.5 42.929688 Z M 247.5 41.929688 L 248.5 41.929688 L 248.5 42.929688 L 247.5 42.929688 Z M 248.5 41.929688 L 249.5 41.929688 L 249.5 42.929688 L 248.5 42.929688 Z M 249.5 41.929688 L 250.5 41.929688 L 250.5 42.929688 L 249.5 42.929688 Z M 250.5 41.929688 L 251.5 41.929688 L 251.5 42.929688 L 250.5 42.929688 Z M 251.5 41.929688 L 252.5 41.929688 L 252.5 42.929688 L 251.5 42.929688 Z M 252.5 41.929688 L 253.5 41.929688 L 253.5 42.929688 L 252.5 42.929688 Z M 253.5 41.929688 L 254.5 41.929688 L 254.5 42.929688 L 253.5 42.929688 Z M 243.5 42.929688 L 244.5 42.929688 L 244.5 43.929688 L 243.5 43.929688 Z M 244.5 42.929688 L 245.5 42.929688 L 245.5 43.929688 L 244.5 43.929688 Z M 245.5 42.929688 L 246.5 42.929688 L 246.5 43.929688 L 245.5 43.929688 Z M 246.5 42.929688 L 247.5 42.929688 L 247.5 43.929688 L 246.5 43.929688 Z M 247.5 42.929688 L 248.5 42.929688 L 248.5 43.929688 L 247.5 43.929688 Z M 248.5 42.929688 L 249.5 42.929688 L 249.5 43.929688 L 248.5 43.929688 Z M 249.5 42.929688 L 250.5 42.929688 L 250.5 43.929688 L 249.5 43.929688 Z M 250.5 42.929688 L 251.5 42.929688 L 251.5 43.929688 L 250.5 43.929688 Z M 251.5 42.929688 L 252.5 42.929688 L 252.5 43.929688 L 251.5 43.929688 Z M 253.5 42.929688 L 254.5 42.929688 L 254.5 43.929688 L 253.5 43.929688 Z M 190.5 30.8125 "/>
<path style="fill-rule:nonzero;fill:rgb(96.078431%,82.352941%,28.235294%);fill-opacity:1;stroke-width:2;stroke-linecap:butt;stroke-linejoin:bevel;stroke:rgb(100%,100%,100%);stroke-opacity:1;stroke-miterlimit:10;" d="M 200 55 C 245.875 55 287.875 80.738281 308.703125 121.613281 C 329.53125 162.488281 325.664062 211.59375 298.699219 248.710938 L 200 177 Z M 200 55 "/>
<path style="fill-rule:nonzero;fill:rgb(89.019608%,54.509804%,51.764706%);fill-opacity:1;stroke-width:2;stroke-linecap:butt;stroke-linejoin:bevel;stroke:rgb(100%,100%,100%);stroke-opacity:1;stroke-miterlimit:10;" d="M 298.699219 248.710938 C 259.097656 303.21875 182.800781 315.304688 128.289062 275.699219 L 200 177 Z M 298.699219 248.710938 "/>
<path style="fill-rule:nonzero;fill:rgb(12.54902%,36.862745%,44.313725%);fill-opacity:1;stroke-width:2;stroke-linecap:butt;stroke-linejoin:bevel;stroke:rgb(100%,100%,100%);stroke-opacity:1;stroke-miterlimit:10;" d="M 128.289062 275.699219 C 73.78125 236.097656 61.695312 159.800781 101.300781 105.289062 L 200 177 Z M 128.289062 275.699219 "/>
<path style="fill-rule:nonzero;fill:rgb(39.215686%,90.980392%,23.529412%);fill-opacity:1;stroke-width:2;stroke-linecap:butt;stroke-linejoin:bevel;stroke:rgb(100%,100%,100%);stroke-opacity:1;stroke-miterlimit:10;" d="M 101.300781 105.289062 C 124.253906 73.695312 160.945312 55 200 55 L 200 177 Z M 101.300781 105.289062 "/>
</g>
</svg>
