<?xml version="1.0" encoding="UTF-8"?>
<svg xmlns="http://www.w3.org/2000/svg" xmlns:xlink="http://www.w3.org/1999/xlink" width="400pt" height="300pt" viewBox="0 0 400 300" version="1.1">
<g id="surface1">
<path style="fill-rule:nonzero;fill:rgb(96.078431%,82.352941%,28.235294%);fill-opacity:1;stroke-width:2;stroke-linecap:butt;stroke-linejoin:miter;stroke:rgb(100%,100%,100%);stroke-opacity:1;stroke-miterlimit:10;" d="M 34 10 L 74 10 L 74 22 L 34 22 Z M 34 10 "/>
<path style=" stroke:none;fill-rule:nonzero;fill:rgb(40%,40%,40%);fill-opacity:1;" d="M 84.71875 18.835938 C 84.96875 18.835938 85.207031 18.816406 85.4375 18.773438 C 85.675781 18.734375 85.890625 18.679688 86.078125 18.617188 C 86.273438 18.554688 86.453125 18.484375 86.609375 18.398438 C 86.773438 18.316406 86.910156 18.226562 87.015625 18.132812 L 87.015625 16.992188 L 85 16.992188 L 85 15.710938 L 88.59375 15.710938 L 88.59375 18.757812 C 88.40625 18.945312 88.175781 19.128906 87.90625 19.304688 C 87.644531 19.472656 87.347656 19.625 87.015625 19.757812 C 86.679688 19.882812 86.316406 19.988281 85.921875 20.070312 C 85.535156 20.152344 85.117188 20.195312 84.671875 20.195312 C 83.941406 20.195312 83.3125 20.089844 82.78125 19.882812 C 82.257812 19.664062 81.828125 19.363281 81.484375 18.976562 C 81.148438 18.59375 80.898438 18.140625 80.734375 17.617188 C 80.578125 17.097656 80.5 16.523438 80.5 15.898438 C 80.5 15.253906 80.582031 14.675781 80.75 14.164062 C 80.925781 13.644531 81.1875 13.203125 81.53125 12.835938 C 81.882812 12.472656 82.320312 12.191406 82.84375 11.992188 C 83.375 11.796875 84 11.695312 84.71875 11.695312 C 85.238281 11.695312 85.695312 11.75 86.09375 11.851562 C 86.5 11.945312 86.851562 12.085938 87.15625 12.273438 C 87.46875 12.460938 87.722656 12.691406 87.921875 12.960938 C 88.128906 13.222656 88.296875 13.515625 88.421875 13.835938 L 86.828125 14.320312 C 86.753906 14.15625 86.65625 13.992188 86.53125 13.835938 C 86.414062 13.679688 86.269531 13.546875 86.09375 13.429688 C 85.925781 13.316406 85.726562 13.226562 85.5 13.164062 C 85.269531 13.09375 85.007812 13.054688 84.71875 13.054688 C 84.289062 13.054688 83.921875 13.125 83.609375 13.257812 C 83.296875 13.394531 83.035156 13.585938 82.828125 13.835938 C 82.628906 14.085938 82.476562 14.390625 82.375 14.742188 C 82.28125 15.085938 82.234375 15.472656 82.234375 15.898438 C 82.234375 16.335938 82.28125 16.738281 82.375 17.101562 C 82.476562 17.457031 82.628906 17.765625 82.828125 18.023438 C 83.035156 18.273438 83.296875 18.472656 83.609375 18.617188 C 83.921875 18.765625 84.289062 18.835938 84.71875 18.835938 Z M 91.296875 20.195312 C 90.992188 20.195312 90.722656 20.152344 90.484375 20.070312 C 90.242188 19.976562 90.039062 19.851562 89.875 19.695312 C 89.707031 19.53125 89.578125 19.328125 89.484375 19.085938 C 89.398438 18.847656 89.359375 18.578125 89.359375 18.273438 C 89.359375 17.898438 89.421875 17.585938 89.546875 17.335938 C 89.679688 17.078125 89.859375 16.867188 90.078125 16.710938 C 90.304688 16.554688 90.570312 16.441406 90.875 16.367188 C 91.1875 16.296875 91.515625 16.253906 91.859375 16.242188 L 93.21875 16.226562 L 93.21875 15.898438 C 93.21875 15.671875 93.195312 15.484375 93.15625 15.335938 C 93.113281 15.179688 93.050781 15.054688 92.96875 14.960938 C 92.894531 14.859375 92.800781 14.785156 92.6875 14.742188 C 92.570312 14.703125 92.441406 14.679688 92.296875 14.679688 C 92.160156 14.679688 92.035156 14.695312 91.921875 14.726562 C 91.816406 14.75 91.722656 14.796875 91.640625 14.867188 C 91.566406 14.929688 91.503906 15.019531 91.453125 15.132812 C 91.410156 15.25 91.378906 15.394531 91.359375 15.570312 L 89.640625 15.492188 C 89.679688 15.210938 89.765625 14.960938 89.890625 14.742188 C 90.015625 14.515625 90.1875 14.316406 90.40625 14.148438 C 90.632812 13.972656 90.910156 13.84375 91.234375 13.757812 C 91.554688 13.664062 91.929688 13.617188 92.359375 13.617188 C 92.753906 13.617188 93.101562 13.664062 93.40625 13.757812 C 93.71875 13.851562 93.984375 14 94.203125 14.195312 C 94.421875 14.394531 94.582031 14.632812 94.6875 14.914062 C 94.800781 15.195312 94.859375 15.519531 94.859375 15.882812 L 94.859375 18.195312 C 94.859375 18.34375 94.863281 18.476562 94.875 18.601562 C 94.894531 18.71875 94.921875 18.816406 94.953125 18.898438 C 94.992188 18.972656 95.046875 19.03125 95.109375 19.070312 C 95.179688 19.113281 95.273438 19.132812 95.390625 19.132812 C 95.515625 19.132812 95.632812 19.125 95.75 19.101562 L 95.75 19.992188 C 95.65625 20.015625 95.566406 20.035156 95.484375 20.054688 C 95.410156 20.074219 95.332031 20.089844 95.25 20.101562 C 95.175781 20.109375 95.09375 20.121094 95 20.132812 C 94.914062 20.140625 94.816406 20.148438 94.703125 20.148438 C 94.285156 20.148438 93.976562 20.046875 93.78125 19.835938 C 93.582031 19.628906 93.460938 19.332031 93.421875 18.945312 L 93.390625 18.945312 C 93.171875 19.332031 92.890625 19.640625 92.546875 19.867188 C 92.203125 20.085938 91.785156 20.195312 91.296875 20.195312 Z M 93.21875 17.132812 L 92.375 17.148438 C 92.195312 17.160156 92.03125 17.175781 91.875 17.195312 C 91.71875 17.21875 91.578125 17.265625 91.453125 17.335938 C 91.335938 17.398438 91.242188 17.5 91.171875 17.632812 C 91.097656 17.757812 91.0625 17.929688 91.0625 18.148438 C 91.0625 18.453125 91.128906 18.675781 91.265625 18.820312 C 91.410156 18.96875 91.597656 19.039062 91.828125 19.039062 C 92.035156 19.039062 92.222656 19 92.390625 18.914062 C 92.566406 18.820312 92.710938 18.703125 92.828125 18.554688 C 92.953125 18.410156 93.046875 18.242188 93.109375 18.054688 C 93.179688 17.859375 93.21875 17.660156 93.21875 17.460938 Z M 100.578125 20.070312 L 100.578125 16.507812 C 100.578125 16.269531 100.554688 16.046875 100.515625 15.835938 C 100.484375 15.628906 100.429688 15.453125 100.359375 15.304688 C 100.285156 15.160156 100.1875 15.046875 100.0625 14.960938 C 99.9375 14.878906 99.785156 14.835938 99.609375 14.835938 C 99.441406 14.835938 99.289062 14.882812 99.15625 14.976562 C 99.019531 15.0625 98.898438 15.1875 98.796875 15.351562 C 98.703125 15.507812 98.625 15.703125 98.5625 15.929688 C 98.507812 16.160156 98.484375 16.40625 98.484375 16.664062 L 98.484375 20.070312 L 96.84375 20.070312 L 96.84375 15.148438 C 96.84375 15.015625 96.835938 14.875 96.828125 14.726562 C 96.828125 14.582031 96.820312 14.445312 96.8125 14.320312 C 96.8125 14.1875 96.804688 14.066406 96.796875 13.960938 C 96.796875 13.859375 96.796875 13.78125 96.796875 13.726562 L 98.359375 13.726562 C 98.367188 13.78125 98.375 13.859375 98.375 13.960938 C 98.382812 14.066406 98.394531 14.179688 98.40625 14.304688 C 98.414062 14.429688 98.421875 14.554688 98.421875 14.679688 C 98.429688 14.804688 98.4375 14.910156 98.4375 14.992188 L 98.46875 14.992188 C 98.664062 14.503906 98.914062 14.148438 99.21875 13.929688 C 99.519531 13.710938 99.882812 13.601562 100.3125 13.601562 C 100.789062 13.601562 101.175781 13.722656 101.46875 13.960938 C 101.769531 14.203125 101.972656 14.546875 102.078125 14.992188 L 102.109375 14.992188 C 102.222656 14.734375 102.34375 14.515625 102.46875 14.335938 C 102.601562 14.160156 102.75 14.019531 102.90625 13.914062 C 103.0625 13.800781 103.234375 13.722656 103.421875 13.679688 C 103.609375 13.628906 103.8125 13.601562 104.03125 13.601562 C 104.375 13.601562 104.664062 13.664062 104.90625 13.789062 C 105.144531 13.914062 105.335938 14.085938 105.484375 14.304688 C 105.640625 14.523438 105.75 14.785156 105.8125 15.085938 C 105.882812 15.378906 105.921875 15.695312 105.921875 16.039062 L 105.921875 20.070312 L 104.296875 20.070312 L 104.296875 16.507812 C 104.296875 16.269531 104.273438 16.046875 104.234375 15.835938 C 104.203125 15.628906 104.148438 15.453125 104.078125 15.304688 C 104.003906 15.160156 103.90625 15.046875 103.78125 14.960938 C 103.65625 14.878906 103.503906 14.835938 103.328125 14.835938 C 103.160156 14.835938 103.007812 14.882812 102.875 14.976562 C 102.75 15.0625 102.632812 15.179688 102.53125 15.335938 C 102.425781 15.484375 102.347656 15.664062 102.296875 15.882812 C 102.242188 16.09375 102.210938 16.332031 102.203125 16.601562 L 102.203125 20.070312 Z M 107.84375 12.585938 L 107.84375 11.367188 L 109.484375 11.367188 L 109.484375 12.585938 Z M 107.84375 20.070312 L 107.84375 13.726562 L 109.484375 13.726562 L 109.484375 20.070312 Z M 114.953125 20.070312 L 114.953125 16.507812 C 114.953125 16.269531 114.929688 16.046875 114.890625 15.835938 C 114.847656 15.628906 114.78125 15.453125 114.6875 15.304688 C 114.601562 15.160156 114.488281 15.046875 114.34375 14.960938 C 114.195312 14.878906 114.019531 14.835938 113.8125 14.835938 C 113.613281 14.835938 113.429688 14.882812 113.265625 14.976562 C 113.109375 15.0625 112.96875 15.1875 112.84375 15.351562 C 112.726562 15.507812 112.640625 15.703125 112.578125 15.929688 C 112.515625 16.160156 112.484375 16.40625 112.484375 16.664062 L 112.484375 20.070312 L 110.84375 20.070312 L 110.84375 15.148438 C 110.84375 15.015625 110.835938 14.875 110.828125 14.726562 C 110.828125 14.582031 110.820312 14.445312 110.8125 14.320312 C 110.8125 14.1875 110.804688 14.066406 110.796875 13.960938 C 110.796875 13.859375 110.796875 13.78125 110.796875 13.726562 L 112.359375 13.726562 C 112.367188 13.78125 112.375 13.859375 112.375 13.960938 C 112.382812 14.066406 112.394531 14.179688 112.40625 14.304688 C 112.414062 14.429688 112.421875 14.554688 112.421875 14.679688 C 112.429688 14.804688 112.4375 14.910156 112.4375 14.992188 L 112.46875 14.992188 C 112.6875 14.503906 112.960938 14.148438 113.296875 13.929688 C 113.628906 13.710938 114.03125 13.601562 114.5 13.601562 C 114.882812 13.601562 115.207031 13.664062 115.46875 13.789062 C 115.726562 13.914062 115.941406 14.085938 116.109375 14.304688 C 116.273438 14.523438 116.394531 14.785156 116.46875 15.085938 C 116.550781 15.378906 116.59375 15.695312 116.59375 16.039062 L 116.59375 20.070312 Z M 120.5 22.617188 C 120.070312 22.617188 119.695312 22.574219 119.375 22.492188 C 119.0625 22.40625 118.789062 22.289062 118.5625 22.132812 C 118.34375 21.984375 118.164062 21.808594 118.03125 21.601562 C 117.894531 21.390625 117.800781 21.164062 117.75 20.914062 L 119.40625 20.710938 C 119.457031 20.96875 119.582031 21.167969 119.78125 21.304688 C 119.976562 21.449219 120.234375 21.523438 120.546875 21.523438 C 120.734375 21.523438 120.90625 21.496094 121.0625 21.445312 C 121.226562 21.390625 121.367188 21.296875 121.484375 21.164062 C 121.609375 21.039062 121.703125 20.867188 121.765625 20.648438 C 121.828125 20.4375 121.859375 20.171875 121.859375 19.851562 C 121.859375 19.75 121.859375 19.640625 121.859375 19.523438 C 121.859375 19.410156 121.859375 19.304688 121.859375 19.210938 C 121.867188 19.097656 121.875 18.992188 121.875 18.898438 L 121.859375 18.898438 C 121.671875 19.304688 121.398438 19.601562 121.046875 19.789062 C 120.703125 19.96875 120.289062 20.054688 119.8125 20.054688 C 119.414062 20.054688 119.070312 19.976562 118.78125 19.820312 C 118.488281 19.664062 118.242188 19.445312 118.046875 19.164062 C 117.859375 18.875 117.71875 18.535156 117.625 18.148438 C 117.539062 17.753906 117.5 17.320312 117.5 16.851562 C 117.5 16.363281 117.546875 15.921875 117.640625 15.523438 C 117.734375 15.128906 117.878906 14.789062 118.078125 14.507812 C 118.285156 14.21875 118.539062 13.992188 118.84375 13.835938 C 119.15625 13.679688 119.519531 13.601562 119.9375 13.601562 C 120.363281 13.601562 120.742188 13.695312 121.078125 13.882812 C 121.410156 14.0625 121.671875 14.347656 121.859375 14.742188 L 121.890625 14.742188 C 121.890625 14.671875 121.890625 14.582031 121.890625 14.476562 C 121.898438 14.363281 121.90625 14.257812 121.90625 14.164062 C 121.914062 14.0625 121.925781 13.972656 121.9375 13.898438 C 121.945312 13.816406 121.957031 13.757812 121.96875 13.726562 L 123.53125 13.726562 C 123.519531 13.875 123.507812 14.070312 123.5 14.320312 C 123.5 14.570312 123.5 14.863281 123.5 15.195312 L 123.5 19.882812 C 123.5 20.339844 123.429688 20.742188 123.296875 21.085938 C 123.160156 21.429688 122.960938 21.710938 122.703125 21.929688 C 122.453125 22.15625 122.140625 22.328125 121.765625 22.445312 C 121.390625 22.558594 120.96875 22.617188 120.5 22.617188 Z M 121.875 16.804688 C 121.875 16.410156 121.832031 16.082031 121.75 15.820312 C 121.675781 15.550781 121.578125 15.335938 121.453125 15.179688 C 121.328125 15.015625 121.179688 14.898438 121.015625 14.835938 C 120.859375 14.773438 120.695312 14.742188 120.53125 14.742188 C 120.320312 14.742188 120.132812 14.785156 119.96875 14.867188 C 119.800781 14.941406 119.660156 15.066406 119.546875 15.242188 C 119.441406 15.410156 119.359375 15.628906 119.296875 15.898438 C 119.234375 16.160156 119.203125 16.476562 119.203125 16.851562 C 119.203125 17.53125 119.3125 18.046875 119.53125 18.398438 C 119.75 18.742188 120.078125 18.914062 120.515625 18.914062 C 120.679688 18.914062 120.84375 18.882812 121 18.820312 C 121.164062 18.757812 121.3125 18.648438 121.4375 18.492188 C 121.570312 18.328125 121.675781 18.109375 121.75 17.835938 C 121.832031 17.566406 121.875 17.222656 121.875 16.804688 Z M 137 10.070312 L 138 10.070312 L 138 11.070312 L 137 11.070312 Z M 135 11.070312 L 136 11.070312 L 136 12.070312 L 135 12.070312 Z M 136 11.070312 L 137 11.070312 L 137 12.070312 L 136 12.070312 Z M 134 12.070312 L 135 12.070312 L 135 13.070312 L 134 13.070312 Z M 130 13.070312 L 131 13.070312 L 131 14.070312 L 130 14.070312 Z M 131 13.070312 L 132 13.070312 L 132 14.070312 L 131 14.070312 Z M 134 13.070312 L 135 13.070312 L 135 14.070312 L 134 14.070312 Z M 137 13.070312 L 138 13.070312 L 138 14.070312 L 137 14.070312 Z M 138 13.070312 L 139 13.070312 L 139 14.070312 L 138 14.070312 Z M 129 14.070312 L 130 14.070312 L 130 15.070312 L 129 15.070312 Z M 130 14.070312 L 131 14.070312 L 131 15.070312 L 130 15.070312 Z M 131 14.070312 L 132 14.070312 L 132 15.070312 L 131 15.070312 Z M 132 14.070312 L 133 14.070312 L 133 15.070312 L 132 15.070312 Z M 133 14.070312 L 134 14.070312 L 134 15.070312 L 133 15.070312 Z M 134 14.070312 L 135 14.070312 L 135 15.070312 L 134 15.070312 Z M 135 14.070312 L 136 14.070312 L 136 15.070312 L 135 15.070312 Z M 136 14.070312 L 137 14.070312 L 137 15.070312 L 136 15.070312 Z M 137 14.070312 L 138 14.070312 L 138 15.070312 L 137 15.070312 Z M 138 14.070312 L 139 14.070312 L 139 15.070312 L 138 15.070312 Z M 139 14.070312 L 140 14.070312 L 140 15.070312 L 139 15.070312 Z M 140 14.070312 L 141 14.070312 L 141 15.070312 L 140 15.070312 Z M 128 15.070312 L 129 15.070312 L 129 16.070312 L 128 16.070312 Z M 129 15.070312 L 130 15.070312 L 130 16.070312 L 129 16.070312 Z M 130 15.070312 L 131 15.070312 L 131 16.070312 L 130 16.070312 Z M 131 15.070312 L 132 15.070312 L 132 16.070312 L 131 16.070312 Z M 132 15.070312 L 133 15.070312 L 133 16.070312 L 132 16.070312 Z M 133 15.070312 L 134 15.070312 L 134 16.070312 L 133 16.070312 Z M 134 15.070312 L 135 15.070312 L 135 16.070312 L 134 16.070312 Z M 135 15.070312 L 136 15.070312 L 136 16.070312 L 135 16.070312 Z M 136 15.070312 L 137 15.070312 L 137 16.070312 L 136 16.070312 Z M 137 15.070312 L 138 15.070312 L 138 16.070312 L 137 16.070312 Z M 138 15.070312 L 139 15.070312 L 139 16.070312 L 138 16.070312 Z M 139 15.070312 L 140 15.070312 L 140 16.070312 L 139 16.070312 Z M 140 15.070312 L 141 15.070312 L 141 16.070312 L 140 16.070312 Z M 128 16.070312 L 129 16.070312 L 129 17.070312 L 128 17.070312 Z M 129 16.070312 L 130 16.070312 L 130 17.070312 L 129 17.070312 Z M 130 16.070312 L 131 16.070312 L 131 17.070312 L 130 17.070312 Z M 131 16.070312 L 132 16.070312 L 132 17.070312 L 131 17.070312 Z M 132 16.070312 L 133 16.070312 L 133 17.070312 L 132 17.070312 Z M 133 16.070312 L 134 16.070312 L 134 17.070312 L 133 17.070312 Z M 134 16.070312 L 135 16.070312 L 135 17.070312 L 134 17.070312 Z M 135 16.070312 L 136 16.070312 L 136 17.070312 L 135 17.070312 Z M 136 16.070312 L 137 16.070312 L 137 17.070312 L 136 17.070312 Z M 137 16.070312 L 138 16.070312 L 138 17.070312 L 137 17.070312 Z M 138 16.070312 L 139 16.070312 L 139 17.070312 L 138 17.070312 Z M 139 16.070312 L 140 16.070312 L 140 17.070312 L 139 17.070312 Z M 140 16.070312 L 141 16.070312 L 141 17.070312 L 140 17.070312 Z M 128 17.070312 L 129 17.070312 L 129 18.070312 L 128 18.070312 Z M 129 17.070312 L 130 17.070312 L 130 18.070312 L 129 18.070312 Z M 130 17.070312 L 131 17.070312 L 131 18.070312 L 130 18.070312 Z M 131 17.070312 L 132 17.070312 L 132 18.070312 L 131 18.070312 Z M 132 17.070312 L 133 17.070312 L 133 18.070312 L 132 18.070312 Z M 133 17.070312 L 134 17.070312 L 134 18.070312 L 133 18.070312 Z M 134 17.070312 L 135 17.070312 L 135 18.070312 L 134 18.070312 Z M 135 17.070312 L 136 17.070312 L 136 18.070312 L 135 18.070312 Z M 136 17.070312 L 137 17.070312 L 137 18.070312 L 136 18.070312 Z M 137 17.070312 L 138 17.070312 L 138 18.070312 L 137 18.070312 Z M 138 17.070312 L 139 17.070312 L 139 18.070312 L 138 18.070312 Z M 139 17.070312 L 140 17.070312 L 140 18.070312 L 139 18.070312 Z M 140 17.070312 L 141 17.070312 L 141 18.070312 L 140 18.070312 Z M 128 18.070312 L 129 18.070312 L 129 19.070312 L 128 19.070312 Z M 129 18.070312 L 130 18.070312 L 130 19.070312 L 129 19.070312 Z M 130 18.070312 L 131 18.070312 L 131 19.070312 L 130 19.070312 Z M 131 18.070312 L 132 18.070312 L 132 19.070312 L 131 19.070312 Z M 132 18.070312 L 133 18.070312 L 133 19.070312 L 132 19.070312 Z M 133 18.070312 L 134 18.070312 L 134 19.070312 L 133 19.070312 Z M 134 18.070312 L 135 18.070312 L 135 19.070312 L 134 19.070312 Z M 135 18.070312 L 136 18.070312 L 136 19.070312 L 135 19.070312 Z M 136 18.070312 L 137 18.070312 L 137 19.070312 L 136 19.070312 Z M 137 18.070312 L 138 18.070312 L 138 19.070312 L 137 19.070312 Z M 138 18.070312 L 139 18.070312 L 139 19.070312 L 138 19.070312 Z M 139 18.070312 L 140 18.070312 L 140 19.070312 L 139 19.070312 Z M 140 18.070312 L 141 18.070312 L 141 19.070312 L 140 19.070312 Z M 128 19.070312 L 129 19.070312 L 129 20.070312 L 128 20.070312 Z M 129 19.070312 L 130 19.070312 L 130 20.070312 L 129 20.070312 Z M 130 19.070312 L 131 19.070312 L 131 20.070312 L 130 20.070312 Z M 131 19.070312 L 132 19.070312 L 132 20.070312 L 131 20.070312 Z M 132 19.070312 L 133 19.070312 L 133 20.070312 L 132 20.070312 Z M 133 19.070312 L 134 19.070312 L 134 20.070312 L 133 20.070312 Z M 134 19.070312 L 135 19.070312 L 135 20.070312 L 134 20.070312 Z M 135 19.070312 L 136 19.070312 L 136 20.070312 L 135 20.070312 Z M 136 19.070312 L 137 19.070312 L 137 20.070312 L 136 20.070312 Z M 137 19.070312 L 138 19.070312 L 138 20.070312 L 137 20.070312 Z M 138 19.070312 L 139 19.070312 L 139 20.070312 L 138 20.070312 Z M 139 19.070312 L 140 19.070312 L 140 20.070312 L 139 20.070312 Z M 140 19.070312 L 141 19.070312 L 141 20.070312 L 140 20.070312 Z M 128 20.070312 L 129 20.070312 L 129 21.070312 L 128 21.070312 Z M 129 20.070312 L 130 20.070312 L 130 21.070312 L 129 21.070312 Z M 130 20.070312 L 131 20.070312 L 131 21.070312 L 130 21.070312 Z M 131 20.070312 L 132 20.070312 L 132 21.070312 L 131 21.070312 Z M 132 20.070312 L 133 20.070312 L 133 21.070312 L 132 21.070312 Z M 133 20.070312 L 134 20.070312 L 134 21.070312 L 133 21.070312 Z M 135 20.070312 L 136 20.070312 L 136 21.070312 L 135 21.070312 Z M 136 20.070312 L 137 20.070312 L 137 21.070312 L 136 21.070312 Z M 137 20.070312 L 138 20.070312 L 138 21.070312 L 137 21.070312 Z M 138 20.070312 L 139 20.070312 L 139 21.070312 L 138 21.070312 Z M 139 20.070312 L 140 20.070312 L 140 21.070312 L 139 21.070312 Z M 140 20.070312 L 141 20.070312 L 141 21.070312 L 140 21.070312 Z M 128 21.070312 L 129 21.070312 L 129 22.070312 L 128 22.070312 Z M 129 21.070312 L 130 21.070312 L 130 22.070312 L 129 22.070312 Z M 130 21.070312 L 131 21.070312 L 131 22.070312 L 130 22.070312 Z M 138 21.070312 L 139 21.070312 L 139 22.070312 L 138 22.070312 Z M 139 21.070312 L 140 21.070312 L 140 22.070312 L 139 22.070312 Z M 140 21.070312 L 141 21.070312 L 141 22.070312 L 140 22.070312 Z M 129 22.070312 L 130 22.070312 L 130 23.070312 L 129 23.070312 Z M 139 22.070312 L 140 22.070312 L 140 23.070312 L 139 23.070312 Z M 80 8.953125 "/>
<path style="fill-rule:nonzero;fill:rgb(89.019608%,54.509804%,51.764706%);fill-opacity:1;stroke-width:2;stroke-linecap:butt;stroke-linejoin:miter;stroke:rgb(100%,100%,100%);stroke-opacity:1;stroke-miterlimit:10;" d="M 152 10 L 192 10 L 192 22 L 152 22 Z M 152 10 "/>
<path style=" stroke:none;fill-rule:nonzero;fill:rgb(40%,40%,40%);fill-opacity:1;" d="M 202.65625 18.820312 C 202.976562 18.820312 203.257812 18.78125 203.5 18.695312 C 203.738281 18.601562 203.941406 18.484375 204.109375 18.335938 C 204.285156 18.179688 204.429688 18.007812 204.546875 17.820312 C 204.660156 17.632812 204.753906 17.445312 204.828125 17.257812 L 206.34375 17.820312 C 206.21875 18.125 206.054688 18.421875 205.859375 18.710938 C 205.671875 18.992188 205.425781 19.242188 205.125 19.460938 C 204.832031 19.679688 204.484375 19.859375 204.078125 19.992188 C 203.679688 20.125 203.207031 20.195312 202.65625 20.195312 C 201.945312 20.195312 201.328125 20.089844 200.796875 19.882812 C 200.273438 19.664062 199.84375 19.363281 199.5 18.976562 C 199.15625 18.59375 198.898438 18.140625 198.734375 17.617188 C 198.578125 17.097656 198.5 16.523438 198.5 15.898438 C 198.5 15.253906 198.578125 14.675781 198.734375 14.164062 C 198.898438 13.644531 199.148438 13.203125 199.484375 12.835938 C 199.828125 12.472656 200.253906 12.191406 200.765625 11.992188 C 201.285156 11.796875 201.890625 11.695312 202.578125 11.695312 C 203.117188 11.695312 203.59375 11.753906 204 11.867188 C 204.40625 11.972656 204.753906 12.128906 205.046875 12.335938 C 205.335938 12.546875 205.578125 12.789062 205.765625 13.070312 C 205.960938 13.34375 206.117188 13.648438 206.234375 13.992188 L 204.703125 14.398438 C 204.648438 14.222656 204.566406 14.054688 204.453125 13.898438 C 204.335938 13.734375 204.191406 13.585938 204.015625 13.460938 C 203.847656 13.335938 203.644531 13.238281 203.40625 13.164062 C 203.175781 13.09375 202.914062 13.054688 202.625 13.054688 C 202.195312 13.054688 201.832031 13.125 201.53125 13.257812 C 201.238281 13.394531 200.992188 13.585938 200.796875 13.835938 C 200.609375 14.085938 200.46875 14.390625 200.375 14.742188 C 200.28125 15.085938 200.234375 15.472656 200.234375 15.898438 C 200.234375 16.335938 200.28125 16.734375 200.375 17.085938 C 200.46875 17.441406 200.609375 17.75 200.796875 18.007812 C 200.992188 18.269531 201.242188 18.472656 201.546875 18.617188 C 201.859375 18.753906 202.226562 18.820312 202.65625 18.820312 Z M 213.859375 16.898438 C 213.859375 17.378906 213.789062 17.820312 213.65625 18.226562 C 213.519531 18.625 213.316406 18.96875 213.046875 19.257812 C 212.785156 19.550781 212.453125 19.78125 212.046875 19.945312 C 211.640625 20.109375 211.171875 20.195312 210.640625 20.195312 C 210.117188 20.195312 209.660156 20.117188 209.265625 19.960938 C 208.878906 19.796875 208.550781 19.566406 208.28125 19.273438 C 208.007812 18.984375 207.804688 18.640625 207.671875 18.242188 C 207.535156 17.835938 207.46875 17.390625 207.46875 16.898438 C 207.46875 16.421875 207.53125 15.984375 207.65625 15.585938 C 207.789062 15.179688 207.988281 14.832031 208.25 14.539062 C 208.519531 14.25 208.851562 14.023438 209.25 13.867188 C 209.65625 13.703125 210.128906 13.617188 210.671875 13.617188 C 211.242188 13.617188 211.726562 13.703125 212.125 13.867188 C 212.53125 14.023438 212.859375 14.25 213.109375 14.539062 C 213.367188 14.832031 213.554688 15.179688 213.671875 15.585938 C 213.796875 15.984375 213.859375 16.421875 213.859375 16.898438 Z M 212.140625 16.898438 C 212.140625 16.140625 212.015625 15.59375 211.765625 15.257812 C 211.523438 14.914062 211.171875 14.742188 210.703125 14.742188 C 210.210938 14.742188 209.835938 14.914062 209.578125 15.257812 C 209.328125 15.601562 209.203125 16.148438 209.203125 16.898438 C 209.203125 17.273438 209.234375 17.601562 209.296875 17.882812 C 209.367188 18.15625 209.46875 18.378906 209.59375 18.554688 C 209.71875 18.722656 209.867188 18.847656 210.046875 18.929688 C 210.222656 19.015625 210.414062 19.054688 210.625 19.054688 C 210.863281 19.054688 211.078125 19.015625 211.265625 18.929688 C 211.453125 18.847656 211.609375 18.722656 211.734375 18.554688 C 211.867188 18.378906 211.96875 18.15625 212.03125 17.882812 C 212.101562 17.601562 212.140625 17.273438 212.140625 16.898438 Z M 218.953125 20.070312 C 218.941406 20.039062 218.929688 19.988281 218.921875 19.914062 C 218.910156 19.832031 218.898438 19.738281 218.890625 19.632812 C 218.878906 19.53125 218.867188 19.425781 218.859375 19.320312 C 218.859375 19.21875 218.859375 19.125 218.859375 19.039062 L 218.828125 19.039062 C 218.640625 19.445312 218.375 19.742188 218.03125 19.929688 C 217.6875 20.105469 217.28125 20.195312 216.8125 20.195312 C 216.40625 20.195312 216.054688 20.109375 215.765625 19.945312 C 215.484375 19.78125 215.242188 19.550781 215.046875 19.257812 C 214.859375 18.96875 214.71875 18.625 214.625 18.226562 C 214.539062 17.820312 214.5 17.378906 214.5 16.898438 C 214.5 16.421875 214.546875 15.984375 214.640625 15.585938 C 214.734375 15.179688 214.878906 14.832031 215.078125 14.539062 C 215.273438 14.25 215.523438 14.023438 215.828125 13.867188 C 216.140625 13.703125 216.507812 13.617188 216.9375 13.617188 C 217.132812 13.617188 217.328125 13.640625 217.515625 13.679688 C 217.710938 13.722656 217.894531 13.789062 218.0625 13.882812 C 218.226562 13.96875 218.375 14.082031 218.5 14.226562 C 218.632812 14.363281 218.75 14.53125 218.84375 14.726562 L 218.859375 14.726562 C 218.859375 14.695312 218.859375 14.644531 218.859375 14.570312 C 218.859375 14.488281 218.859375 14.398438 218.859375 14.304688 C 218.859375 14.203125 218.851562 14.097656 218.84375 13.992188 C 218.84375 13.890625 218.84375 13.789062 218.84375 13.695312 L 218.84375 11.367188 L 220.5 11.367188 L 220.5 18.679688 C 220.5 18.992188 220.503906 19.269531 220.515625 19.507812 C 220.523438 19.75 220.535156 19.9375 220.546875 20.070312 Z M 218.875 16.867188 C 218.875 16.453125 218.832031 16.109375 218.75 15.835938 C 218.675781 15.554688 218.570312 15.335938 218.4375 15.179688 C 218.3125 15.015625 218.164062 14.898438 218 14.835938 C 217.84375 14.765625 217.679688 14.726562 217.515625 14.726562 C 217.304688 14.726562 217.117188 14.769531 216.953125 14.851562 C 216.796875 14.9375 216.660156 15.066406 216.546875 15.242188 C 216.429688 15.421875 216.34375 15.644531 216.28125 15.914062 C 216.226562 16.1875 216.203125 16.515625 216.203125 16.898438 C 216.203125 18.335938 216.632812 19.054688 217.5 19.054688 C 217.664062 19.054688 217.832031 19.023438 218 18.960938 C 218.164062 18.890625 218.3125 18.769531 218.4375 18.601562 C 218.5625 18.4375 218.664062 18.210938 218.75 17.929688 C 218.832031 17.640625 218.875 17.285156 218.875 16.867188 Z M 221.84375 12.585938 L 221.84375 11.367188 L 223.484375 11.367188 L 223.484375 12.585938 Z M 221.84375 20.070312 L 221.84375 13.726562 L 223.484375 13.726562 L 223.484375 20.070312 Z M 228.953125 20.070312 L 228.953125 16.507812 C 228.953125 16.269531 228.929688 16.046875 228.890625 15.835938 C 228.847656 15.628906 228.78125 15.453125 228.6875 15.304688 C 228.601562 15.160156 228.488281 15.046875 228.34375 14.960938 C 228.195312 14.878906 228.019531 14.835938 227.8125 14.835938 C 227.613281 14.835938 227.429688 14.882812 227.265625 14.976562 C 227.109375 15.0625 226.96875 15.1875 226.84375 15.351562 C 226.726562 15.507812 226.640625 15.703125 226.578125 15.929688 C 226.515625 16.160156 226.484375 16.40625 226.484375 16.664062 L 226.484375 20.070312 L 224.84375 20.070312 L 224.84375 15.148438 C 224.84375 15.015625 224.835938 14.875 224.828125 14.726562 C 224.828125 14.582031 224.820312 14.445312 224.8125 14.320312 C 224.8125 14.1875 224.804688 14.066406 224.796875 13.960938 C 224.796875 13.859375 224.796875 13.78125 224.796875 13.726562 L 226.359375 13.726562 C 226.367188 13.78125 226.375 13.859375 226.375 13.960938 C 226.382812 14.066406 226.394531 14.179688 226.40625 14.304688 C 226.414062 14.429688 226.421875 14.554688 226.421875 14.679688 C 226.429688 14.804688 226.4375 14.910156 226.4375 14.992188 L 226.46875 14.992188 C 226.6875 14.503906 226.960938 14.148438 227.296875 13.929688 C 227.628906 13.710938 228.03125 13.601562 228.5 13.601562 C 228.882812 13.601562 229.207031 13.664062 229.46875 13.789062 C 229.726562 13.914062 229.941406 14.085938 230.109375 14.304688 C 230.273438 14.523438 230.394531 14.785156 230.46875 15.085938 C 230.550781 15.378906 230.59375 15.695312 230.59375 16.039062 L 230.59375 20.070312 Z M 234.5 22.617188 C 234.070312 22.617188 233.695312 22.574219 233.375 22.492188 C 233.0625 22.40625 232.789062 22.289062 232.5625 22.132812 C 232.34375 21.984375 232.164062 21.808594 232.03125 21.601562 C 231.894531 21.390625 231.800781 21.164062 231.75 20.914062 L 233.40625 20.710938 C 233.457031 20.96875 233.582031 21.167969 233.78125 21.304688 C 233.976562 21.449219 234.234375 21.523438 234.546875 21.523438 C 234.734375 21.523438 234.90625 21.496094 235.0625 21.445312 C 235.226562 21.390625 235.367188 21.296875 235.484375 21.164062 C 235.609375 21.039062 235.703125 20.867188 235.765625 20.648438 C 235.828125 20.4375 235.859375 20.171875 235.859375 19.851562 C 235.859375 19.75 235.859375 19.640625 235.859375 19.523438 C 235.859375 19.410156 235.859375 19.304688 235.859375 19.210938 C 235.867188 19.097656 235.875 18.992188 235.875 18.898438 L 235.859375 18.898438 C 235.671875 19.304688 235.398438 19.601562 235.046875 19.789062 C 234.703125 19.96875 234.289062 20.054688 233.8125 20.054688 C 233.414062 20.054688 233.070312 19.976562 232.78125 19.820312 C 232.488281 19.664062 232.242188 19.445312 232.046875 19.164062 C 231.859375 18.875 231.71875 18.535156 231.625 18.148438 C 231.539062 17.753906 231.5 17.320312 231.5 16.851562 C 231.5 16.363281 231.546875 15.921875 231.640625 15.523438 C 231.734375 15.128906 231.878906 14.789062 232.078125 14.507812 C 232.285156 14.21875 232.539062 13.992188 232.84375 13.835938 C 233.15625 13.679688 233.519531 13.601562 233.9375 13.601562 C 234.363281 13.601562 234.742188 13.695312 235.078125 13.882812 C 235.410156 14.0625 235.671875 14.347656 235.859375 14.742188 L 235.890625 14.742188 C 235.890625 14.671875 235.890625 14.582031 235.890625 14.476562 C 235.898438 14.363281 235.90625 14.257812 235.90625 14.164062 C 235.914062 14.0625 235.925781 13.972656 235.9375 13.898438 C 235.945312 13.816406 235.957031 13.757812 235.96875 13.726562 L 237.53125 13.726562 C 237.519531 13.875 237.507812 14.070312 237.5 14.320312 C 237.5 14.570312 237.5 14.863281 237.5 15.195312 L 237.5 19.882812 C 237.5 20.339844 237.429688 20.742188 237.296875 21.085938 C 237.160156 21.429688 236.960938 21.710938 236.703125 21.929688 C 236.453125 22.15625 236.140625 22.328125 235.765625 22.445312 C 235.390625 22.558594 234.96875 22.617188 234.5 22.617188 Z M 235.875 16.804688 C 235.875 16.410156 235.832031 16.082031 235.75 15.820312 C 235.675781 15.550781 235.578125 15.335938 235.453125 15.179688 C 235.328125 15.015625 235.179688 14.898438 235.015625 14.835938 C 234.859375 14.773438 234.695312 14.742188 234.53125 14.742188 C 234.320312 14.742188 234.132812 14.785156 233.96875 14.867188 C 233.800781 14.941406 233.660156 15.066406 233.546875 15.242188 C 233.441406 15.410156 233.359375 15.628906 233.296875 15.898438 C 233.234375 16.160156 233.203125 16.476562 233.203125 16.851562 C 233.203125 17.53125 233.3125 18.046875 233.53125 18.398438 C 233.75 18.742188 234.078125 18.914062 234.515625 18.914062 C 234.679688 18.914062 234.84375 18.882812 235 18.820312 C 235.164062 18.757812 235.3125 18.648438 235.4375 18.492188 C 235.570312 18.328125 235.675781 18.109375 235.75 17.835938 C 235.832031 17.566406 235.875 17.222656 235.875 16.804688 Z M 248 9.070312 L 249 9.070312 L 249 10.070312 L 248 10.070312 Z M 245 10.070312 L 246 10.070312 L 246 11.070312 L 245 11.070312 Z M 246 10.070312 L 247 10.070312 L 247 11.070312 L 246 11.070312 Z M 250 10.070312 L 251 10.070312 L 251 11.070312 L 250 11.070312 Z M 251 10.070312 L 252 10.070312 L 252 11.070312 L 251 11.070312 Z M 243 11.070312 L 244 11.070312 L 244 12.070312 L 243 12.070312 Z M 244 11.070312 L 245 11.070312 L 245 12.070312 L 244 12.070312 Z M 252 11.070312 L 253 11.070312 L 253 12.070312 L 252 12.070312 Z M 253 11.070312 L 254 11.070312 L 254 12.070312 L 253 12.070312 Z M 242 12.070312 L 243 12.070312 L 243 13.070312 L 242 13.070312 Z M 243 12.070312 L 244 12.070312 L 244 13.070312 L 243 13.070312 Z M 244 12.070312 L 245 12.070312 L 245 13.070312 L 244 13.070312 Z M 245 12.070312 L 246 12.070312 L 246 13.070312 L 245 13.070312 Z M 246 12.070312 L 247 12.070312 L 247 13.070312 L 246 13.070312 Z M 247 12.070312 L 248 12.070312 L 248 13.070312 L 247 13.070312 Z M 249 12.070312 L 250 12.070312 L 250 13.070312 L 249 13.070312 Z M 250 12.070312 L 251 12.070312 L 251 13.070312 L 250 13.070312 Z M 251 12.070312 L 252 12.070312 L 252 13.070312 L 251 13.070312 Z M 252 12.070312 L 253 12.070312 L 253 13.070312 L 252 13.070312 Z M 253 12.070312 L 254 12.070312 L 254 13.070312 L 253 13.070312 Z M 254 12.070312 L 255 12.070312 L 255 13.070312 L 254 13.070312 Z M 242 13.070312 L 243 13.070312 L 243 14.070312 L 242 14.070312 Z M 243 13.070312 L 244 13.070312 L 244 14.070312 L 243 14.070312 Z M 245 13.070312 L 246 13.070312 L 246 14.070312 L 245 14.070312 Z M 246 13.070312 L 247 13.070312 L 247 14.070312 L 246 14.070312 Z M 247 13.070312 L 248 13.070312 L 248 14.070312 L 247 14.070312 Z M 248 13.070312 L 249 13.070312 L 249 14.070312 L 248 14.070312 Z M 249 13.070312 L 250 13.070312 L 250 14.070312 L 249 14.070312 Z M 250 13.070312 L 251 13.070312 L 251 14.070312 L 250 14.070312 Z M 251 13.070312 L 252 13.070312 L 252 14.070312 L 251 14.070312 Z M 253 13.070312 L 254 13.070312 L 254 14.070312 L 253 14.070312 Z M 254 13.070312 L 255 13.070312 L 255 14.070312 L 254 14.070312 Z M 242 14.070312 L 243 14.070312 L 243 15.070312 L 242 15.070312 Z M 243 14.070312 L 244 14.070312 L 244 15.070312 L 243 15.070312 Z M 244 14.070312 L 245 14.070312 L 245 15.070312 L 244 15.070312 Z M 245 14.070312 L 246 14.070312 L 246 15.070312 L 245 15.070312 Z M 246 14.070312 L 247 14.070312 L 247 15.070312 L 246 15.070312 Z M 247 14.070312 L 248 14.070312 L 248 15.070312 L 247 15.070312 Z M 248 14.070312 L 249 14.070312 L 249 15.070312 L 248 15.070312 Z M 249 14.070312 L 250 14.070312 L 250 15.070312 L 249 15.070312 Z M 250 14.070312 L 251 14.070312 L 251 15.070312 L 250 15.070312 Z M 251 14.070312 L 252 14.070312 L 252 15.070312 L 251 15.070312 Z M 252 14.070312 L 253 14.070312 L 253 15.070312 L 252 15.070312 Z M 254 14.070312 L 255 14.070312 L 255 15.070312 L 254 15.070312 Z M 242 15.070312 L 243 15.070312 L 243 16.070312 L 242 16.070312 Z M 243 15.070312 L 244 15.070312 L 244 16.070312 L 243 16.070312 Z M 245 15.070312 L 246 15.070312 L 246 16.070312 L 245 16.070312 Z M 246 15.070312 L 247 15.070312 L 247 16.070312 L 246 16.070312 Z M 247 15.070312 L 248 15.070312 L 248 16.070312 L 247 16.070312 Z M 249 15.070312 L 250 15.070312 L 250 16.070312 L 249 16.070312 Z M 250 15.070312 L 251 15.070312 L 251 16.070312 L 250 16.070312 Z M 251 15.070312 L 252 15.070312 L 252 16.070312 L 251 16.070312 Z M 253 15.070312 L 254 15.070312 L 254 16.070312 L 253 16.070312 Z M 254 15.070312 L 255 15.070312 L 255 16.070312 L 254 16.070312 Z M 242 16.070312 L 243 16.070312 L 243 17.070312 L 242 17.070312 Z M 243 16.070312 L 244 16.070312 L 244 17.070312 L 243 17.070312 Z M 244 16.070312 L 245 16.070312 L 245 17.070312 L 244 17.070312 Z M 245 16.070312 L 246 16.070312 L 246 17.070312 L 245 17.070312 Z M 246 16.070312 L 247 16.070312 L 247 17.070312 L 246 17.070312 Z M 247 16.070312 L 248 16.070312 L 248 17.070312 L 247 17.070312 Z M 248 16.070312 L 249 16.070312 L 249 17.070312 L 248 17.070312 Z M 249 16.070312 L 250 16.070312 L 250 17.070312 L 249 17.070312 Z M 250 16.070312 L 251 16.070312 L 251 17.070312 L 250 17.070312 Z M 251 16.070312 L 252 16.070312 L 252 17.070312 L 251 17.070312 Z M 252 16.070312 L 253 16.070312 L 253 17.070312 L 252 17.070312 Z M 253 16.070312 L 254 16.070312 L 254 17.070312 L 253 17.070312 Z M 254 16.070312 L 255 16.070312 L 255 17.070312 L 254 17.070312 Z M 242 17.070312 L 243 17.070312 L 243 18.070312 L 242 18.070312 Z M 243 17.070312 L 244 17.070312 L 244 18.070312 L 243 18.070312 Z M 244 17.070312 L 245 17.070312 L 245 18.070312 L 244 18.070312 Z M 252 17.070312 L 253 17.070312 L 253 18.070312 L 252 18.070312 Z M 253 17.070312 L 254 17.070312 L 254 18.070312 L 253 18.070312 Z M 254 17.070312 L 255 17.070312 L 255 18.070312 L 254 18.070312 Z M 242 18.070312 L 243 18.070312 L 243 19.070312 L 242 19.070312 Z M 243 18.070312 L 244 18.070312 L 244 19.070312 L 243 19.070312 Z M 244 18.070312 L 245 18.070312 L 245 19.070312 L 244 19.070312 Z M 245 18.070312 L 246 18.070312 L 246 19.070312 L 245 19.070312 Z M 246 18.070312 L 247 18.070312 L 247 19.070312 L 246 19.070312 Z M 247 18.070312 L 248 18.070312 L 248 19.070312 L 247 19.070312 Z M 248 18.070312 L 249 18.070312 L 249 19.070312 L 248 19.070312 Z M 249 18.070312 L 250 18.070312 L 250 19.070312 L 249 19.070312 Z M 250 18.070312 L 251 18.070312 L 251 19.070312 L 250 19.070312 Z M 251 18.070312 L 252 18.070312 L 252 19.070312 L 251 19.070312 Z M 252 18.070312 L 253 18.070312 L 253 19.070312 L 252 19.070312 Z M 253 18.070312 L 254 18.070312 L 254 19.070312 L 253 19.070312 Z M 254 18.070312 L 255 18.070312 L 255 19.070312 L 254 19.070312 Z M 243 19.070312 L 244 19.070312 L 244 20.070312 L 243 20.070312 Z M 244 19.070312 L 245 19.070312 L 245 20.070312 L 244 20.070312 Z M 245 19.070312 L 246 19.070312 L 246 20.070312 L 245 20.070312 Z M 246 19.070312 L 247 19.070312 L 247 20.070312 L 246 20.070312 Z M 247 19.070312 L 248 19.070312 L 248 20.070312 L 247 20.070312 Z M 248 19.070312 L 249 19.070312 L 249 20.070312 L 248 20.070312 Z M 249 19.070312 L 250 19.070312 L 250 20.070312 L 249 20.070312 Z M 250 19.070312 L 251 19.070312 L 251 20.070312 L 250 20.070312 Z M 251 19.070312 L 252 19.070312 L 252 20.070312 L 251 20.070312 Z M 252 19.070312 L 253 19.070312 L 253 20.070312 L 252 20.070312 Z M 253 19.070312 L 254 19.070312 L 254 20.070312 L 253 20.070312 Z M 244 20.070312 L 245 20.070312 L 245 21.070312 L 244 21.070312 Z M 245 20.070312 L 246 20.070312 L 246 21.070312 L 245 21.070312 Z M 246 20.070312 L 247 20.070312 L 247 21.070312 L 246 21.070312 Z M 247 20.070312 L 248 20.070312 L 248 21.070312 L 247 21.070312 Z M 248 20.070312 L 249 20.070312 L 249 21.070312 L 248 21.070312 Z M 249 20.070312 L 250 20.070312 L 250 21.070312 L 249 21.070312 Z M 250 20.070312 L 251 20.070312 L 251 21.070312 L 250 21.070312 Z M 251 20.070312 L 252 20.070312 L 252 21.070312 L 251 21.070312 Z M 252 20.070312 L 253 20.070312 L 253 21.070312 L 252 21.070312 Z M 245 21.070312 L 246 21.070312 L 246 22.070312 L 245 22.070312 Z M 246 21.070312 L 247 21.070312 L 247 22.070312 L 246 22.070312 Z M 247 21.070312 L 248 21.070312 L 248 22.070312 L 247 22.070312 Z M 248 21.070312 L 249 21.070312 L 249 22.070312 L 248 22.070312 Z M 249 21.070312 L 250 21.070312 L 250 22.070312 L 249 22.070312 Z M 250 21.070312 L 251 21.070312 L 251 22.070312 L 250 22.070312 Z M 251 21.070312 L 252 21.070312 L 252 22.070312 L 251 22.070312 Z M 198 8.953125 "/>
<path style="fill-rule:nonzero;fill:rgb(12.54902%,36.862745%,44.313725%);fill-opacity:1;stroke-width:2;stroke-linecap:butt;stroke-linejoin:miter;stroke:rgb(100%,100%,100%);stroke-opacity:1;stroke-miterlimit:10;" d="M 266 10 L 306 10 L 306 22 L 266 22 Z M 266 10 "/>
<path style=" stroke:none;fill-rule:nonzero;fill:rgb(40%,40%,40%);fill-opacity:1;" d="M 312.796875 20.070312 L 312.796875 11.820312 L 319.296875 11.820312 L 319.296875 13.148438 L 314.53125 13.148438 L 314.53125 15.226562 L 318.9375 15.226562 L 318.9375 16.554688 L 314.53125 16.554688 L 314.53125 18.726562 L 319.53125 18.726562 L 319.53125 20.070312 Z M 322.296875 20.195312 C 321.992188 20.195312 321.722656 20.152344 321.484375 20.070312 C 321.242188 19.976562 321.039062 19.851562 320.875 19.695312 C 320.707031 19.53125 320.578125 19.328125 320.484375 19.085938 C 320.398438 18.847656 320.359375 18.578125 320.359375 18.273438 C 320.359375 17.898438 320.421875 17.585938 320.546875 17.335938 C 320.679688 17.078125 320.859375 16.867188 321.078125 16.710938 C 321.304688 16.554688 321.570312 16.441406 321.875 16.367188 C 322.1875 16.296875 322.515625 16.253906 322.859375 16.242188 L 324.21875 16.226562 L 324.21875 15.898438 C 324.21875 15.671875 324.195312 15.484375 324.15625 15.335938 C 324.113281 15.179688 324.050781 15.054688 323.96875 14.960938 C 323.894531 14.859375 323.800781 14.785156 323.6875 14.742188 C 323.570312 14.703125 323.441406 14.679688 323.296875 14.679688 C 323.160156 14.679688 323.035156 14.695312 322.921875 14.726562 C 322.816406 14.75 322.722656 14.796875 322.640625 14.867188 C 322.566406 14.929688 322.503906 15.019531 322.453125 15.132812 C 322.410156 15.25 322.378906 15.394531 322.359375 15.570312 L 320.640625 15.492188 C 320.679688 15.210938 320.765625 14.960938 320.890625 14.742188 C 321.015625 14.515625 321.1875 14.316406 321.40625 14.148438 C 321.632812 13.972656 321.910156 13.84375 322.234375 13.757812 C 322.554688 13.664062 322.929688 13.617188 323.359375 13.617188 C 323.753906 13.617188 324.101562 13.664062 324.40625 13.757812 C 324.71875 13.851562 324.984375 14 325.203125 14.195312 C 325.421875 14.394531 325.582031 14.632812 325.6875 14.914062 C 325.800781 15.195312 325.859375 15.519531 325.859375 15.882812 L 325.859375 18.195312 C 325.859375 18.34375 325.863281 18.476562 325.875 18.601562 C 325.894531 18.71875 325.921875 18.816406 325.953125 18.898438 C 325.992188 18.972656 326.046875 19.03125 326.109375 19.070312 C 326.179688 19.113281 326.273438 19.132812 326.390625 19.132812 C 326.515625 19.132812 326.632812 19.125 326.75 19.101562 L 326.75 19.992188 C 326.65625 20.015625 326.566406 20.035156 326.484375 20.054688 C 326.410156 20.074219 326.332031 20.089844 326.25 20.101562 C 326.175781 20.109375 326.09375 20.121094 326 20.132812 C 325.914062 20.140625 325.816406 20.148438 325.703125 20.148438 C 325.285156 20.148438 324.976562 20.046875 324.78125 19.835938 C 324.582031 19.628906 324.460938 19.332031 324.421875 18.945312 L 324.390625 18.945312 C 324.171875 19.332031 323.890625 19.640625 323.546875 19.867188 C 323.203125 20.085938 322.785156 20.195312 322.296875 20.195312 Z M 324.21875 17.132812 L 323.375 17.148438 C 323.195312 17.160156 323.03125 17.175781 322.875 17.195312 C 322.71875 17.21875 322.578125 17.265625 322.453125 17.335938 C 322.335938 17.398438 322.242188 17.5 322.171875 17.632812 C 322.097656 17.757812 322.0625 17.929688 322.0625 18.148438 C 322.0625 18.453125 322.128906 18.675781 322.265625 18.820312 C 322.410156 18.96875 322.597656 19.039062 322.828125 19.039062 C 323.035156 19.039062 323.222656 19 323.390625 18.914062 C 323.566406 18.820312 323.710938 18.703125 323.828125 18.554688 C 323.953125 18.410156 324.046875 18.242188 324.109375 18.054688 C 324.179688 17.859375 324.21875 17.660156 324.21875 17.460938 Z M 329.46875 20.179688 C 328.976562 20.179688 328.601562 20.050781 328.34375 19.789062 C 328.082031 19.519531 327.953125 19.117188 327.953125 18.585938 L 327.953125 14.835938 L 327.140625 14.835938 L 327.140625 13.726562 L 328.03125 13.726562 L 328.546875 12.242188 L 329.578125 12.242188 L 329.578125 13.726562 L 330.78125 13.726562 L 330.78125 14.835938 L 329.578125 14.835938 L 329.578125 18.132812 C 329.578125 18.445312 329.632812 18.675781 329.75 18.820312 C 329.875 18.96875 330.054688 19.039062 330.296875 19.039062 C 330.398438 19.039062 330.492188 19.035156 330.578125 19.023438 C 330.660156 19.003906 330.75 18.984375 330.84375 18.960938 L 330.84375 19.976562 C 330.644531 20.039062 330.429688 20.085938 330.203125 20.117188 C 329.972656 20.15625 329.726562 20.179688 329.46875 20.179688 Z M 331.84375 12.585938 L 331.84375 11.367188 L 333.484375 11.367188 L 333.484375 12.585938 Z M 331.84375 20.070312 L 331.84375 13.726562 L 333.484375 13.726562 L 333.484375 20.070312 Z M 338.953125 20.070312 L 338.953125 16.507812 C 338.953125 16.269531 338.929688 16.046875 338.890625 15.835938 C 338.847656 15.628906 338.78125 15.453125 338.6875 15.304688 C 338.601562 15.160156 338.488281 15.046875 338.34375 14.960938 C 338.195312 14.878906 338.019531 14.835938 337.8125 14.835938 C 337.613281 14.835938 337.429688 14.882812 337.265625 14.976562 C 337.109375 15.0625 336.96875 15.1875 336.84375 15.351562 C 336.726562 15.507812 336.640625 15.703125 336.578125 15.929688 C 336.515625 16.160156 336.484375 16.40625 336.484375 16.664062 L 336.484375 20.070312 L 334.84375 20.070312 L 334.84375 15.148438 C 334.84375 15.015625 334.835938 14.875 334.828125 14.726562 C 334.828125 14.582031 334.820312 14.445312 334.8125 14.320312 C 334.8125 14.1875 334.804688 14.066406 334.796875 13.960938 C 334.796875 13.859375 334.796875 13.78125 334.796875 13.726562 L 336.359375 13.726562 C 336.367188 13.78125 336.375 13.859375 336.375 13.960938 C 336.382812 14.066406 336.394531 14.179688 336.40625 14.304688 C 336.414062 14.429688 336.421875 14.554688 336.421875 14.679688 C 336.429688 14.804688 336.4375 14.910156 336.4375 14.992188 L 336.46875 14.992188 C 336.6875 14.503906 336.960938 14.148438 337.296875 13.929688 C 337.628906 13.710938 338.03125 13.601562 338.5 13.601562 C 338.882812 13.601562 339.207031 13.664062 339.46875 13.789062 C 339.726562 13.914062 339.941406 14.085938 340.109375 14.304688 C 340.273438 14.523438 340.394531 14.785156 340.46875 15.085938 C 340.550781 15.378906 340.59375 15.695312 340.59375 16.039062 L 340.59375 20.070312 Z M 344.5 22.617188 C 344.070312 22.617188 343.695312 22.574219 343.375 22.492188 C 343.0625 22.40625 342.789062 22.289062 342.5625 22.132812 C 342.34375 21.984375 342.164062 21.808594 342.03125 21.601562 C 341.894531 21.390625 341.800781 21.164062 341.75 20.914062 L 343.40625 20.710938 C 343.457031 20.96875 343.582031 21.167969 343.78125 21.304688 C 343.976562 21.449219 344.234375 21.523438 344.546875 21.523438 C 344.734375 21.523438 344.90625 21.496094 345.0625 21.445312 C 345.226562 21.390625 345.367188 21.296875 345.484375 21.164062 C 345.609375 21.039062 345.703125 20.867188 345.765625 20.648438 C 345.828125 20.4375 345.859375 20.171875 345.859375 19.851562 C 345.859375 19.75 345.859375 19.640625 345.859375 19.523438 C 345.859375 19.410156 345.859375 19.304688 345.859375 19.210938 C 345.867188 19.097656 345.875 18.992188 345.875 18.898438 L 345.859375 18.898438 C 345.671875 19.304688 345.398438 19.601562 345.046875 19.789062 C 344.703125 19.96875 344.289062 20.054688 343.8125 20.054688 C 343.414062 20.054688 343.070312 19.976562 342.78125 19.820312 C 342.488281 19.664062 342.242188 19.445312 342.046875 19.164062 C 341.859375 18.875 341.71875 18.535156 341.625 18.148438 C 341.539062 17.753906 341.5 17.320312 341.5 16.851562 C 341.5 16.363281 341.546875 15.921875 341.640625 15.523438 C 341.734375 15.128906 341.878906 14.789062 342.078125 14.507812 C 342.285156 14.21875 342.539062 13.992188 342.84375 13.835938 C 343.15625 13.679688 343.519531 13.601562 343.9375 13.601562 C 344.363281 13.601562 344.742188 13.695312 345.078125 13.882812 C 345.410156 14.0625 345.671875 14.347656 345.859375 14.742188 L 345.890625 14.742188 C 345.890625 14.671875 345.890625 14.582031 345.890625 14.476562 C 345.898438 14.363281 345.90625 14.257812 345.90625 14.164062 C 345.914062 14.0625 345.925781 13.972656 345.9375 13.898438 C 345.945312 13.816406 345.957031 13.757812 345.96875 13.726562 L 347.53125 13.726562 C 347.519531 13.875 347.507812 14.070312 347.5 14.320312 C 347.5 14.570312 347.5 14.863281 347.5 15.195312 L 347.5 19.882812 C 347.5 20.339844 347.429688 20.742188 347.296875 21.085938 C 347.160156 21.429688 346.960938 21.710938 346.703125 21.929688 C 346.453125 22.15625 346.140625 22.328125 345.765625 22.445312 C 345.390625 22.558594 344.96875 22.617188 344.5 22.617188 Z M 345.875 16.804688 C 345.875 16.410156 345.832031 16.082031 345.75 15.820312 C 345.675781 15.550781 345.578125 15.335938 345.453125 15.179688 C 345.328125 15.015625 345.179688 14.898438 345.015625 14.835938 C 344.859375 14.773438 344.695312 14.742188 344.53125 14.742188 C 344.320312 14.742188 344.132812 14.785156 343.96875 14.867188 C 343.800781 14.941406 343.660156 15.066406 343.546875 15.242188 C 343.441406 15.410156 343.359375 15.628906 343.296875 15.898438 C 343.234375 16.160156 343.203125 16.476562 343.203125 16.851562 C 343.203125 17.53125 343.3125 18.046875 343.53125 18.398438 C 343.75 18.742188 344.078125 18.914062 344.515625 18.914062 C 344.679688 18.914062 344.84375 18.882812 345 18.820312 C 345.164062 18.757812 345.3125 18.648438 345.4375 18.492188 C 345.570312 18.328125 345.675781 18.109375 345.75 17.835938 C 345.832031 17.566406 345.875 17.222656 345.875 16.804688 Z M 359 9.070312 L 360 9.070312 L 360 10.070312 L 359 10.070312 Z M 357 10.070312 L 358 10.070312 L 358 11.070312 L 357 11.070312 Z M 358 10.070312 L 359 10.070312 L 359 11.070312 L 358 11.070312 Z M 359 10.070312 L 360 10.070312 L 360 11.070312 L 359 11.070312 Z M 355 11.070312 L 356 11.070312 L 356 12.070312 L 355 12.070312 Z M 356 11.070312 L 357 11.070312 L 357 12.070312 L 356 12.070312 Z M 357 11.070312 L 358 11.070312 L 358 12.070312 L 357 12.070312 Z M 358 11.070312 L 359 11.070312 L 359 12.070312 L 358 12.070312 Z M 359 11.070312 L 360 11.070312 L 360 12.070312 L 359 12.070312 Z M 360 11.070312 L 361 11.070312 L 361 12.070312 L 360 12.070312 Z M 354 12.070312 L 355 12.070312 L 355 13.070312 L 354 13.070312 Z M 355 12.070312 L 356 12.070312 L 356 13.070312 L 355 13.070312 Z M 356 12.070312 L 357 12.070312 L 357 13.070312 L 356 13.070312 Z M 357 12.070312 L 358 12.070312 L 358 13.070312 L 357 13.070312 Z M 358 12.070312 L 359 12.070312 L 359 13.070312 L 358 13.070312 Z M 359 12.070312 L 360 12.070312 L 360 13.070312 L 359 13.070312 Z M 360 12.070312 L 361 12.070312 L 361 13.070312 L 360 13.070312 Z M 354 13.070312 L 355 13.070312 L 355 14.070312 L 354 14.070312 Z M 355 13.070312 L 356 13.070312 L 356 14.070312 L 355 14.070312 Z M 356 13.070312 L 357 13.070312 L 357 14.070312 L 356 14.070312 Z M 357 13.070312 L 358 13.070312 L 358 14.070312 L 357 14.070312 Z M 358 13.070312 L 359 13.070312 L 359 14.070312 L 358 14.070312 Z M 359 13.070312 L 360 13.070312 L 360 14.070312 L 359 14.070312 Z M 360 13.070312 L 361 13.070312 L 361 14.070312 L 360 14.070312 Z M 353 14.070312 L 354 14.070312 L 354 15.070312 L 353 15.070312 Z M 354 14.070312 L 355 14.070312 L 355 15.070312 L 354 15.070312 Z M 355 14.070312 L 356 14.070312 L 356 15.070312 L 355 15.070312 Z M 356 14.070312 L 357 14.070312 L 357 15.070312 L 356 15.070312 Z M 357 14.070312 L 358 14.070312 L 358 15.070312 L 357 15.070312 Z M 358 14.070312 L 359 14.070312 L 359 15.070312 L 358 15.070312 Z M 359 14.070312 L 360 14.070312 L 360 15.070312 L 359 15.070312 Z M 360 14.070312 L 361 14.070312 L 361 15.070312 L 360 15.070312 Z M 353 15.070312 L 354 15.070312 L 354 16.070312 L 353 16.070312 Z M 354 15.070312 L 355 15.070312 L 355 16.070312 L 354 16.070312 Z M 355 15.070312 L 356 15.070312 L 356 16.070312 L 355 16.070312 Z M 356 15.070312 L 357 15.070312 L 357 16.070312 L 356 16.070312 Z M 357 15.070312 L 358 15.070312 L 358 16.070312 L 357 16.070312 Z M 358 15.070312 L 359 15.070312 L 359 16.070312 L 358 16.070312 Z M 359 15.070312 L 360 15.070312 L 360 16.070312 L 359 16.070312 Z M 360 15.070312 L 361 15.070312 L 361 16.070312 L 360 16.070312 Z M 361 15.070312 L 362 15.070312 L 362 16.070312 L 361 16.070312 Z M 354 16.070312 L 355 16.070312 L 355 17.070312 L 354 17.070312 Z M 355 16.070312 L 356 16.070312 L 356 17.070312 L 355 17.070312 Z M 356 16.070312 L 357 16.070312 L 357 17.070312 L 356 17.070312 Z M 357 16.070312 L 358 16.070312 L 358 17.070312 L 357 17.070312 Z M 358 16.070312 L 359 16.070312 L 359 17.070312 L 358 17.070312 Z M 359 16.070312 L 360 16.070312 L 360 17.070312 L 359 17.070312 Z M 360 16.070312 L 361 16.070312 L 361 17.070312 L 360 17.070312 Z M 361 16.070312 L 362 16.070312 L 362 17.070312 L 361 17.070312 Z M 355 17.070312 L 356 17.070312 L 356 18.070312 L 355 18.070312 Z M 356 17.070312 L 357 17.070312 L 357 18.070312 L 356 18.070312 Z M 357 17.070312 L 358 17.070312 L 358 18.070312 L 357 18.070312 Z M 358 17.070312 L 359 17.070312 L 359 18.070312 L 358 18.070312 Z M 359 17.070312 L 360 17.070312 L 360 18.070312 L 359 18.070312 Z M 361 17.070312 L 362 17.070312 L 362 18.070312 L 361 18.070312 Z M 362 17.070312 L 363 17.070312 L 363 18.070312 L 362 18.070312 Z M 357 18.070312 L 358 18.070312 L 358 19.070312 L 357 19.070312 Z M 358 18.070312 L 359 18.070312 L 359 19.070312 L 358 19.070312 Z M 359 18.070312 L 360 18.070312 L 360 19.070312 L 359 19.070312 Z M 360 18.070312 L 361 18.070312 L 361 19.070312 L 360 19.070312 Z M 361 18.070312 L 362 18.070312 L 362 19.070312 L 361 19.070312 Z M 362 18.070312 L 363 18.070312 L 363 19.070312 L 362 19.070312 Z M 359 19.070312 L 360 19.070312 L 360 20.070312 L 359 20.070312 Z M 360 19.070312 L 361 19.070312 L 361 20.070312 L 360 20.070312 Z M 361 19.070312 L 362 19.070312 L 362 20.070312 L 361 20.070312 Z M 362 19.070312 L 363 19.070312 L 363 20.070312 L 362 20.070312 Z M 363 19.070312 L 364 19.070312 L 364 20.070312 L 363 20.070312 Z M 361 20.070312 L 362 20.070312 L 362 21.070312 L 361 21.070312 Z M 363 20.070312 L 364 20.070312 L 364 21.070312 L 363 21.070312 Z M 363 21.070312 L 364 21.070312 L 364 22.070312 L 363 22.070312 Z M 312 8.953125 "/>
<path style="fill-rule:nonzero;fill:rgb(39.215686%,90.980392%,23.529412%);fill-opacity:1;stroke-width:2;stroke-linecap:butt;stroke-linejoin:miter;stroke:rgb(100%,100%,100%);stroke-opacity:1;stroke-miterlimit:10;" d="M 144.5 32 L 184.5 32 L 184.5 44 L 144.5 44 Z M 144.5 32 "/>
<path style=" stroke:none;fill-rule:nonzero;fill:rgb(40%,40%,40%);fill-opacity:1;" d="M 196.96875 42.070312 L 195.0625 38.929688 L 193.03125 38.929688 L 193.03125 42.070312 L 191.296875 42.070312 L 191.296875 33.820312 L 195.421875 33.820312 C 195.941406 33.820312 196.394531 33.878906 196.78125 33.992188 C 197.164062 34.109375 197.484375 34.273438 197.734375 34.492188 C 197.992188 34.703125 198.1875 34.957031 198.3125 35.257812 C 198.445312 35.5625 198.515625 35.898438 198.515625 36.273438 C 198.515625 36.585938 198.46875 36.875 198.375 37.132812 C 198.28125 37.382812 198.148438 37.609375 197.984375 37.804688 C 197.828125 38.003906 197.632812 38.171875 197.40625 38.304688 C 197.1875 38.441406 196.945312 38.539062 196.6875 38.601562 L 198.921875 42.070312 Z M 196.765625 36.351562 C 196.765625 35.945312 196.632812 35.644531 196.375 35.445312 C 196.113281 35.25 195.738281 35.148438 195.25 35.148438 L 193.03125 35.148438 L 193.03125 37.585938 L 195.296875 37.585938 C 195.554688 37.585938 195.773438 37.5625 195.953125 37.507812 C 196.140625 37.445312 196.289062 37.359375 196.40625 37.242188 C 196.53125 37.128906 196.617188 37 196.671875 36.851562 C 196.734375 36.695312 196.765625 36.53125 196.765625 36.351562 Z M 202.9375 42.195312 C 202.476562 42.195312 202.066406 42.125 201.703125 41.992188 C 201.335938 41.859375 201.023438 41.65625 200.765625 41.382812 C 200.503906 41.101562 200.304688 40.753906 200.171875 40.335938 C 200.035156 39.921875 199.96875 39.429688 199.96875 38.867188 C 199.96875 38.265625 200.046875 37.757812 200.203125 37.351562 C 200.367188 36.9375 200.585938 36.597656 200.859375 36.335938 C 201.140625 36.078125 201.457031 35.894531 201.8125 35.789062 C 202.175781 35.675781 202.554688 35.617188 202.953125 35.617188 C 203.453125 35.617188 203.878906 35.707031 204.234375 35.882812 C 204.585938 36.050781 204.878906 36.289062 205.109375 36.601562 C 205.335938 36.914062 205.503906 37.289062 205.609375 37.726562 C 205.710938 38.164062 205.765625 38.644531 205.765625 39.164062 L 205.765625 39.210938 L 201.703125 39.210938 C 201.703125 39.484375 201.722656 39.734375 201.765625 39.960938 C 201.816406 40.191406 201.894531 40.390625 202 40.554688 C 202.101562 40.722656 202.238281 40.851562 202.40625 40.945312 C 202.570312 41.039062 202.773438 41.085938 203.015625 41.085938 C 203.304688 41.085938 203.539062 41.023438 203.71875 40.898438 C 203.90625 40.773438 204.039062 40.585938 204.125 40.335938 L 205.671875 40.460938 C 205.597656 40.640625 205.5 40.832031 205.375 41.039062 C 205.25 41.238281 205.078125 41.425781 204.859375 41.601562 C 204.648438 41.769531 204.390625 41.910156 204.078125 42.023438 C 203.765625 42.136719 203.382812 42.195312 202.9375 42.195312 Z M 202.9375 36.648438 C 202.769531 36.648438 202.613281 36.679688 202.46875 36.742188 C 202.320312 36.796875 202.191406 36.882812 202.078125 37.007812 C 201.972656 37.132812 201.882812 37.296875 201.8125 37.492188 C 201.75 37.679688 201.710938 37.910156 201.703125 38.179688 L 204.171875 38.179688 C 204.140625 37.671875 204.015625 37.289062 203.796875 37.039062 C 203.585938 36.78125 203.300781 36.648438 202.9375 36.648438 Z M 208.796875 42.195312 C 208.492188 42.195312 208.222656 42.152344 207.984375 42.070312 C 207.742188 41.976562 207.539062 41.851562 207.375 41.695312 C 207.207031 41.53125 207.078125 41.328125 206.984375 41.085938 C 206.898438 40.847656 206.859375 40.578125 206.859375 40.273438 C 206.859375 39.898438 206.921875 39.585938 207.046875 39.335938 C 207.179688 39.078125 207.359375 38.867188 207.578125 38.710938 C 207.804688 38.554688 208.070312 38.441406 208.375 38.367188 C 208.6875 38.296875 209.015625 38.253906 209.359375 38.242188 L 210.71875 38.226562 L 210.71875 37.898438 C 210.71875 37.671875 210.695312 37.484375 210.65625 37.335938 C 210.613281 37.179688 210.550781 37.054688 210.46875 36.960938 C 210.394531 36.859375 210.300781 36.785156 210.1875 36.742188 C 210.070312 36.703125 209.941406 36.679688 209.796875 36.679688 C 209.660156 36.679688 209.535156 36.695312 209.421875 36.726562 C 209.316406 36.75 209.222656 36.796875 209.140625 36.867188 C 209.066406 36.929688 209.003906 37.019531 208.953125 37.132812 C 208.910156 37.25 208.878906 37.394531 208.859375 37.570312 L 207.140625 37.492188 C 207.179688 37.210938 207.265625 36.960938 207.390625 36.742188 C 207.515625 36.515625 207.6875 36.316406 207.90625 36.148438 C 208.132812 35.972656 208.410156 35.84375 208.734375 35.757812 C 209.054688 35.664062 209.429688 35.617188 209.859375 35.617188 C 210.253906 35.617188 210.601562 35.664062 210.90625 35.757812 C 211.21875 35.851562 211.484375 36 211.703125 36.195312 C 211.921875 36.394531 212.082031 36.632812 212.1875 36.914062 C 212.300781 37.195312 212.359375 37.519531 212.359375 37.882812 L 212.359375 40.195312 C 212.359375 40.34375 212.363281 40.476562 212.375 40.601562 C 212.394531 40.71875 212.421875 40.816406 212.453125 40.898438 C 212.492188 40.972656 212.546875 41.03125 212.609375 41.070312 C 212.679688 41.113281 212.773438 41.132812 212.890625 41.132812 C 213.015625 41.132812 213.132812 41.125 213.25 41.101562 L 213.25 41.992188 C 213.15625 42.015625 213.066406 42.035156 212.984375 42.054688 C 212.910156 42.074219 212.832031 42.089844 212.75 42.101562 C 212.675781 42.109375 212.59375 42.121094 212.5 42.132812 C 212.414062 42.140625 212.316406 42.148438 212.203125 42.148438 C 211.785156 42.148438 211.476562 42.046875 211.28125 41.835938 C 211.082031 41.628906 210.960938 41.332031 210.921875 40.945312 L 210.890625 40.945312 C 210.671875 41.332031 210.390625 41.640625 210.046875 41.867188 C 209.703125 42.085938 209.285156 42.195312 208.796875 42.195312 Z M 210.71875 39.132812 L 209.875 39.148438 C 209.695312 39.160156 209.53125 39.175781 209.375 39.195312 C 209.21875 39.21875 209.078125 39.265625 208.953125 39.335938 C 208.835938 39.398438 208.742188 39.5 208.671875 39.632812 C 208.597656 39.757812 208.5625 39.929688 208.5625 40.148438 C 208.5625 40.453125 208.628906 40.675781 208.765625 40.820312 C 208.910156 40.96875 209.097656 41.039062 209.328125 41.039062 C 209.535156 41.039062 209.722656 41 209.890625 40.914062 C 210.066406 40.820312 210.210938 40.703125 210.328125 40.554688 C 210.453125 40.410156 210.546875 40.242188 210.609375 40.054688 C 210.679688 39.859375 210.71875 39.660156 210.71875 39.460938 Z M 218.453125 42.070312 C 218.441406 42.039062 218.429688 41.988281 218.421875 41.914062 C 218.410156 41.832031 218.398438 41.738281 218.390625 41.632812 C 218.378906 41.53125 218.367188 41.425781 218.359375 41.320312 C 218.359375 41.21875 218.359375 41.125 218.359375 41.039062 L 218.328125 41.039062 C 218.140625 41.445312 217.875 41.742188 217.53125 41.929688 C 217.1875 42.105469 216.78125 42.195312 216.3125 42.195312 C 215.90625 42.195312 215.554688 42.109375 215.265625 41.945312 C 214.984375 41.78125 214.742188 41.550781 214.546875 41.257812 C 214.359375 40.96875 214.21875 40.625 214.125 40.226562 C 214.039062 39.820312 214 39.378906 214 38.898438 C 214 38.421875 214.046875 37.984375 214.140625 37.585938 C 214.234375 37.179688 214.378906 36.832031 214.578125 36.539062 C 214.773438 36.25 215.023438 36.023438 215.328125 35.867188 C 215.640625 35.703125 216.007812 35.617188 216.4375 35.617188 C 216.632812 35.617188 216.828125 35.640625 217.015625 35.679688 C 217.210938 35.722656 217.394531 35.789062 217.5625 35.882812 C 217.726562 35.96875 217.875 36.082031 218 36.226562 C 218.132812 36.363281 218.25 36.53125 218.34375 36.726562 L 218.359375 36.726562 C 218.359375 36.695312 218.359375 36.644531 218.359375 36.570312 C 218.359375 36.488281 218.359375 36.398438 218.359375 36.304688 C 218.359375 36.203125 218.351562 36.097656 218.34375 35.992188 C 218.34375 35.890625 218.34375 35.789062 218.34375 35.695312 L 218.34375 33.367188 L 220 33.367188 L 220 40.679688 C 220 40.992188 220.003906 41.269531 220.015625 41.507812 C 220.023438 41.75 220.035156 41.9375 220.046875 42.070312 Z M 218.375 38.867188 C 218.375 38.453125 218.332031 38.109375 218.25 37.835938 C 218.175781 37.554688 218.070312 37.335938 217.9375 37.179688 C 217.8125 37.015625 217.664062 36.898438 217.5 36.835938 C 217.34375 36.765625 217.179688 36.726562 217.015625 36.726562 C 216.804688 36.726562 216.617188 36.769531 216.453125 36.851562 C 216.296875 36.9375 216.160156 37.066406 216.046875 37.242188 C 215.929688 37.421875 215.84375 37.644531 215.78125 37.914062 C 215.726562 38.1875 215.703125 38.515625 215.703125 38.898438 C 215.703125 40.335938 216.132812 41.054688 217 41.054688 C 217.164062 41.054688 217.332031 41.023438 217.5 40.960938 C 217.664062 40.890625 217.8125 40.769531 217.9375 40.601562 C 218.0625 40.4375 218.164062 40.210938 218.25 39.929688 C 218.332031 39.640625 218.375 39.285156 218.375 38.867188 Z M 221.34375 34.585938 L 221.34375 33.367188 L 222.984375 33.367188 L 222.984375 34.585938 Z M 221.34375 42.070312 L 221.34375 35.726562 L 222.984375 35.726562 L 222.984375 42.070312 Z M 228.453125 42.070312 L 228.453125 38.507812 C 228.453125 38.269531 228.429688 38.046875 228.390625 37.835938 C 228.347656 37.628906 228.28125 37.453125 228.1875 37.304688 C 228.101562 37.160156 227.988281 37.046875 227.84375 36.960938 C 227.695312 36.878906 227.519531 36.835938 227.3125 36.835938 C 227.113281 36.835938 226.929688 36.882812 226.765625 36.976562 C 226.609375 37.0625 226.46875 37.1875 226.34375 37.351562 C 226.226562 37.507812 226.140625 37.703125 226.078125 37.929688 C 226.015625 38.160156 225.984375 38.40625 225.984375 38.664062 L 225.984375 42.070312 L 224.34375 42.070312 L 224.34375 37.148438 C 224.34375 37.015625 224.335938 36.875 224.328125 36.726562 C 224.328125 36.582031 224.320312 36.445312 224.3125 36.320312 C 224.3125 36.1875 224.304688 36.066406 224.296875 35.960938 C 224.296875 35.859375 224.296875 35.78125 224.296875 35.726562 L 225.859375 35.726562 C 225.867188 35.78125 225.875 35.859375 225.875 35.960938 C 225.882812 36.066406 225.894531 36.179688 225.90625 36.304688 C 225.914062 36.429688 225.921875 36.554688 225.921875 36.679688 C 225.929688 36.804688 225.9375 36.910156 225.9375 36.992188 L 225.96875 36.992188 C 226.1875 36.503906 226.460938 36.148438 226.796875 35.929688 C 227.128906 35.710938 227.53125 35.601562 228 35.601562 C 228.382812 35.601562 228.707031 35.664062 228.96875 35.789062 C 229.226562 35.914062 229.441406 36.085938 229.609375 36.304688 C 229.773438 36.523438 229.894531 36.785156 229.96875 37.085938 C 230.050781 37.378906 230.09375 37.695312 230.09375 38.039062 L 230.09375 42.070312 Z M 234 44.617188 C 233.570312 44.617188 233.195312 44.574219 232.875 44.492188 C 232.5625 44.40625 232.289062 44.289062 232.0625 44.132812 C 231.84375 43.984375 231.664062 43.808594 231.53125 43.601562 C 231.394531 43.390625 231.300781 43.164062 231.25 42.914062 L 232.90625 42.710938 C 232.957031 42.96875 233.082031 43.167969 233.28125 43.304688 C 233.476562 43.449219 233.734375 43.523438 234.046875 43.523438 C 234.234375 43.523438 234.40625 43.496094 234.5625 43.445312 C 234.726562 43.390625 234.867188 43.296875 234.984375 43.164062 C 235.109375 43.039062 235.203125 42.867188 235.265625 42.648438 C 235.328125 42.4375 235.359375 42.171875 235.359375 41.851562 C 235.359375 41.75 235.359375 41.640625 235.359375 41.523438 C 235.359375 41.410156 235.359375 41.304688 235.359375 41.210938 C 235.367188 41.097656 235.375 40.992188 235.375 40.898438 L 235.359375 40.898438 C 235.171875 41.304688 234.898438 41.601562 234.546875 41.789062 C 234.203125 41.96875 233.789062 42.054688 233.3125 42.054688 C 232.914062 42.054688 232.570312 41.976562 232.28125 41.820312 C 231.988281 41.664062 231.742188 41.445312 231.546875 41.164062 C 231.359375 40.875 231.21875 40.535156 231.125 40.148438 C 231.039062 39.753906 231 39.320312 231 38.851562 C 231 38.363281 231.046875 37.921875 231.140625 37.523438 C 231.234375 37.128906 231.378906 36.789062 231.578125 36.507812 C 231.785156 36.21875 232.039062 35.992188 232.34375 35.835938 C 232.65625 35.679688 233.019531 35.601562 233.4375 35.601562 C 233.863281 35.601562 234.242188 35.695312 234.578125 35.882812 C 234.910156 36.0625 235.171875 36.347656 235.359375 36.742188 L 235.390625 36.742188 C 235.390625 36.671875 235.390625 36.582031 235.390625 36.476562 C 235.398438 36.363281 235.40625 36.257812 235.40625 36.164062 C 235.414062 36.0625 235.425781 35.972656 235.4375 35.898438 C 235.445312 35.816406 235.457031 35.757812 235.46875 35.726562 L 237.03125 35.726562 C 237.019531 35.875 237.007812 36.070312 237 36.320312 C 237 36.570312 237 36.863281 237 37.195312 L 237 41.882812 C 237 42.339844 236.929688 42.742188 236.796875 43.085938 C 236.660156 43.429688 236.460938 43.710938 236.203125 43.929688 C 235.953125 44.15625 235.640625 44.328125 235.265625 44.445312 C 234.890625 44.558594 234.46875 44.617188 234 44.617188 Z M 235.375 38.804688 C 235.375 38.410156 235.332031 38.082031 235.25 37.820312 C 235.175781 37.550781 235.078125 37.335938 234.953125 37.179688 C 234.828125 37.015625 234.679688 36.898438 234.515625 36.835938 C 234.359375 36.773438 234.195312 36.742188 234.03125 36.742188 C 233.820312 36.742188 233.632812 36.785156 233.46875 36.867188 C 233.300781 36.941406 233.160156 37.066406 233.046875 37.242188 C 232.941406 37.410156 232.859375 37.628906 232.796875 37.898438 C 232.734375 38.160156 232.703125 38.476562 232.703125 38.851562 C 232.703125 39.53125 232.8125 40.046875 233.03125 40.398438 C 233.25 40.742188 233.578125 40.914062 234.015625 40.914062 C 234.179688 40.914062 234.34375 40.882812 234.5 40.820312 C 234.664062 40.757812 234.8125 40.648438 234.9375 40.492188 C 235.070312 40.328125 235.175781 40.109375 235.25 39.835938 C 235.332031 39.566406 235.375 39.222656 235.375 38.804688 Z M 244.5 32.070312 L 245.5 32.070312 L 245.5 33.070312 L 244.5 33.070312 Z M 245.5 32.070312 L 246.5 32.070312 L 246.5 33.070312 L 245.5 33.070312 Z M 246.5 32.070312 L 247.5 32.070312 L 247.5 33.070312 L 246.5 33.070312 Z M 247.5 32.070312 L 248.5 32.070312 L 248.5 33.070312 L 247.5 33.070312 Z M 248.5 32.070312 L 249.5 32.070312 L 249.5 33.070312 L 248.5 33.070312 Z M 249.5 32.070312 L 250.5 32.070312 L 250.5 33.070312 L 249.5 33.070312 Z M 250.5 32.070312 L 251.5 32.070312 L 251.5 33.070312 L 250.5 33.070312 Z M 251.5 32.070312 L 252.5 32.070312 L 252.5 33.070312 L 251.5 33.070312 Z M 244.5 33.070312 L 245.5 33.070312 L 245.5 34.070312 L 244.5 34.070312 Z M 245.5 33.070312 L 246.5 33.070312 L 246.5 34.070312 L 245.5 34.070312 Z M 246.5 33.070312 L 247.5 33.070312 L 247.5 34.070312 L 246.5 34.070312 Z M 247.5 33.070312 L 248.5 33.070312 L 248.5 34.070312 L 247.5 34.070312 Z M 248.5 33.070312 L 249.5 33.070312 L 249.5 34.070312 L 248.5 34.070312 Z M 249.5 33.070312 L 250.5 33.070312 L 250.5 34.070312 L 249.5 34.070312 Z M 250.5 33.070312 L 251.5 33.070312 L 251.5 34.070312 L 250.5 34.070312 Z M 251.5 33.070312 L 252.5 33.070312 L 252.5 34.070312 L 251.5 34.070312 Z M 243.5 34.070312 L 244.5 34.070312 L 244.5 35.070312 L 243.5 35.070312 Z M 244.5 34.070312 L 245.5 34.070312 L 245.5 35.070312 L 244.5 35.070312 Z M 245.5 34.070312 L 246.5 34.070312 L 246.5 35.070312 L 245.5 35.070312 Z M 246.5 34.070312 L 247.5 34.070312 L 247.5 35.070312 L 246.5 35.070312 Z M 247.5 34.070312 L 248.5 34.070312 L 248.5 35.070312 L 247.5 35.070312 Z M 248.5 34.070312 L 249.5 34.070312 L 249.5 35.070312 L 248.5 35.070312 Z M 249.5 34.070312 L 250.5 34.070312 L 250.5 35.070312 L 249.5 35.070312 Z M 250.5 34.070312 L 251.5 34.070312 L 251.5 35.070312 L 250.5 35.070312 Z M 251.5 34.070312 L 252.5 34.070312 L 252.5 35.070312 L 251.5 35.070312 Z M 252.5 34.070312 L 253.5 34.070312 L 253.5 35.070312 L 252.5 35.070312 Z M 241.5 35.070312 L 242.5 35.070312 L 242.5 36.070312 L 241.5 36.070312 Z M 242.5 35.070312 L 243.5 35.070312 L 243.5 36.070312 L 242.5 36.070312 Z M 243.5 35.070312 L 244.5 35.070312 L 244.5 36.070312 L 243.5 36.070312 Z M 244.5 35.070312 L 245.5 35.070312 L 245.5 36.070312 L 244.5 36.070312 Z M 245.5 35.070312 L 246.5 35.070312 L 246.5 36.070312 L 245.5 36.070312 Z M 246.5 35.070312 L 247.5 35.070312 L 247.5 36.070312 L 246.5 36.070312 Z M 247.5 35.070312 L 248.5 35.070312 L 248.5 36.070312 L 247.5 36.070312 Z M 248.5 35.070312 L 249.5 35.070312 L 249.5 36.070312 L 248.5 36.070312 Z M 249.5 35.070312 L 250.5 35.070312 L 250.5 36.070312 L 249.5 36.070312 Z M 250.5 35.070312 L 251.5 35.070312 L 251.5 36.070312 L 250.5 36.070312 Z M 251.5 35.070312 L 252.5 35.070312 L 252.5 36.070312 L 251.5 36.070312 Z M 252.5 35.070312 L 253.5 35.070312 L 253.5 36.070312 L 252.5 36.070312 Z M 253.5 35.070312 L 254.5 35.070312 L 254.5 36.070312 L 253.5 36.070312 Z M 241.5 36.070312 L 242.5 36.070312 L 242.5 37.070312 L 241.5 37.070312 Z M 242.5 36.070312 L 243.5 36.070312 L 243.5 37.070312 L 242.5 37.070312 Z M 243.5 36.070312 L 244.5 36.070312 L 244.5 37.070312 L 243.5 37.070312 Z M 244.5 36.070312 L 245.5 36.070312 L 245.5 37.070312 L 244.5 37.070312 Z M 245.5 36.070312 L 246.5 36.070312 L 246.5 37.070312 L 245.5 37.070312 Z M 246.5 36.070312 L 247.5 36.070312 L 247.5 37.070312 L 246.5 37.070312 Z M 247.5 36.070312 L 248.5 36.070312 L 248.5 37.070312 L 247.5 37.070312 Z M 248.5 36.070312 L 249.5 36.070312 L 249.5 37.070312 L 248.5 37.070312 Z M 249.5 36.070312 L 250.5 36.070312 L 250.5 37.070312 L 249.5 37.070312 Z M 250.5 36.070312 L 251.5 36.070312 L 251.5 37.070312 L 250.5 37.070312 Z M 251.5 36.070312 L 252.5 36.070312 L 252.5 37.070312 L 251.5 37.070312 Z M 252.5 36.070312 L 253.5 36.070312 L 253.5 37.070312 L 252.5 37.070312 Z M 253.5 36.070312 L 254.5 36.070312 L 254.5 37.070312 L 253.5 37.070312 Z M 241.5 37.070312 L 242.5 37.070312 L 242.5 38.070312 L 241.5 38.070312 Z M 242.5 37.070312 L 243.5 37.070312 L 243.5 38.070312 L 242.5 38.070312 Z M 243.5 37.070312 L 244.5 37.070312 L 244.5 38.070312 L 243.5 38.070312 Z M 244.5 37.070312 L 245.5 37.070312 L 245.5 38.070312 L 244.5 38.070312 Z M 245.5 37.070312 L 246.5 37.070312 L 246.5 38.070312 L 245.5 38.070312 Z M 246.5 37.070312 L 247.5 37.070312 L 247.5 38.070312 L 246.5 38.070312 Z M 247.5 37.070312 L 248.5 37.070312 L 248.5 38.070312 L 247.5 38.070312 Z M 248.5 37.070312 L 249.5 37.070312 L 249.5 38.070312 L 248.5 38.070312 Z M 249.5 37.070312 L 250.5 37.070312 L 250.5 38.070312 L 249.5 38.070312 Z M 250.5 37.070312 L 251.5 37.070312 L 251.5 38.070312 L 250.5 38.070312 Z M 251.5 37.070312 L 252.5 37.070312 L 252.5 38.070312 L 251.5 38.070312 Z M 252.5 37.070312 L 253.5 37.070312 L 253.5 38.070312 L 252.5 38.070312 Z M 253.5 37.070312 L 254.5 37.070312 L 254.5 38.070312 L 253.5 38.070312 Z M 241.5 38.070312 L 242.5 38.070312 L 242.5 39.070312 L 241.5 39.070312 Z M 242.5 38.070312 L 243.5 38.070312 L 243.5 39.070312 L 242.5 39.070312 Z M 243.5 38.070312 L 244.5 38.070312 L 244.5 39.070312 L 243.5 39.070312 Z M 244.5 38.070312 L 245.5 38.070312 L 245.5 39.070312 L 244.5 39.070312 Z M 245.5 38.070312 L 246.5 38.070312 L 246.5 39.070312 L 245.5 39.070312 Z M 246.5 38.070312 L 247.5 38.070312 L 247.5 39.070312 L 246.5 39.070312 Z M 247.5 38.070312 L 248.5 38.070312 L 248.5 39.070312 L 247.5 39.070312 Z M 248.5 38.070312 L 249.5 38.070312 L 249.5 39.070312 L 248.5 39.070312 Z M 249.5 38.070312 L 250.5 38.070312 L 250.5 39.070312 L 249.5 39.070312 Z M 250.5 38.070312 L 251.5 38.070312 L 251.5 39.070312 L 250.5 39.070312 Z M 251.5 38.070312 L 252.5 38.070312 L 252.5 39.070312 L 251.5 39.070312 Z M 252.5 38.070312 L 253.5 38.070312 L 253.5 39.070312 L 252.5 39.070312 Z M 253.5 38.070312 L 254.5 38.070312 L 254.5 39.070312 L 253.5 39.070312 Z M 242.5 39.070312 L 243.5 39.070312 L 243.5 40.070312 L 242.5 40.070312 Z M 243.5 39.070312 L 244.5 39.070312 L 244.5 40.070312 L 243.5 40.070312 Z M 244.5 39.070312 L 245.5 39.070312 L 245.5 40.070312 L 244.5 40.070312 Z M 245.5 39.070312 L 246.5 39.070312 L 246.5 40.070312 L 245.5 40.070312 Z M 246.5 39.070312 L 247.5 39.070312 L 247.5 40.070312 L 246.5 40.070312 Z M 247.5 39.070312 L 248.5 39.070312 L 248.5 40.070312 L 247.5 40.070312 Z M 248.5 39.070312 L 249.5 39.070312 L 249.5 40.070312 L 248.5 40.070312 Z M 249.5 39.070312 L 250.5 39.070312 L 250.5 40.070312 L 249.5 40.070312 Z M 250.5 39.070312 L 251.5 39.070312 L 251.5 40.070312 L 250.5 40.070312 Z M 251.5 39.070312 L 252.5 39.070312 L 252.5 40.070312 L 251.5 40.070312 Z M 252.5 39.070312 L 253.5 39.070312 L 253.5 40.070312 L 252.5 40.070312 Z M 253.5 39.070312 L 254.5 39.070312 L 254.5 40.070312 L 253.5 40.070312 Z M 242.5 40.070312 L 243.5 40.070312 L 243.5 41.070312 L 242.5 41.070312 Z M 243.5 40.070312 L 244.5 40.070312 L 244.5 41.070312 L 243.5 41.070312 Z M 244.5 40.070312 L 245.5 40.070312 L 245.5 41.070312 L 244.5 41.070312 Z M 245.5 40.070312 L 246.5 40.070312 L 246.5 41.070312 L 245.5 41.070312 Z M 246.5 40.070312 L 247.5 40.070312 L 247.5 41.070312 L 246.5 41.070312 Z M 247.5 40.070312 L 248.5 40.070312 L 248.5 41.070312 L 247.5 41.070312 Z M 248.5 40.070312 L 249.5 40.070312 L 249.5 41.070312 L 248.5 41.070312 Z M 249.5 40.070312 L 250.5 40.070312 L 250.5 41.070312 L 249.5 41.070312 Z M 250.5 40.070312 L 251.5 40.070312 L 251.5 41.070312 L 250.5 41.070312 Z M 251.5 40.070312 L 252.5 40.070312 L 252.5 41.070312 L 251.5 41.070312 Z M 252.5 40.070312 L 253.5 40.070312 L 253.5 41.070312 L 252.5 41.070312 Z M 253.5 40.070312 L 254.5 40.070312 L 254.5 41.070312 L 253.5 41.070312 Z M 242.5 41.070312 L 243.5 41.070312 L 243.5 42.070312 L 242.5 42.070312 Z M 243.5 41.070312 L 244.5 41.070312 L 244.5 42.070312 L 243.5 42.070312 Z M 244.5 41.070312 L 245.5 41.070312 L 245.5 42.070312 L 244.5 42.070312 Z M 245.5 41.070312 L 246.5 41.070312 L 246.5 42.070312 L 245.5 42.070312 Z M 246.5 41.070312 L 247.5 41.070312 L 247.5 42.070312 L 246.5 42.070312 Z M 247.5 41.070312 L 248.5 41.070312 L 248.5 42.070312 L 247.5 42.070312 Z M 248.5 41.070312 L 249.5 41.070312 L 249.5 42.070312 L 248.5 42.070312 Z M 249.5 41.070312 L 250.5 41.070312 L 250.5 42.070312 L 249.5 42.070312 Z M 250.5 41.070312 L 251.5 41.070312 L 251.5 42.070312 L 250.5 42.070312 Z M 251.5 41.070312 L 252.5 41.070312 L 252.5 42.070312 L 251.5 42.070312 Z M 252.5 41.070312 L 253.5 41.070312 L 253.5 42.070312 L 252.5 42.070312 Z M 253.5 41.070312 L 254.5 41.070312 L 254.5 42.070312 L 253.5 42.070312 Z M 242.5 42.070312 L 243.5 42.070312 L 243.5 43.070312 L 242.5 43.070312 Z M 243.5 42.070312 L 244.5 42.070312 L 244.5 43.070312 L 243.5 43.070312 Z M 244.5 42.070312 L 245.5 42.070312 L 245.5 43.070312 L 244.5 43.070312 Z M 245.5 42.070312 L 246.5 42.070312 L 246.5 43.070312 L 245.5 43.070312 Z M 246.5 42.070312 L 247.5 42.070312 L 247.5 43.070312 L 246.5 43.070312 Z M 247.5 42.070312 L 248.5 42.070312 L 248.5 43.070312 L 247.5 43.070312 Z M 248.5 42.070312 L 249.5 42.070312 L 249.5 43.070312 L 248.5 43.070312 Z M 249.5 42.070312 L 250.5 42.070312 L 250.5 43.070312 L 249.5 43.070312 Z M 250.5 42.070312 L 251.5 42.070312 L 251.5 43.070312 L 250.5 43.070312 Z M 251.5 42.070312 L 252.5 42.070312 L 252.5 43.070312 L 251.5 43.070312 Z M 252.5 42.070312 L 253.5 42.070312 L 253.5 43.070312 L 252.5 43.070312 Z M 253.5 42.070312 L 254.5 42.070312 L 254.5 43.070312 L 253.5 43.070312 Z M 243.5 43.070312 L 244.5 43.070312 L 244.5 44.070312 L 243.5 44.070312 Z M 244.5 43.070312 L 245.5 43.070312 L 245.5 44.070312 L 244.5 44.070312 Z M 245.5 43.070312 L 246.5 43.070312 L 246.5 44.070312 L 245.5 44.070312 Z M 246.5 43.070312 L 247.5 43.070312 L 247.5 44.070312 L 246.5 44.070312 Z M 247.5 43.070312 L 248.5 43.070312 L 248.5 44.070312 L 247.5 44.070312 Z M 248.5 43.070312 L 249.5 43.070312 L 249.5 44.070312 L 248.5 44.070312 Z M 249.5 43.070312 L 250.5 43.070312 L 250.5 44.070312 L 249.5 44.070312 Z M 250.5 43.070312 L 251.5 43.070312 L 251.5 44.070312 L 250.5 44.070312 Z M 251.5 43.070312 L 252.5 43.070312 L 252.5 44.070312 L 251.5 44.070312 Z M 253.5 43.070312 L 254.5 43.070312 L 254.5 44.070312 L 253.5 44.070312 Z M 190.5 30.953125 "/>
<path style="fill-rule:nonzero;fill:rgb(96.078431%,82.352941%,28.235294%);fill-opacity:1;stroke-width:2;stroke-linecap:butt;stroke-linejoin:bevel;stroke:rgb(100%,100%,100%);stroke-opacity:1;stroke-miterlimit:10;" d="M 200 55 C 245.875 55 287.875 80.738281 308.703125 121.613281 C 329.53125 162.488281 325.664062 211.59375 298.699219 248.710938 L 200 177 Z M 200 55 "/>
<path style="fill-rule:nonzero;fill:rgb(89.019608%,54.509804%,51.764706%);fill-opacity:1;stroke-width:2;stroke-linecap:butt;stroke-linejoin:bevel;stroke:rgb(100%,100%,100%);stroke-opacity:1;stroke-miterlimit:10;" d="M 298.699219 248.710938 C 259.097656 303.21875 182.800781 315.304688 128.289062 275.699219 L 200 177 Z M 298.699219 248.710938 "/>
<path style="fill-rule:nonzero;fill:rgb(12.54902%,36.862745%,44.313725%);fill-opacity:1;stroke-width:2;stroke-linecap:butt;stroke-linejoin:bevel;stroke:rgb(100%,100%,100%);stroke-opacity:1;stroke-miterlimit:10;" d="M 128.289062 275.699219 C 73.78125 236.097656 61.695312 159.800781 101.300781 105.289062 L 200 177 Z M 128.289062 275.699219 "/>
<path style="fill-rule:nonzero;fill:rgb(39.215686%,90.980392%,23.529412%);fill-opacity:1;stroke-width:2;stroke-linecap:butt;stroke-linejoin:bevel;stroke:rgb(100%,100%,100%);stroke-opacity:1;stroke-miterlimit:10;" d="M 101.300781 105.289062 C 124.253906 73.695312 160.945312 55 200 55 L 200 177 Z M 101.300781 105.289062 "/>
</g>
</svg>
